<svg viewBox="0 0 97 30" fill="none" xmlns="http://www.w3.org/2000/svg">
  <circle cx="1.8" cy="1.8" r="1.8" fill="#956FFF"/>
  <circle cx="11.1" cy="1.8" r="1.8" fill="#956FFF"/>
  <circle cx="20.5" cy="1.8" r="1.8" fill="#956FFF"/>
  <circle cx="29.8" cy="1.8" r="1.8" fill="#956FFF"/>
  <circle cx="39.2" cy="1.8" r="1.8" fill="#956FFF"/>
  <circle cx="48.5" cy="1.8" r="1.8" fill="#956FFF"/>
  <circle cx="57.8" cy="1.8" r="1.8" fill="#956FFF"/>
  <circle cx="67.2" cy="1.8" r="1.8" fill="#956FFF"/>
  <circle cx="76.5" cy="1.8" r="1.8" fill="#956FFF"/>
  <circle cx="85.9" cy="1.8" r="1.8" fill="#956FFF"/>
  <circle cx="95.2" cy="1.8" r="1.8" fill="#956FFF"/>
  <circle cx="1.8" cy="10.4" r="1.8" fill="#956FFF"/>
  <circle cx="11.1" cy="10.4" r="1.8" fill="#956FFF"/>
  <circle cx="20.5" cy="10.4" r="1.8" fill="#956FFF"/>
  <circle cx="29.8" cy="10.4" r="1.8" fill="#956FFF"/>
  <circle cx="39.2" cy="10.4" r="1.8" fill="#956FFF"/>
  <circle cx="48.5" cy="10.4" r="1.8" fill="#956FFF"/>
  <circle cx="57.8" cy="10.4" r="1.8" fill="#956FFF"/>
  <circle cx="67.2" cy="10.4" r="1.8" fill="#956FFF"/>
  <circle cx="1.8" cy="19" r="1.8" fill="#956FFF"/>
  <circle cx="11.1" cy="19" r="1.8" fill="#956FFF"/>
  <circle cx="20.5" cy="19" r="1.8" fill="#956FFF"/>
  <circle cx="29.8" cy="19" r="1.8" fill="#956FFF"/>
  <circle cx="39.2" cy="19" r="1.8" fill="#956FFF"/>
  <circle cx="1.8" cy="27.7" r="1.8" fill="#956FFF"/>
  <circle cx="11.1" cy="27.7" r="1.8" fill="#956FFF"/>
  <circle cx="20.5" cy="27.7" r="1.8" fill="#956FFF"/>
</svg>
