<svg width="298" height="300" viewBox="0 0 298 300" fill="none" xmlns="http://www.w3.org/2000/svg">
<rect x="99.9004" width="199.8" height="199.8" fill="none"/>
<rect width="99.8999" height="99.8999" fill="none"/>
<rect x="199.8" y="199.8" width="99.8999" height="99.8999" fill="none"/>
<path d="M199.7 0V50.0001H249.7V100H299.7V0H199.7Z" fill="#8E75FF"/>
<path d="M249.7 50.001H199.89V100.099H249.7V50.001Z" fill="#D2C7FF"/>
<path d="M249.7 100.099H199.89V150.196H249.7V100.099Z" fill="#EBF4FD" fill-opacity="0.8"/>
<path d="M299.7 150.196H249.9V200.294H299.7V150.196Z" fill="#EBF4FD" fill-opacity="0.5"/>
<path d="M99.8898 100.099H50.0898V150.196H99.8898V100.099Z" fill="#EBF4FD" fill-opacity="0.5"/>
<path d="M149.7 0H99.8896V50.0978H149.7V0Z" fill="#EBF4FD" fill-opacity="0.8"/>
<path d="M199.7 50.0001H149.7L199.7 0V50.0001Z" fill="#D2C7FF"/>
<path d="M249.4 150V100H299.4L249.4 150Z" fill="#D2C7FF"/>
</svg>
