<svg width="200" height="273" viewBox="0 0 200 273" fill="none" xmlns="http://www.w3.org/2000/svg">
<g clip-path="url(#clip0_146_1522)">
<path d="M-0.628931 200.629V0L200 200.629H-0.628931Z" fill="url(#paint0_linear_146_1522)"/>
</g>
<g clip-path="url(#clip1_146_1522)">
<path d="M2.50515 235.639C3.88871 235.639 5.01031 234.518 5.01031 233.134C5.01031 231.751 3.88871 230.629 2.50515 230.629C1.1216 230.629 0 231.751 0 233.134C0 234.518 1.1216 235.639 2.50515 235.639Z" fill="#956FFF"/>
<path d="M15.4485 235.639C16.832 235.639 17.9536 234.518 17.9536 233.134C17.9536 231.751 16.832 230.629 15.4485 230.629C14.0649 230.629 12.9433 231.751 12.9433 233.134C12.9433 234.518 14.0649 235.639 15.4485 235.639Z" fill="#956FFF"/>
<path d="M28.5309 235.639C29.9145 235.639 31.0361 234.518 31.0361 233.134C31.0361 231.751 29.9145 230.629 28.5309 230.629C27.1474 230.629 26.0258 231.751 26.0258 233.134C26.0258 234.518 27.1474 235.639 28.5309 235.639Z" fill="#956FFF"/>
<path d="M41.4742 235.639C42.8578 235.639 43.9794 234.518 43.9794 233.134C43.9794 231.751 42.8578 230.629 41.4742 230.629C40.0907 230.629 38.9691 231.751 38.9691 233.134C38.9691 234.518 40.0907 235.639 41.4742 235.639Z" fill="#956FFF"/>
<path d="M54.5567 235.639C55.9403 235.639 57.0619 234.518 57.0619 233.134C57.0619 231.751 55.9403 230.629 54.5567 230.629C53.1731 230.629 52.0516 231.751 52.0516 233.134C52.0516 234.518 53.1731 235.639 54.5567 235.639Z" fill="#956FFF"/>
<path d="M67.5 235.639C68.8836 235.639 70.0051 234.518 70.0051 233.134C70.0051 231.751 68.8836 230.629 67.5 230.629C66.1164 230.629 64.9948 231.751 64.9948 233.134C64.9948 234.518 66.1164 235.639 67.5 235.639Z" fill="#956FFF"/>
<path d="M80.4433 235.639C81.8269 235.639 82.9485 234.518 82.9485 233.134C82.9485 231.751 81.8269 230.629 80.4433 230.629C79.0597 230.629 77.9381 231.751 77.9381 233.134C77.9381 234.518 79.0597 235.639 80.4433 235.639Z" fill="#956FFF"/>
<path d="M93.5258 235.639C94.9093 235.639 96.0309 234.518 96.0309 233.134C96.0309 231.751 94.9093 230.629 93.5258 230.629C92.1422 230.629 91.0206 231.751 91.0206 233.134C91.0206 234.518 92.1422 235.639 93.5258 235.639Z" fill="#956FFF"/>
<path d="M106.469 235.639C107.853 235.639 108.974 234.518 108.974 233.134C108.974 231.751 107.853 230.629 106.469 230.629C105.086 230.629 103.964 231.751 103.964 233.134C103.964 234.518 105.086 235.639 106.469 235.639Z" fill="#956FFF"/>
<path d="M119.552 235.639C120.935 235.639 122.057 234.518 122.057 233.134C122.057 231.751 120.935 230.629 119.552 230.629C118.168 230.629 117.046 231.751 117.046 233.134C117.046 234.518 118.168 235.639 119.552 235.639Z" fill="#956FFF"/>
<path d="M132.495 235.639C133.878 235.639 135 234.518 135 233.134C135 231.751 133.878 230.629 132.495 230.629C131.111 230.629 129.99 231.751 129.99 233.134C129.99 234.518 131.111 235.639 132.495 235.639Z" fill="#956FFF"/>
<path d="M2.50515 247.608C3.88871 247.608 5.01031 246.486 5.01031 245.103C5.01031 243.719 3.88871 242.598 2.50515 242.598C1.1216 242.598 0 243.719 0 245.103C0 246.486 1.1216 247.608 2.50515 247.608Z" fill="#956FFF"/>
<path d="M15.4485 247.608C16.832 247.608 17.9536 246.486 17.9536 245.103C17.9536 243.719 16.832 242.598 15.4485 242.598C14.0649 242.598 12.9433 243.719 12.9433 245.103C12.9433 246.486 14.0649 247.608 15.4485 247.608Z" fill="#956FFF"/>
<path d="M28.5309 247.608C29.9145 247.608 31.0361 246.486 31.0361 245.103C31.0361 243.719 29.9145 242.598 28.5309 242.598C27.1474 242.598 26.0258 243.719 26.0258 245.103C26.0258 246.486 27.1474 247.608 28.5309 247.608Z" fill="#956FFF"/>
<path d="M41.4742 247.608C42.8578 247.608 43.9794 246.486 43.9794 245.103C43.9794 243.719 42.8578 242.598 41.4742 242.598C40.0907 242.598 38.9691 243.719 38.9691 245.103C38.9691 246.486 40.0907 247.608 41.4742 247.608Z" fill="#956FFF"/>
<path d="M54.5567 247.608C55.9403 247.608 57.0619 246.486 57.0619 245.103C57.0619 243.719 55.9403 242.598 54.5567 242.598C53.1731 242.598 52.0516 243.719 52.0516 245.103C52.0516 246.486 53.1731 247.608 54.5567 247.608Z" fill="#956FFF"/>
<path d="M67.5 247.608C68.8836 247.608 70.0051 246.486 70.0051 245.103C70.0051 243.719 68.8836 242.598 67.5 242.598C66.1164 242.598 64.9948 243.719 64.9948 245.103C64.9948 246.486 66.1164 247.608 67.5 247.608Z" fill="#956FFF"/>
<path d="M80.4433 247.608C81.8269 247.608 82.9485 246.486 82.9485 245.103C82.9485 243.719 81.8269 242.598 80.4433 242.598C79.0597 242.598 77.9381 243.719 77.9381 245.103C77.9381 246.486 79.0597 247.608 80.4433 247.608Z" fill="#956FFF"/>
<path d="M93.5258 247.608C94.9093 247.608 96.0309 246.486 96.0309 245.103C96.0309 243.719 94.9093 242.598 93.5258 242.598C92.1422 242.598 91.0206 243.719 91.0206 245.103C91.0206 246.486 92.1422 247.608 93.5258 247.608Z" fill="#956FFF"/>
<path d="M2.50515 259.578C3.88871 259.578 5.01031 258.456 5.01031 257.073C5.01031 255.689 3.88871 254.567 2.50515 254.567C1.1216 254.567 0 255.689 0 257.073C0 258.456 1.1216 259.578 2.50515 259.578Z" fill="#956FFF"/>
<path d="M15.4485 259.578C16.832 259.578 17.9536 258.456 17.9536 257.073C17.9536 255.689 16.832 254.567 15.4485 254.567C14.0649 254.567 12.9433 255.689 12.9433 257.073C12.9433 258.456 14.0649 259.578 15.4485 259.578Z" fill="#956FFF"/>
<path d="M28.5309 259.578C29.9145 259.578 31.0361 258.456 31.0361 257.073C31.0361 255.689 29.9145 254.567 28.5309 254.567C27.1474 254.567 26.0258 255.689 26.0258 257.073C26.0258 258.456 27.1474 259.578 28.5309 259.578Z" fill="#956FFF"/>
<path d="M41.4742 259.578C42.8578 259.578 43.9794 258.456 43.9794 257.073C43.9794 255.689 42.8578 254.567 41.4742 254.567C40.0907 254.567 38.9691 255.689 38.9691 257.073C38.9691 258.456 40.0907 259.578 41.4742 259.578Z" fill="#956FFF"/>
<path d="M54.5567 259.578C55.9403 259.578 57.0619 258.456 57.0619 257.073C57.0619 255.689 55.9403 254.567 54.5567 254.567C53.1731 254.567 52.0516 255.689 52.0516 257.073C52.0516 258.456 53.1731 259.578 54.5567 259.578Z" fill="#956FFF"/>
<path d="M2.50515 271.686C3.88871 271.686 5.01031 270.564 5.01031 269.181C5.01031 267.797 3.88871 266.676 2.50515 266.676C1.1216 266.676 0 267.797 0 269.181C0 270.564 1.1216 271.686 2.50515 271.686Z" fill="#956FFF"/>
<path d="M15.4485 271.686C16.832 271.686 17.9536 270.564 17.9536 269.181C17.9536 267.797 16.832 266.676 15.4485 266.676C14.0649 266.676 12.9433 267.797 12.9433 269.181C12.9433 270.564 14.0649 271.686 15.4485 271.686Z" fill="#956FFF"/>
<path d="M28.5309 271.686C29.9145 271.686 31.0361 270.564 31.0361 269.181C31.0361 267.797 29.9145 266.676 28.5309 266.676C27.1474 266.676 26.0258 267.797 26.0258 269.181C26.0258 270.564 27.1474 271.686 28.5309 271.686Z" fill="#956FFF"/>
</g>
<defs>
<linearGradient id="paint0_linear_146_1522" x1="108.176" y1="-0.0628942" x2="-31.4465" y2="279.811" gradientUnits="userSpaceOnUse">
<stop stop-color="#956FFF"/>
<stop offset="1" stop-color="#1A2670"/>
</linearGradient>
<clipPath id="clip0_146_1522">
<rect width="200" height="200.629" fill="white"/>
</clipPath>
<clipPath id="clip1_146_1522">
<rect width="135" height="41.7526" fill="white" transform="translate(0 230.629)"/>
</clipPath>
</defs>
</svg>
