<svg width="135" height="41" fill="none" xmlns="http://www.w3.org/2000/svg"><circle r="2.5" transform="matrix(1 0 0 -1 2.5 38.5)" fill="#956FFF"/><circle r="2.5" transform="matrix(1 0 0 -1 15.5 38.5)" fill="#956FFF"/><circle r="2.5" transform="matrix(1 0 0 -1 28.5 38.5)" fill="#956FFF"/><circle r="2.5" transform="matrix(1 0 0 -1 41.5 38.5)" fill="#956FFF"/><circle r="2.5" transform="matrix(1 0 0 -1 54.5 38.5)" fill="#956FFF"/><circle r="2.5" transform="matrix(1 0 0 -1 67.5 38.5)" fill="#956FFF"/><circle r="2.5" transform="matrix(1 0 0 -1 80.5 38.5)" fill="#956FFF"/><circle r="2.5" transform="matrix(1 0 0 -1 93.5 38.5)" fill="#956FFF"/><circle r="2.5" transform="matrix(1 0 0 -1 106.5 38.5)" fill="#956FFF"/><circle r="2.5" transform="matrix(1 0 0 -1 119.5 38.5)" fill="#956FFF"/><circle r="2.5" transform="matrix(1 0 0 -1 132.5 38.5)" fill="#956FFF"/><circle r="2.5" transform="matrix(1 0 0 -1 2.5 26.5)" fill="#956FFF"/><circle r="2.5" transform="matrix(1 0 0 -1 15.5 26.5)" fill="#956FFF"/><circle r="2.5" transform="matrix(1 0 0 -1 28.5 26.5)" fill="#956FFF"/><circle r="2.5" transform="matrix(1 0 0 -1 41.5 26.5)" fill="#956FFF"/><circle r="2.5" transform="matrix(1 0 0 -1 54.5 26.5)" fill="#956FFF"/><circle r="2.5" transform="matrix(1 0 0 -1 67.5 26.5)" fill="#956FFF"/><circle r="2.5" transform="matrix(1 0 0 -1 80.5 26.5)" fill="#956FFF"/><circle r="2.5" transform="matrix(1 0 0 -1 93.5 26.5)" fill="#956FFF"/><circle r="2.5" transform="matrix(1 0 0 -1 2.5 14.5)" fill="#956FFF"/><circle r="2.5" transform="matrix(1 0 0 -1 15.5 14.5)" fill="#956FFF"/><circle r="2.5" transform="matrix(1 0 0 -1 28.5 14.5)" fill="#956FFF"/><circle r="2.5" transform="matrix(1 0 0 -1 41.5 14.5)" fill="#956FFF"/><circle r="2.5" transform="matrix(1 0 0 -1 54.5 14.5)" fill="#956FFF"/><circle r="2.5" transform="matrix(1 0 0 -1 2.5 2.5)" fill="#956FFF"/><circle r="2.5" transform="matrix(1 0 0 -1 15.5 2.5)" fill="#956FFF"/><circle r="2.5" transform="matrix(1 0 0 -1 28.5 2.5)" fill="#956FFF"/></svg>