<svg width="177" height="151" viewBox="0 0 177 151" fill="none" xmlns="http://www.w3.org/2000/svg">
<g clip-path="url(#clip0_146_1813)">
<path d="M176.777 0.0830078V96.2495L80.6104 0.0830078H176.777Z" fill="url(#paint0_linear_146_1813)"/>
<path d="M97.2272 57.0054C96.2509 57.9818 94.668 57.9818 93.6917 57.0054C92.7154 56.0291 92.7154 54.4462 93.6917 53.4699C94.668 52.4936 96.2509 52.4936 97.2272 53.4699C98.2036 54.4462 98.2036 56.0291 97.2272 57.0054Z" fill="#956FFF"/>
<path d="M88.0349 66.1978C87.0585 67.1741 85.4756 67.1741 84.4993 66.1978C83.523 65.2215 83.523 63.6386 84.4993 62.6623C85.4756 61.686 87.0585 61.686 88.0349 62.6623C89.0112 63.6386 89.0112 65.2215 88.0349 66.1978Z" fill="#956FFF"/>
<path d="M78.8425 75.3902C77.8662 76.3665 76.2833 76.3665 75.3069 75.3902C74.3306 74.4139 74.3306 72.831 75.3069 71.8547C76.2833 70.8784 77.8662 70.8784 78.8425 71.8547C79.8188 72.831 79.8188 74.4139 78.8425 75.3902Z" fill="#956FFF"/>
<path d="M69.6501 84.5826C68.6738 85.5589 67.0909 85.5589 66.1146 84.5826C65.1382 83.6063 65.1382 82.0234 66.1146 81.0471C67.0909 80.0708 68.6738 80.0708 69.6501 81.0471C70.6264 82.0234 70.6264 83.6063 69.6501 84.5826Z" fill="#956FFF"/>
<path d="M60.4577 93.775C59.4814 94.7513 57.8985 94.7513 56.9222 93.775C55.9459 92.7987 55.9459 91.2158 56.9222 90.2394C57.8985 89.2631 59.4814 89.2631 60.4577 90.2394C61.434 91.2158 61.434 92.7987 60.4577 93.775Z" fill="#956FFF"/>
<path d="M51.2653 102.967C50.289 103.944 48.7061 103.944 47.7298 102.967C46.7535 101.991 46.7535 100.408 47.7298 99.4318C48.7061 98.4555 50.289 98.4555 51.2653 99.4318C52.2416 100.408 52.2416 101.991 51.2653 102.967Z" fill="#956FFF"/>
<path d="M42.0729 112.16C41.0966 113.136 39.5137 113.136 38.5374 112.16C37.5611 111.183 37.5611 109.601 38.5374 108.624C39.5137 107.648 41.0966 107.648 42.0729 108.624C43.0493 109.601 43.0493 111.183 42.0729 112.16Z" fill="#956FFF"/>
<path d="M32.8806 121.352C31.9042 122.328 30.3213 122.328 29.345 121.352C28.3687 120.376 28.3687 118.793 29.345 117.817C30.3213 116.84 31.9042 116.84 32.8806 117.817C33.8569 118.793 33.8569 120.376 32.8806 121.352Z" fill="#956FFF"/>
<path d="M23.6882 130.545C22.7119 131.521 21.129 131.521 20.1526 130.545C19.1763 129.568 19.1763 127.985 20.1526 127.009C21.129 126.033 22.7119 126.033 23.6882 127.009C24.6645 127.985 24.6645 129.568 23.6882 130.545Z" fill="#956FFF"/>
<path d="M14.4958 139.737C13.5195 140.713 11.9366 140.713 10.9603 139.737C9.98395 138.761 9.98395 137.178 10.9603 136.201C11.9366 135.225 13.5195 135.225 14.4958 136.201C15.4721 137.178 15.4721 138.761 14.4958 139.737Z" fill="#956FFF"/>
<path d="M5.30341 148.929C4.3271 149.906 2.74419 149.906 1.76788 148.929C0.791567 147.953 0.791567 146.37 1.76788 145.394C2.74419 144.417 4.3271 144.417 5.30341 145.394C6.27972 146.37 6.27972 147.953 5.30341 148.929Z" fill="#956FFF"/>
<path d="M105.713 65.4908C104.736 66.4671 103.153 66.4671 102.177 65.4908C101.201 64.5145 101.201 62.9316 102.177 61.9553C103.153 60.979 104.736 60.979 105.713 61.9553C106.689 62.9316 106.689 64.5145 105.713 65.4908Z" fill="#956FFF"/>
<path d="M96.5202 74.6832C95.5439 75.6595 93.961 75.6595 92.9847 74.6832C92.0084 73.7069 92.0084 72.124 92.9847 71.1476C93.961 70.1713 95.5439 70.1713 96.5202 71.1476C97.4965 72.124 97.4965 73.7069 96.5202 74.6832Z" fill="#956FFF"/>
<path d="M87.3278 83.8756C86.3515 84.8519 84.7686 84.8519 83.7923 83.8756C82.816 82.8993 82.816 81.3163 83.7923 80.34C84.7686 79.3637 86.3515 79.3637 87.3278 80.34C88.3041 81.3163 88.3041 82.8993 87.3278 83.8756Z" fill="#956FFF"/>
<path d="M78.1354 93.0679C77.1591 94.0443 75.5762 94.0443 74.5999 93.0679C73.6236 92.0916 73.6236 90.5087 74.5999 89.5324C75.5762 88.5561 77.1591 88.5561 78.1354 89.5324C79.1118 90.5087 79.1118 92.0916 78.1354 93.0679Z" fill="#956FFF"/>
<path d="M68.9431 102.26C67.9667 103.237 66.3838 103.237 65.4075 102.26C64.4312 101.284 64.4312 99.7011 65.4075 98.7248C66.3838 97.7485 67.9667 97.7485 68.9431 98.7248C69.9194 99.7011 69.9194 101.284 68.9431 102.26Z" fill="#956FFF"/>
<path d="M59.7507 111.453C58.7744 112.429 57.1915 112.429 56.2151 111.453C55.2388 110.476 55.2388 108.893 56.2151 107.917C57.1915 106.941 58.7744 106.941 59.7507 107.917C60.727 108.893 60.727 110.476 59.7507 111.453Z" fill="#956FFF"/>
<path d="M50.5583 120.645C49.582 121.621 47.9991 121.621 47.0228 120.645C46.0464 119.669 46.0464 118.086 47.0228 117.11C47.9991 116.133 49.582 116.133 50.5583 117.11C51.5346 118.086 51.5346 119.669 50.5583 120.645Z" fill="#956FFF"/>
<path d="M41.3659 129.837C40.3896 130.814 38.8067 130.814 37.8304 129.837C36.8541 128.861 36.8541 127.278 37.8304 126.302C38.8067 125.326 40.3896 125.326 41.3659 126.302C42.3422 127.278 42.3422 128.861 41.3659 129.837Z" fill="#956FFF"/>
<path d="M114.198 73.9762C113.222 74.9525 111.639 74.9525 110.662 73.9762C109.686 72.9998 109.686 71.4169 110.662 70.4406C111.639 69.4643 113.222 69.4643 114.198 70.4406C115.174 71.4169 115.174 72.9998 114.198 73.9762Z" fill="#956FFF"/>
<path d="M105.006 83.1685C104.029 84.1448 102.446 84.1448 101.47 83.1685C100.494 82.1922 100.494 80.6093 101.47 79.633C102.446 78.6567 104.029 78.6567 105.006 79.633C105.982 80.6093 105.982 82.1922 105.006 83.1685Z" fill="#956FFF"/>
<path d="M95.8132 92.3609C94.8369 93.3372 93.254 93.3372 92.2776 92.3609C91.3013 91.3846 91.3013 89.8017 92.2776 88.8254C93.254 87.8491 94.8369 87.8491 95.8132 88.8254C96.7895 89.8017 96.7895 91.3846 95.8132 92.3609Z" fill="#956FFF"/>
<path d="M86.6208 101.553C85.6445 102.53 84.0616 102.53 83.0853 101.553C82.1089 100.577 82.1089 98.9941 83.0853 98.0178C84.0616 97.0415 85.6445 97.0415 86.6208 98.0178C87.5971 98.9941 87.5971 100.577 86.6208 101.553Z" fill="#956FFF"/>
<path d="M77.4284 110.746C76.4521 111.722 74.8692 111.722 73.8929 110.746C72.9166 109.769 72.9166 108.186 73.8929 107.21C74.8692 106.234 76.4521 106.234 77.4284 107.21C78.4047 108.186 78.4047 109.769 77.4284 110.746Z" fill="#956FFF"/>
<path d="M122.683 82.4615C121.707 83.4378 120.124 83.4378 119.148 82.4615C118.171 81.4852 118.171 79.9023 119.148 78.926C120.124 77.9497 121.707 77.9497 122.683 78.926C123.66 79.9023 123.66 81.4852 122.683 82.4615Z" fill="#956FFF"/>
<path d="M113.491 91.6539C112.515 92.6302 110.932 92.6302 109.955 91.6539C108.979 90.6776 108.979 89.0947 109.955 88.1184C110.932 87.142 112.515 87.142 113.491 88.1184C114.467 89.0947 114.467 90.6776 113.491 91.6539Z" fill="#956FFF"/>
<path d="M104.299 100.846C103.322 101.823 101.739 101.823 100.763 100.846C99.7867 99.87 99.7867 98.287 100.763 97.3107C101.739 96.3344 103.322 96.3344 104.299 97.3107C105.275 98.287 105.275 99.87 104.299 100.846Z" fill="#956FFF"/>
</g>
<defs>
<linearGradient id="paint0_linear_146_1813" x1="189.89" y1="5.1268" x2="95.0693" y2="118.778" gradientUnits="userSpaceOnUse">
<stop stop-color="#956FFF"/>
<stop offset="1" stop-color="#1A2670"/>
</linearGradient>
<clipPath id="clip0_146_1813">
<rect width="177" height="151" fill="white"/>
</clipPath>
</defs>
</svg>
