<svg xmlns="http://www.w3.org/2000/svg" viewBox="0 0 750 500"><g id="freepik--background-complete--inject-1"><path d="M337.06,78.3a30,30,0,0,1,7.27-3.16l1.5-7.2L358,67.73l1.75,7.14a29.28,29.28,0,0,1,7.38,2.9l6.15-4L382,82.19l-3.81,6.28a29.65,29.65,0,0,1,3.16,7.28l7.2,1.5.21,12.16-7.14,1.75a29.43,29.43,0,0,1-2.9,7.38l4,6.15-8.45,8.75L368,129.63a29.79,29.79,0,0,1-7.27,3.16l-1.5,7.2-12.16.21-1.75-7.14a29.82,29.82,0,0,1-7.38-2.9l-6.15,4-8.75-8.45,3.81-6.29a29.79,29.79,0,0,1-3.16-7.27l-7.2-1.5-.21-12.16,7.14-1.75a29.66,29.66,0,0,1,2.9-7.38l-4-6.15,8.45-8.75,6.29,3.81Zm6.48,16.2A13.05,13.05,0,1,0,362,94.18,13.05,13.05,0,0,0,343.54,94.5Z" style="fill:#ebebeb"></path><path d="M653.19,134.34a30,30,0,0,1,7.27-3.16L662,124l12.17-.21,1.75,7.14a30,30,0,0,1,7.38,2.9l6.14-4,8.76,8.45-3.81,6.29a30,30,0,0,1,3.16,7.27l7.19,1.5.22,12.16-7.14,1.76a29.78,29.78,0,0,1-2.91,7.37l4,6.15-8.45,8.75-6.28-3.81a29.48,29.48,0,0,1-7.28,3.16L675.4,196l-12.17.22-1.75-7.14a29.85,29.85,0,0,1-7.38-2.91l-6.15,4-8.75-8.45L643,175.5a29.86,29.86,0,0,1-3.16-7.28l-7.2-1.5-.21-12.16,7.14-1.75a30.21,30.21,0,0,1,2.9-7.38l-4-6.15,8.44-8.75,6.29,3.81Zm6.48,16.21a13,13,0,1,0,18.46-.33A13,13,0,0,0,659.67,150.55Z" style="fill:#ebebeb"></path><path d="M640,78.14a22.11,22.11,0,0,1,5.34-2.32l1.1-5.28,8.93-.16,1.29,5.24a21.76,21.76,0,0,1,5.41,2.13l4.51-3L673,81l-2.8,4.61A21.73,21.73,0,0,1,672.54,91l5.29,1.1L678,101l-5.24,1.28a21.83,21.83,0,0,1-2.13,5.42l3,4.51-6.21,6.43-4.61-2.8a22,22,0,0,1-5.34,2.32l-1.1,5.28-8.93.16-1.28-5.24a22,22,0,0,1-5.42-2.13l-4.51,3-6.42-6.2,2.79-4.61a22.11,22.11,0,0,1-2.32-5.34l-5.28-1.1L624.78,93,630,91.7a21.83,21.83,0,0,1,2.13-5.42l-3-4.51,6.2-6.43,4.61,2.8ZM644.77,90a9.58,9.58,0,1,0,13.55-.23A9.6,9.6,0,0,0,644.77,90Z" style="fill:#ebebeb"></path><circle cx="123.39" cy="97.69" r="53.88" transform="translate(15.7 212.45) rotate(-85.19)" style="fill:#ebebeb"></circle><circle cx="123.39" cy="97.69" r="43.1" transform="translate(-33.22 82.15) rotate(-32.7)" style="fill:#fafafa"></circle><circle cx="123.39" cy="97.69" r="32.33" transform="translate(-20.77 34.55) rotate(-14.72)" style="fill:#ebebeb"></circle><circle cx="123.39" cy="97.69" r="21.55" transform="translate(20.39 216.68) rotate(-87.49)" style="fill:#fafafa"></circle><circle cx="123.39" cy="97.69" r="10.78" transform="translate(16.29 213) rotate(-85.49)" style="fill:#ebebeb"></circle><polygon points="125.04 99.28 110.09 95.33 113.91 91.41 82.97 65.99 84.68 64.32 115.79 89.58 118.79 85.47 125.04 99.28" style="fill:#e0e0e0"></polygon><path d="M83,66l-.47.26a7.38,7.38,0,0,1-7.45-.1l-13-7.79L70.81,57l-.94-9.18L81.81,56a7.39,7.39,0,0,1,2.87,8.34h0Z" style="fill:#e0e0e0"></path><path d="M283.64,77.73a8,8,0,0,0-3.36-.2,4.43,4.43,0,0,1-1.15,0l4.44-16A2.22,2.22,0,0,0,282,58.84L265.4,54.23l-.52,1.88a3.57,3.57,0,0,0-.11,1.34,7.13,7.13,0,0,1-.21,2.78,7.33,7.33,0,0,1-14.25-3.42,7.25,7.25,0,0,1,1.61-3.3,3.5,3.5,0,0,0,.76-1.39l.37-1.32-16.83-4.73A2.71,2.71,0,0,0,232.88,48l-4.13,14.82-1.15-.32-.39-.13a8.93,8.93,0,1,0-4.8,14.21,2.85,2.85,0,0,1,.71.12l1.48.41L220,93.61A2.71,2.71,0,0,0,221.9,97l46,12.77a2.21,2.21,0,0,0,2.72-1.54l4.67-16.84a3.91,3.91,0,0,1,.75.53,8.07,8.07,0,0,0,4.58,2,8.24,8.24,0,0,0,3-16.13Z" style="fill:#f5f5f5"></path><path d="M54.1,384.15a8.24,8.24,0,0,0,3.35.38,4,4,0,0,1,1.15,0L53.34,400.3a2.22,2.22,0,0,0,1.4,2.8l16.37,5.46.62-1.85a3.59,3.59,0,0,0,.17-1.34,7.06,7.06,0,0,1,.36-2.75A7.33,7.33,0,1,1,84.53,410a3.71,3.71,0,0,0-.83,1.35l-.44,1.31,16.57,5.59a2.71,2.71,0,0,0,3.43-1.72l4.89-14.58,1.13.38.39.14a8.93,8.93,0,1,0,5.53-13.94,2.9,2.9,0,0,1-.71-.15l-1.45-.49,5.43-16.28a2.7,2.7,0,0,0-1.71-3.43L71.47,353a2.21,2.21,0,0,0-2.8,1.39L63.13,371a4.23,4.23,0,0,1-.71-.57A8.11,8.11,0,0,0,58,368.19a8.24,8.24,0,0,0-3.85,16Z" style="fill:#ebebeb"></path><path d="M203.27,332.45h-1V236.23a13.66,13.66,0,0,1,13.64-13.65h34.54v1H215.91a12.66,12.66,0,0,0-12.64,12.65Z" style="fill:#f5f5f5"></path><rect x="393.92" y="81.31" width="82.18" height="1" style="fill:#f5f5f5"></rect><path d="M600.61,163h-1V91a7.39,7.39,0,0,0-7.39-7.39H554v-1h38.18A8.39,8.39,0,0,1,600.61,91Z" style="fill:#f5f5f5"></path><rect x="474.49" y="42.96" width="83.27" height="77.7" rx="11.11" style="fill:#f5f5f5"></rect><path d="M578.6,385a7.81,7.81,0,0,0,3.14.72,4.34,4.34,0,0,1,1.08.16l-6.67,14.37a2.11,2.11,0,0,0,1,2.8L592.12,410l.79-1.7a3.59,3.59,0,0,0,.31-1.25,6.79,6.79,0,0,1,.63-2.57,7,7,0,0,1,12.89,5.44,6.91,6.91,0,0,1-2,2.85,3.47,3.47,0,0,0-.93,1.19l-.56,1.19,15.12,7.09a2.6,2.6,0,0,0,3.45-1.26l6.2-13.32,1,.48a3.84,3.84,0,0,1,.35.18,8.53,8.53,0,1,0,6.74-12.64,3.41,3.41,0,0,1-.66-.22l-1.32-.61L641,380a2.6,2.6,0,0,0-1.26-3.45l-41.36-19.21a2.12,2.12,0,0,0-2.81,1l-7,15.14a4.47,4.47,0,0,1-.61-.62A7.85,7.85,0,1,0,578.6,385Z" style="fill:#ebebeb"></path></g><g id="freepik--Floor--inject-1"><path d="M704.19,467c0,.15-147.54.26-329.51.26S45.13,467.17,45.13,467s147.52-.26,329.55-.26S704.19,466.88,704.19,467Z" style="fill:#263238"></path></g><g id="freepik--window-2--inject-1"><rect x="573.44" y="162.42" width="92" height="103.77" rx="10.62" style="fill:#fff"></rect><rect x="590.44" y="183.96" width="11.21" height="67.31" rx="5.44" style="fill:#ebebeb"></rect><path d="M596.21,251.27a7.84,7.84,0,0,0,1.47-.26,5.42,5.42,0,0,0,3.21-2.6,5.74,5.74,0,0,0,.64-2.95c0-1.13,0-2.37,0-3.69,0-2.66,0-5.68,0-9,0-6.69,0-14.65-.06-23.47,0-4.42,0-9.06,0-13.87,0-1.2,0-2.41,0-3.63v-1.84a7,7,0,0,0-.15-1.78,5.23,5.23,0,0,0-5.35-3.94,5.17,5.17,0,0,0-5.1,4.24,9.61,9.61,0,0,0-.09,1.8v1.84c0,1.22,0,2.43,0,3.64,0,4.8,0,9.44,0,13.86,0,8.83,0,16.78-.06,23.48,0,3.33,0,6.35,0,9,0,1.33,0,2.56,0,3.7a5.4,5.4,0,0,0,.81,2.89,5.46,5.46,0,0,0,3.36,2.41,10.5,10.5,0,0,0,1.48.18l-.38,0a6,6,0,0,1-1.12-.1,5.51,5.51,0,0,1-4.39-5.41c0-1.14,0-2.37,0-3.7,0-2.66,0-5.68,0-9,0-6.7,0-14.65-.06-23.48,0-4.42,0-9.06,0-13.86v-5.48a10.27,10.27,0,0,1,.1-1.9,5.73,5.73,0,0,1,1.94-3.33,6.17,6.17,0,0,1,7.39-.2,5.65,5.65,0,0,1,2.13,3.2,7.38,7.38,0,0,1,.17,1.91v5.47c0,4.81,0,9.45,0,13.87,0,8.82,0,16.78,0,23.47,0,3.34,0,6.36,0,9,0,1.32,0,2.56,0,3.69a5.84,5.84,0,0,1-.72,3,5.43,5.43,0,0,1-3.36,2.6A4.22,4.22,0,0,1,596.21,251.27Z" style="fill:#263238"></path><rect x="612.9" y="183.96" width="11.21" height="67.31" rx="5.44" style="fill:#ebebeb"></rect><path d="M618.67,251.27a8,8,0,0,0,1.46-.26,5.37,5.37,0,0,0,3.21-2.6,5.65,5.65,0,0,0,.65-2.95c0-1.13,0-2.37,0-3.69,0-2.66,0-5.68,0-9,0-6.69,0-14.65-.06-23.47,0-4.42,0-9.06,0-13.87,0-1.2,0-2.41,0-3.63v-1.84a6.53,6.53,0,0,0-.16-1.78,5.21,5.21,0,0,0-5.34-3.94,5.17,5.17,0,0,0-5.1,4.24,9.61,9.61,0,0,0-.09,1.8v1.84c0,1.22,0,2.43,0,3.64,0,4.8,0,9.44,0,13.86,0,8.83,0,16.78-.06,23.48,0,3.33,0,6.35,0,9,0,1.33,0,2.56,0,3.7a5.39,5.39,0,0,0,4.17,5.3,10.5,10.5,0,0,0,1.48.18l-.38,0a5.89,5.89,0,0,1-1.12-.1,5.5,5.5,0,0,1-3.51-2.41,5.56,5.56,0,0,1-.89-3c0-1.14,0-2.37,0-3.7,0-2.66,0-5.68,0-9,0-6.7,0-14.65-.05-23.48,0-4.42,0-9.06,0-13.86v-5.48a10.27,10.27,0,0,1,.1-1.9,5.73,5.73,0,0,1,1.94-3.33,6.17,6.17,0,0,1,7.39-.2,5.65,5.65,0,0,1,2.13,3.2,7.38,7.38,0,0,1,.17,1.91v5.47c0,4.81,0,9.45,0,13.87,0,8.82,0,16.78-.05,23.47,0,3.34,0,6.36,0,9,0,1.32,0,2.56,0,3.69a5.84,5.84,0,0,1-.72,3,5.45,5.45,0,0,1-3.36,2.6A4.22,4.22,0,0,1,618.67,251.27Z" style="fill:#263238"></path><rect x="634.51" y="183.96" width="11.21" height="67.31" rx="5.44" style="fill:#ebebeb"></rect><path d="M640.28,251.27a8,8,0,0,0,1.46-.26,5.37,5.37,0,0,0,3.21-2.6,5.65,5.65,0,0,0,.65-2.95c0-1.13,0-2.37,0-3.69,0-2.66,0-5.68,0-9,0-6.69,0-14.65-.06-23.47,0-4.42,0-9.06,0-13.87,0-1.2,0-2.41,0-3.63v-1.84a6.53,6.53,0,0,0-.16-1.78,5.21,5.21,0,0,0-5.34-3.94,5.17,5.17,0,0,0-5.1,4.24,9.61,9.61,0,0,0-.09,1.8v1.84c0,1.22,0,2.43,0,3.64,0,4.8,0,9.44,0,13.86,0,8.83,0,16.78-.06,23.48,0,3.33,0,6.35,0,9,0,1.33,0,2.56,0,3.7a5.39,5.39,0,0,0,4.17,5.3,10.5,10.5,0,0,0,1.48.18l-.38,0a5.89,5.89,0,0,1-1.12-.1,5.5,5.5,0,0,1-3.51-2.41,5.56,5.56,0,0,1-.89-3c0-1.14,0-2.37,0-3.7,0-2.66,0-5.68,0-9,0-6.7,0-14.65-.05-23.48,0-4.42,0-9.06,0-13.86v-5.48a10.27,10.27,0,0,1,.1-1.9,5.73,5.73,0,0,1,1.94-3.33,6.17,6.17,0,0,1,7.39-.2,5.65,5.65,0,0,1,2.13,3.2,7.38,7.38,0,0,1,.17,1.91v5.47c0,4.81,0,9.45,0,13.87,0,8.82,0,16.78-.06,23.47,0,3.34,0,6.36,0,9,0,1.32,0,2.56,0,3.69a5.84,5.84,0,0,1-.72,3,5.45,5.45,0,0,1-3.36,2.6A4.22,4.22,0,0,1,640.28,251.27Z" style="fill:#263238"></path><circle cx="596.57" cy="212.92" r="8.94" transform="translate(24.18 484.2) rotate(-45)" style="fill:#4945FF"></circle><circle cx="618.5" cy="190.98" r="8.94" transform="translate(46.11 493.29) rotate(-45)" style="fill:#4945FF"></circle><circle cx="640.46" cy="190.98" r="8.94" transform="translate(52.54 508.81) rotate(-45)" style="fill:#4945FF"></circle><path d="M583.3,162.28h71.83a10.31,10.31,0,0,1,10.31,10.31v4.59a0,0,0,0,1,0,0h-92a0,0,0,0,1,0,0v-5A9.86,9.86,0,0,1,583.3,162.28Z" style="fill:#ebebeb"></path><path d="M655.18,266.05a11.35,11.35,0,0,0,3.69-.76,10.2,10.2,0,0,0,6.36-8.11,32,32,0,0,0,.1-3.72c0-1.31,0-2.69,0-4.13q0-4.32,0-9.36c0-6.72,0-14.38,0-22.83s0-17.73,0-27.67c0-5,0-10.12,0-15.41a15.47,15.47,0,0,0-.3-3.92,10,10,0,0,0-8.47-7.54c-1.35-.14-2.78-.06-4.19-.08H583.71a10,10,0,0,0-8.06,4.08,9.76,9.76,0,0,0-1.8,4.24,34.54,34.54,0,0,0-.15,4.68V194.1c0,12.17,0,23.91,0,35.1q0,8.38,0,16.34,0,4,0,7.83a33.85,33.85,0,0,0,.11,3.79,9.9,9.9,0,0,0,1.14,3.48,10.06,10.06,0,0,0,5.33,4.57c2.2.88,4.61.57,6.91.63l13.28,0,40.06.08,10.89.05,2.84,0,1,0-1,0-2.84,0-10.89,0-40.06.08-13.28,0h-3.5a10.66,10.66,0,0,1-3.56-.65,10.42,10.42,0,0,1-6.76-8.38,33.07,33.07,0,0,1-.11-3.85c0-2.57,0-5.18,0-7.83q0-7.95,0-16.34c0-11.19,0-22.93,0-35.1q0-9.14,0-18.56a34.84,34.84,0,0,1,.16-4.77,10.19,10.19,0,0,1,1.89-4.45,10.52,10.52,0,0,1,8.48-4.3h68.54c1.42,0,2.81-.06,4.25.1a10.53,10.53,0,0,1,8.86,7.9,16.2,16.2,0,0,1,.31,4c0,5.29,0,10.44,0,15.41,0,9.94,0,19.21,0,27.67s0,16.11,0,22.83q0,5,0,9.36c0,1.44,0,2.82,0,4.13a30.53,30.53,0,0,1-.12,3.75,10.19,10.19,0,0,1-2.7,5.62,10.22,10.22,0,0,1-6.58,3.19C655.51,266.05,655.18,266.05,655.18,266.05Z" style="fill:#263238"></path><path d="M585.28,170.47a2.51,2.51,0,1,1-2.51-2.51A2.5,2.5,0,0,1,585.28,170.47Z" style="fill:#fff"></path><path d="M592.17,170.47a2.51,2.51,0,1,1-2.51-2.51A2.5,2.5,0,0,1,592.17,170.47Z" style="fill:#fff"></path><path d="M599.06,170.47a2.51,2.51,0,1,1-2.51-2.51A2.51,2.51,0,0,1,599.06,170.47Z" style="fill:#fff"></path></g><g id="freepik--window-1--inject-1"><path d="M258.18,130H537.74a24.56,24.56,0,0,1,24.56,24.56V349.9a23.74,23.74,0,0,1-23.74,23.74H258A23.74,23.74,0,0,1,234.3,349.9v-196A23.88,23.88,0,0,1,258.18,130Z" style="fill:#fff"></path><path d="M258.18,130H537.74a24.56,24.56,0,0,1,24.56,24.56V164a0,0,0,0,1,0,0h-328a0,0,0,0,1,0,0V153.89A23.88,23.88,0,0,1,258.18,130Z" style="fill:#f5f5f5"></path><circle cx="253.25" cy="147.61" r="3.94" style="fill:#fff"></circle><path d="M268.29,147.61a3.94,3.94,0,1,1-3.94-3.94A3.93,3.93,0,0,1,268.29,147.61Z" style="fill:#fff"></path><path d="M279.39,147.61a3.95,3.95,0,1,1-3.94-3.94A3.93,3.93,0,0,1,279.39,147.61Z" style="fill:#fff"></path><path d="M538.55,373.64l.72-.05c.47,0,1.19,0,2.12-.16a24.07,24.07,0,0,0,7.92-2.45,20.62,20.62,0,0,0,5-3.48,24.91,24.91,0,0,0,2.47-2.54c.37-.49.74-1,1.13-1.51s.69-1.1,1-1.66a23.62,23.62,0,0,0,2.88-8.08c.5-3,.28-6.35.32-9.84,0-27.88-.05-68.23-.08-118.08q0-18.71,0-39.13,0-10.22,0-20.82v-10.7a24.38,24.38,0,0,0-2.14-10.51,24.76,24.76,0,0,0-6.56-8.69,24.35,24.35,0,0,0-9.88-5c-3.64-1-7.49-.66-11.33-.71H472.38l-214.45,0a23.48,23.48,0,0,0-13.21,4.21,23.81,23.81,0,0,0-8.53,10.82,23.13,23.13,0,0,0-1.53,6.75l-.09,1.74v73.91c0,35.88,0,70.48,0,103.45v18.36c0,1,.07,2,.15,3a24,24,0,0,0,.54,2.93,23.49,23.49,0,0,0,15.18,16.67,9.3,9.3,0,0,0,1.39.42l1.4.36c.94.15,1.89.34,2.85.41,1.91.14,3.85.09,5.77.1h33.8l81.55,0,118.09.09,32.1,0,8.35,0,2.84,0s-1,0-2.84,0l-8.35,0-32.1.05-118.09.08-81.55,0h-33.8c-1.93,0-3.85,0-5.81-.1-1-.07-1.94-.26-2.91-.41l-1.43-.37a8.81,8.81,0,0,1-1.41-.43,24,24,0,0,1-15.49-17,23.12,23.12,0,0,1-.54-3c-.09-1-.14-2-.16-3.05v-6.08q0-6.1,0-12.28c0-33,0-67.57,0-103.45q0-26.9,0-54.71V153.8l.09-1.78a23.21,23.21,0,0,1,1.57-6.9,24.26,24.26,0,0,1,8.72-11.05,24.88,24.88,0,0,1,6.41-3.17,25.68,25.68,0,0,1,7.08-1.14H532.17l5.75,0a25.27,25.27,0,0,1,5.69.72,24.74,24.74,0,0,1,10,5.08,25.36,25.36,0,0,1,6.68,8.86,25,25,0,0,1,2.17,10.68q0,5.4,0,10.7,0,10.6,0,20.82,0,20.4,0,39.13c0,49.85-.07,90.2-.09,118.08,0,3.48.17,6.79-.34,9.87a23.6,23.6,0,0,1-2.93,8.12c-.36.57-.66,1.16-1.06,1.67l-1.14,1.52a27.47,27.47,0,0,1-2.49,2.55,26.33,26.33,0,0,1-2.55,2,28.15,28.15,0,0,1-2.52,1.47,23.94,23.94,0,0,1-8,2.4,20.43,20.43,0,0,1-2.12.13Z" style="fill:#263238"></path><path d="M354.8,277.78a29.86,29.86,0,0,1,7.28-3.16l1.5-7.2,12.16-.21,1.75,7.14a30.21,30.21,0,0,1,7.38,2.9l6.15-4,8.75,8.45L396,288a30,30,0,0,1,3.16,7.27l7.2,1.5.21,12.16-7.14,1.76a29.75,29.75,0,0,1-2.9,7.37l4,6.15-8.45,8.75-6.29-3.81a29.58,29.58,0,0,1-7.27,3.16l-1.5,7.2-12.16.22-1.75-7.14a29.69,29.69,0,0,1-7.38-2.91l-6.15,4-8.75-8.45,3.81-6.28a29.48,29.48,0,0,1-3.16-7.28l-7.2-1.5L334.05,298l7.15-1.75a29.43,29.43,0,0,1,2.9-7.38l-4-6.15,8.45-8.75,6.28,3.81ZM361.29,294a13,13,0,1,0,18.45-.33A13,13,0,0,0,361.29,294Z" style="fill:#ebebeb"></path><path d="M309.69,196.06a35.4,35.4,0,0,1,8.63-3.75l1.78-8.54,14.43-.25,2.08,8.47a35.56,35.56,0,0,1,8.75,3.44l7.3-4.78,10.38,10-4.52,7.45a35.3,35.3,0,0,1,3.75,8.64l8.54,1.77.25,14.43-8.47,2.08a35.56,35.56,0,0,1-3.44,8.75l4.77,7.3-10,10.38L346.45,257a35.4,35.4,0,0,1-8.63,3.75L336,269.25l-14.43.25L319.53,261a35.17,35.17,0,0,1-8.75-3.44l-7.3,4.78-10.38-10,4.52-7.45a35.4,35.4,0,0,1-3.75-8.63l-8.54-1.78-.25-14.43,8.47-2.08a35.17,35.17,0,0,1,3.44-8.75l-4.78-7.3,10-10.38,7.45,4.52Zm7.7,19.23a15.48,15.48,0,1,0,21.89-.39A15.48,15.48,0,0,0,317.39,215.29Z" style="fill:#e0e0e0"></path><path d="M449.58,186.7a19.66,19.66,0,0,1,4.83-2.1l1-4.78,8.08-.14,1.16,4.74a19.69,19.69,0,0,1,4.89,1.93l4.08-2.68,5.81,5.61-2.53,4.17a19.66,19.66,0,0,1,2.1,4.83l4.78,1,.14,8.07-4.74,1.16a19.76,19.76,0,0,1-1.93,4.9l2.68,4.08-5.61,5.81-4.17-2.53a20,20,0,0,1-4.83,2.1l-1,4.77-8.07.15L455.09,223a19.76,19.76,0,0,1-4.9-1.93l-4.08,2.67-5.81-5.6,2.53-4.17a20,20,0,0,1-2.1-4.83l-4.78-1-.14-8.08,4.74-1.16a19.69,19.69,0,0,1,1.93-4.89L439.81,190l5.6-5.81,4.17,2.53Zm4.31,10.75a8.66,8.66,0,1,0,12.24-.22A8.65,8.65,0,0,0,453.89,197.45Z" style="fill:#e0e0e0"></path></g><g id="freepik--light-bulb--inject-1"><path d="M546.59,71.28a28.82,28.82,0,1,0-41.83,24.87c-.1,3.42-.21,7.27-.21,7.27l25.24.73s.27-4.07.43-7.71A28.82,28.82,0,0,0,546.59,71.28Z" style="fill:#4945FF"></path><path d="M526,104s0-.13,0-.36-.05-.6-.08-1.05c-.08-.93-.17-2.29-.27-4-.19-3.52-.39-8.62-.27-14.92,0-1.58.08-3.23.16-5,0-.86.08-1.73.13-2.63a9.14,9.14,0,0,1,.41-2.71,3.14,3.14,0,0,1,.79-1.19,1.89,1.89,0,0,1,1.36-.52,1.75,1.75,0,0,1,1.26.77,2.77,2.77,0,0,1,.48,1.42,3.31,3.31,0,0,1-1.32,2.67,5,5,0,0,1-2.88,1.12,5.44,5.44,0,0,1-3.09-.72,5.75,5.75,0,0,1-2.21-2.37,6.91,6.91,0,0,1-.78-3.23,5.11,5.11,0,0,1,.28-1.68A2.35,2.35,0,0,1,521,68.28a1.58,1.58,0,0,1,.88-.16,2,2,0,0,1,.84.33,2.77,2.77,0,0,1,1,1.4,6.06,6.06,0,0,1,.31,1.73c0,.59,0,1.17,0,1.76a12,12,0,0,1-.68,3.49,6.56,6.56,0,0,1-2.06,3,5.41,5.41,0,0,1-1.6.87,4.12,4.12,0,0,1-1.81.16,3.7,3.7,0,0,1-1.66-.72,4.9,4.9,0,0,1-1.2-1.33,10.87,10.87,0,0,1-1.26-3.27c-.14-.56-.25-1.13-.34-1.69a9.72,9.72,0,0,1-.18-1.71,2.79,2.79,0,0,1,.47-1.66,1.88,1.88,0,0,1,.66-.59,1.22,1.22,0,0,1,.88-.09,1.48,1.48,0,0,1,.74.47,3.25,3.25,0,0,1,.46.72,5.85,5.85,0,0,1,.44,1.61,9.61,9.61,0,0,1-1,6.26,6,6,0,0,1-2.19,2.2,4.6,4.6,0,0,1-2.93.64,4,4,0,0,1-2.52-1.46,4.58,4.58,0,0,1-1.08-2.62,3.9,3.9,0,0,1,.16-1.4,2.09,2.09,0,0,1,.8-1.12,1.06,1.06,0,0,1,.69-.16,1,1,0,0,1,.63.3,2.57,2.57,0,0,1,.63,1.18,10.4,10.4,0,0,1,.22,2.52c0,.83,0,1.63.05,2.42.13,6.3.15,11.4.09,14.92,0,1.77-.07,3.13-.11,4.06,0,.46,0,.81-.05,1a3.28,3.28,0,0,1,0,.36s0-.12,0-.36,0-.59,0-1c0-.93.06-2.3.07-4.06,0-3.52,0-8.62-.15-14.91,0-.79,0-1.6-.06-2.42a10.41,10.41,0,0,0-.23-2.49,2.39,2.39,0,0,0-.58-1.1.91.91,0,0,0-1.12-.12,1.88,1.88,0,0,0-.73,1,3.71,3.71,0,0,0-.15,1.33,4.41,4.41,0,0,0,1,2.51,3.82,3.82,0,0,0,2.41,1.39,4.36,4.36,0,0,0,2.82-.62,6,6,0,0,0,2.12-2.12,9.42,9.42,0,0,0,1-6.14A5.48,5.48,0,0,0,516.3,71a1.86,1.86,0,0,0-1.07-1.09,1.25,1.25,0,0,0-1.32.6,2.62,2.62,0,0,0-.44,1.55,10.91,10.91,0,0,0,.18,1.68c.1.56.2,1.12.34,1.68a10.59,10.59,0,0,0,1.24,3.2,4.51,4.51,0,0,0,1.14,1.28,3.49,3.49,0,0,0,1.57.67,4.27,4.27,0,0,0,3.25-1,6.35,6.35,0,0,0,2-2.85,11.87,11.87,0,0,0,.68-3.43,9.26,9.26,0,0,0-.29-3.41,2.49,2.49,0,0,0-1-1.3,1.48,1.48,0,0,0-1.51-.16,2.2,2.2,0,0,0-1,1.25,4.65,4.65,0,0,0-.26,1.61,6.66,6.66,0,0,0,.74,3.14,5.63,5.63,0,0,0,2.14,2.29,5.22,5.22,0,0,0,3,.7,4.91,4.91,0,0,0,2.77-1.07,3.18,3.18,0,0,0,1.26-2.52,2.58,2.58,0,0,0-.45-1.32,1.56,1.56,0,0,0-1.12-.7,1.69,1.69,0,0,0-1.23.47,2.91,2.91,0,0,0-.75,1.12,9.33,9.33,0,0,0-.41,2.66c0,.9-.09,1.77-.13,2.63-.08,1.72-.14,3.37-.17,4.94-.14,6.3,0,11.39.2,14.91.09,1.76.17,3.13.23,4.05,0,.46.05.81.06,1.06S526,104,526,104Z" style="fill:#fff"></path><path d="M507.68,95.3a1.61,1.61,0,0,1-.33-.12c-.21-.09-.54-.21-.94-.4A25.92,25.92,0,0,1,503.13,93a27.46,27.46,0,0,1-8.54-8.81,27.66,27.66,0,0,1-2.71-6.24,27.37,27.37,0,0,1-1-5.45,26.39,26.39,0,0,1,0-3.75c0-.44.08-.78.1-1a1.41,1.41,0,0,1,.05-.35s0,.12,0,.35-.05.58-.06,1a28.07,28.07,0,0,0,.1,3.72,27.19,27.19,0,0,0,1,5.42,26.77,26.77,0,0,0,6.86,11.49,28.24,28.24,0,0,0,4.28,3.48,27.17,27.17,0,0,0,3.24,1.85c.39.2.71.33.92.43A1.44,1.44,0,0,1,507.68,95.3Z" style="fill:#263238"></path><path d="M492.38,61.92a5.3,5.3,0,0,1-.3,1.47,5.38,5.38,0,0,1-.5,1.41,5.71,5.71,0,0,1,.3-1.47A5.38,5.38,0,0,1,492.38,61.92Z" style="fill:#263238"></path><path d="M543.21,77.88a1.4,1.4,0,0,1,0-.3l.2-.85c0-.19.09-.39.14-.62s.08-.47.13-.74c.08-.53.21-1.13.25-1.81,0-.34.07-.7.1-1.07s0-.75,0-1.15c0-.8,0-1.65-.06-2.55a30.12,30.12,0,0,0-1-5.73,29.57,29.57,0,0,0-2.21-5.39c-.45-.78-.85-1.53-1.32-2.18-.22-.33-.42-.66-.65-1l-.65-.84A16.57,16.57,0,0,0,537,52.3l-.5-.56L536,51.3l-.62-.61c-.14-.15-.22-.22-.21-.23l.23.19.66.59.47.43.52.55a18.26,18.26,0,0,1,1.21,1.38l.67.84c.23.29.44.62.67,1A24.37,24.37,0,0,1,541,57.58a27.27,27.27,0,0,1,3.27,11.2c0,.9.09,1.76,0,2.56,0,.41,0,.79,0,1.17s-.07.72-.11,1.06a15.48,15.48,0,0,1-.29,1.82c-.05.27-.09.52-.14.74l-.16.62-.24.84A1.53,1.53,0,0,1,543.21,77.88Z" style="fill:#263238"></path><g style="opacity:0.2"><path d="M517.26,49.73a5.11,5.11,0,0,0-3.35-2.67,9.09,9.09,0,0,0-6.84.57c-6.26,3.08-9.88,6.91-12.24,13.83-.8,2.34-1.28,6.23-.18,8.58a4.68,4.68,0,0,0,2.75,2.54c3.23,1,5.9-2,7-5,1-2.78,1.45-6,3.52-8.08,1.69-1.76,4.18-2.46,6.27-3.73S518.13,52,517.26,49.73Z" style="fill:#fff"></path></g><g style="opacity:0.2"><path d="M528.84,48.94a4.55,4.55,0,0,0-5.22-2.06A4.69,4.69,0,0,0,521,50a4.31,4.31,0,0,0,1.78,4.47,4.06,4.06,0,0,0,4.76-.32C528.8,53.05,529.65,50.44,528.84,48.94Z" style="fill:#fff"></path></g><g id="freepik--2ggvdetif--inject-1"><path d="M511.16,118.27a7.88,7.88,0,0,1,1.61,1.5,1.68,1.68,0,0,0,1.32.68l5.08.14a1.68,1.68,0,0,0,1.44-.71,3.25,3.25,0,0,1,1.78-1.3Z" style="fill:#455a64"></path></g><path d="M506.06,104c0,.11.95,8.08,1.32,11.12a3.76,3.76,0,0,0,2,2.94,3.39,3.39,0,0,0,1.43.35l11.12.32s2.9.08,3.62-2.21,2.34-11.9,2.34-11.9Z" style="fill:#263238"></path><rect x="516.06" y="104.39" width="1.16" height="20.47" rx="0.55" transform="translate(389.32 628.28) rotate(-88.59)" style="fill:#e0e0e0"></rect><path d="M526.31,115.44a.72.72,0,0,0,.38-.16.6.6,0,0,0,.16-.46.53.53,0,0,0-.39-.49c-1.06,0-2.62,0-4.53-.09L507,113.9a.47.47,0,0,0-.39.19.54.54,0,0,0-.08.21.85.85,0,0,0,0,.23.48.48,0,0,0,.3.32,2.64,2.64,0,0,0,.51,0l2.1.05,4,.11,6.72.18,4.53.14,1.23,0,.32,0h-1.55l-4.54-.09-6.72-.14-4-.09-2.1-.05h-.27a.78.78,0,0,1-.29,0,.64.64,0,0,1-.42-.44.76.76,0,0,1,0-.3.57.57,0,0,1,.11-.29.63.63,0,0,1,.54-.28l15,.39c1.91.07,3.45.09,4.53.16a.57.57,0,0,1,.43.56.57.57,0,0,1-.19.48A.47.47,0,0,1,526.31,115.44Z" style="fill:#263238"></path><rect x="516.13" y="101.48" width="1.16" height="21.29" rx="0.55" transform="translate(391.89 625.92) rotate(-88.59)" style="fill:#e0e0e0"></rect><path d="M526.79,113a.56.56,0,0,0,.39-.17.62.62,0,0,0,.15-.49.53.53,0,0,0-.45-.46l-4.71-.09-15.53-.35a.43.43,0,0,0-.4.21.52.52,0,0,0-.07.22.48.48,0,0,0,0,.24.44.44,0,0,0,.33.29c.15,0,.36,0,.54,0l2.18.06,4.13.1,7,.2,4.71.14,1.27,0,.34,0h-1.62l-4.71-.09-7-.15-4.12-.1-2.19,0c-.19,0-.35,0-.57,0a.63.63,0,0,1-.47-.41.85.85,0,0,1,0-.31.67.67,0,0,1,.1-.31.64.64,0,0,1,.56-.3l15.54.41c2,.06,3.59.1,4.71.15a.58.58,0,0,1,.49.53.62.62,0,0,1-.17.51A.46.46,0,0,1,526.79,113Z" style="fill:#263238"></path><rect x="516.2" y="98.72" width="1.16" height="21.81" rx="0.55" transform="translate(394.46 623.55) rotate(-88.59)" style="fill:#e0e0e0"></rect><path d="M527.12,110.46a.62.62,0,0,0,.4-.18.65.65,0,0,0,.14-.5.53.53,0,0,0-.49-.44l-4.82-.09-15.9-.37a.49.49,0,0,0-.41.22.46.46,0,0,0-.06.23.45.45,0,0,0,0,.24.47.47,0,0,0,.36.28l.56,0,2.24,0,4.22.11,7.15.2,4.82.15,1.31.05.34,0h-.34l-1.32,0-4.82-.09-7.15-.15-4.22-.1-2.23-.06h-.58a.65.65,0,0,1-.51-.39.74.74,0,0,1,0-.32.57.57,0,0,1,.09-.32.68.68,0,0,1,.57-.32l15.9.42,4.83.15a.59.59,0,0,1,.53.51.62.62,0,0,1-.16.53A.51.51,0,0,1,527.12,110.46Z" style="fill:#263238"></path><rect x="516.28" y="95.8" width="1.16" height="22.65" rx="0.55" transform="translate(397.02 621.18) rotate(-88.59)" style="fill:#e0e0e0"></rect><path d="M527.61,108a.62.62,0,0,0,.41-.19.59.59,0,0,0,.12-.52.54.54,0,0,0-.54-.42l-5-.09-16.5-.38a.46.46,0,0,0-.41.24.56.56,0,0,0,0,.49.46.46,0,0,0,.4.25h.59l2.32.06,4.38.11,7.41.21,5,.15,1.36,0,.35,0h-.35l-1.36,0-5-.09-7.42-.16L509,107.6l-2.32,0-.59,0a.65.65,0,0,1-.56-.35.64.64,0,0,1-.07-.33.64.64,0,0,1,.08-.33.67.67,0,0,1,.58-.34l16.5.44,5,.15a.58.58,0,0,1,.59.47.62.62,0,0,1-.14.56.53.53,0,0,1-.32.17A.36.36,0,0,1,527.61,108Z" style="fill:#263238"></path><path d="M503.45,97c0,.21.32,5.08.48,7.58a3,3,0,0,0,1.3,2.28l1.11.77,21.49.6,1.14-.69a3,3,0,0,0,1.42-2.23l.85-7.52Z" style="fill:#4945FF"></path><g style="opacity:0.30000000000000004"><path d="M507.67,114.93a27.64,27.64,0,0,0,6.39.68c1.84,0,3.63.15,5.62.16,1.46,0,2.81,0,4.27,0a4.14,4.14,0,0,0,1.7-.31Z"></path></g><g style="opacity:0.30000000000000004"><path d="M507,112.4a32.58,32.58,0,0,0,6.89.7c2,0,3.91.15,6.06.17,1.57,0,3,0,4.59,0a4.68,4.68,0,0,0,1.83-.31Z"></path></g><g style="opacity:0.30000000000000004"><path d="M507.05,109.92a32,32,0,0,0,6.89.69c2,0,3.91.16,6.06.18,1.57,0,3,0,4.59,0a4.45,4.45,0,0,0,1.83-.32Z"></path></g><g style="opacity:0.30000000000000004"><path d="M507.12,107.44a32.59,32.59,0,0,0,6.89.69c2,.05,3.91.16,6.06.18,1.57,0,3,0,4.59,0a4.45,4.45,0,0,0,1.83-.32Z"></path></g><g style="opacity:0.30000000000000004"><path d="M503.45,97c0,.21.32,5.08.48,7.58a3,3,0,0,0,1.3,2.28l1.11.77,21.49.6,1.14-.69a3,3,0,0,0,1.42-2.23l.85-7.52Z"></path></g><path d="M529.84,106.36s-5.75-.07-12.84-.27-12.83-.4-12.83-.45,5.75.06,12.84.26S529.84,106.31,529.84,106.36Z" style="fill:#263238"></path><path d="M531.1,97.67c0,.06-6.25,0-13.94-.23s-13.95-.39-13.95-.44,6.24,0,13.94.23S531.1,97.61,531.1,97.67Z" style="fill:#263238"></path></g><g id="freepik--chart--inject-1"><rect x="250.61" y="392.62" width="46.85" height="73.25" style="fill:#4945FF"></rect><rect x="321.12" y="360.25" width="52.81" height="105.5" style="fill:#4945FF"></rect><rect x="417.61" y="343.74" width="49.42" height="121.52" style="fill:#4945FF"></rect><rect x="488.88" y="325.01" width="52.39" height="138.3" style="fill:#4945FF"></rect></g><g id="freepik--Rocket--inject-1"><path d="M337.23,457.07a18,18,0,0,0-22.92-22.27,19.28,19.28,0,0,0-29.95-16.41c-3.27-6.25-12-8.93-18.19-5.62s-8.85,12-5.5,18.22a12.53,12.53,0,0,0-12.56,20.27c-10.19-4.49-23.57,4.53-23.23,15.66l123.64-.36C347.63,464.91,344.58,457.36,337.23,457.07Z" style="fill:#e0e0e0"></path><path d="M560.43,457.07a18,18,0,0,0-22.92-22.27,19.28,19.28,0,0,0-29.95-16.41c-3.27-6.25-11.95-8.93-18.18-5.62s-8.85,12-5.5,18.22a12.53,12.53,0,0,0-12.57,20.27c-10.18-4.49-23.56,4.53-23.22,15.66l123.63-.36C570.84,464.91,567.79,457.36,560.43,457.07Z" style="fill:#e0e0e0"></path><polygon points="397.85 304.23 391.55 304.23 376.75 304.23 376.75 445.35 391.55 445.35 397.85 445.35 412.65 445.35 412.65 304.23 397.85 304.23" style="fill:#fff"></polygon><path d="M397.85,304.23s.32,0,1,0l2.82,0,11-.05h.1v.1c0,24.11.09,77.36.16,141.12v.26H376.49v-.26c.06-61.69.12-114.25.14-141.12v-.12h.12l15.7.06,4,0,1.36,0-1.36,0-4,0-15.7.06.12-.12c0,26.87.08,79.43.14,141.12l-.26-.26h35.9l-.26.26c.07-63.76.13-117,.16-141.12l.1.1-11-.05-2.82,0Z" style="fill:#263238"></path><path d="M486.08,446.39c-1.54-4.14-4.09-8-7.84-10.37s-8.81-2.82-12.56-.51a17.81,17.81,0,0,0-22.05-17.32,13.73,13.73,0,0,0-17.3-15c2.15-7-3.91-14.1-11.13-15.54h-2.4s-15.18-.37-17,0a15.6,15.6,0,0,0-1.89.53,15.6,15.6,0,0,0-1.89-.53h-2.39s-15.18-.37-17,0c-7.22,1.44-13.29,8.5-11.13,15.54a13.74,13.74,0,0,0-17.31,15,17.8,17.8,0,0,0-22,17.32c-3.76-2.31-8.81-1.82-12.56.51s-6.31,6.23-7.85,10.37a30.84,30.84,0,0,0-.27,20.53h185A30.84,30.84,0,0,0,486.08,446.39Z" style="fill:#fff"></path><path d="M377,387.1l-.28,0-.85.05-3.29.17h0a15.61,15.61,0,0,0-7.52,4.06,13.41,13.41,0,0,0-3.19,4.8,10.32,10.32,0,0,0-.24,6.52l.11.36-.36-.1a13.52,13.52,0,0,0-17,14.8l0,.37-.36-.09a17.94,17.94,0,0,0-12.75,1.75,17.36,17.36,0,0,0-6.68,6.68,17.87,17.87,0,0,0-2.3,8.65v.44l-.38-.23a11.44,11.44,0,0,0-9.38-.86,15.23,15.23,0,0,0-7.15,5.15,24.12,24.12,0,0,0-3.77,7,30,30,0,0,0-1.53,6.7,30.91,30.91,0,0,0,.43,9.76c.22,1.12.46,2,.62,2.55l.19.65a1,1,0,0,1,0,.23,23.1,23.1,0,0,1-1-3.4,30.48,30.48,0,0,1,.92-16.61,24.34,24.34,0,0,1,3.79-7.16,15.65,15.65,0,0,1,7.34-5.33,11.9,11.9,0,0,1,9.78.88l-.38.22a18.4,18.4,0,0,1,2.35-8.9,17.77,17.77,0,0,1,6.88-6.88,18.36,18.36,0,0,1,13.12-1.79l-.31.28a14,14,0,0,1,17.61-15.26l-.25.25a10.58,10.58,0,0,1,.29-6.77,13.71,13.71,0,0,1,3.31-4.9,15.66,15.66,0,0,1,7.71-4h0l3.3-.08h.84A1.29,1.29,0,0,1,377,387.1Z" style="fill:#263238"></path><path d="M486.35,466.56a.82.82,0,0,1,0-.23c.05-.17.11-.39.18-.65.17-.58.4-1.43.63-2.56a31,31,0,0,0,.42-9.77,29.43,29.43,0,0,0-1.54-6.7,23.69,23.69,0,0,0-3.78-7,15.14,15.14,0,0,0-7.14-5.14,11.43,11.43,0,0,0-9.36.87l-.38.24v-.45a17.58,17.58,0,0,0-21.74-17.08l-.36.09.05-.37a13.53,13.53,0,0,0-17-14.8l-.34.09.1-.35a10.64,10.64,0,0,0,.4-3.64,10.45,10.45,0,0,0-.82-3.31,13.11,13.11,0,0,0-3.48-4.83,15.21,15.21,0,0,0-3.93-2.57c-.6-.31-1.2-.47-1.71-.68l-1.41-.38h0l-1.82,0a5,5,0,0,1-.58,0s.19,0,.58,0l1.82,0h0c.42.1.9.2,1.44.35a14.19,14.19,0,0,1,1.74.65,14.76,14.76,0,0,1,4,2.55,13.5,13.5,0,0,1,3.61,4.9,10.49,10.49,0,0,1,.48,7.21l-.25-.25a14,14,0,0,1,17.61,15.26l-.31-.28a18.06,18.06,0,0,1,22.36,17.57l-.38-.22a11.88,11.88,0,0,1,9.76-.88,15.55,15.55,0,0,1,7.34,5.31,24.1,24.1,0,0,1,3.8,7.15,30.55,30.55,0,0,1,.92,16.64A22.11,22.11,0,0,1,486.35,466.56Z" style="fill:#263238"></path><path d="M351.84,106.46a5.63,5.63,0,0,0-8.86-.27c-4.06,4.91-9.37,13.47-9.37,24.62V267.44h25.07s1.57-118.62,1.57-136.63A40.92,40.92,0,0,0,351.84,106.46Z" style="fill:#4945FF"></path><path d="M351.84,106.46a30.34,30.34,0,0,1,1.88,2.64,41.45,41.45,0,0,1,4.21,8.32A39.3,39.3,0,0,1,360.37,132c-.05,5.79-.12,12.39-.19,19.71-.31,29.28-.75,70-1.24,115.75v.26H333.35v-.26c0-48.33.06-91.75.08-123.11,0-3.92,0-7.64,0-11.17,0-1.76,0-3.48.13-5.15a34.34,34.34,0,0,1,.72-4.78,39.91,39.91,0,0,1,6.57-14.44c.63-.9,1.27-1.71,1.88-2.46a5.93,5.93,0,0,1,2.12-1.7,5.73,5.73,0,0,1,4.19-.23,5.31,5.31,0,0,1,2.21,1.38,4.48,4.48,0,0,1,.57.68s-.19-.24-.61-.65a5.41,5.41,0,0,0-2.2-1.31,5.64,5.64,0,0,0-4.09.26c-1.56.68-2.62,2.41-3.91,4.14a40,40,0,0,0-6.45,14.39,33.94,33.94,0,0,0-.69,4.75c-.14,1.64-.12,3.35-.12,5.12,0,3.53,0,7.25,0,11.17,0,31.36,0,74.78.08,123.11l-.26-.26h25.07l-.26.26c.56-45.77,1.06-86.48,1.41-115.75.1-7.32.19-13.92.27-19.71a39.32,39.32,0,0,0-2.35-14.49,43.64,43.64,0,0,0-4.11-8.34c-.56-.9-1-1.57-1.33-2S351.84,106.46,351.84,106.46Z" style="fill:#263238"></path><path d="M359.88,211.3c0,.15-5.71.26-12.74.26s-12.73-.11-12.73-.26,5.7-.26,12.73-.26S359.88,211.16,359.88,211.3Z" style="fill:#263238"></path><path d="M359.88,227.17c0,.14-5.71.26-12.74.26s-12.73-.12-12.73-.26,5.7-.26,12.73-.26S359.88,227,359.88,227.17Z" style="fill:#263238"></path><path d="M359.88,132c0,.15-5.71.26-12.74.26s-12.73-.11-12.73-.26,5.7-.26,12.73-.26S359.88,131.85,359.88,132Z" style="fill:#263238"></path><path d="M359.88,147.86c0,.14-5.71.26-12.74.26s-12.73-.12-12.73-.26,5.7-.26,12.73-.26S359.88,147.71,359.88,147.86Z" style="fill:#263238"></path><path d="M359.88,163.72c0,.14-5.71.26-12.74.26s-12.73-.12-12.73-.26,5.7-.26,12.73-.26S359.88,163.57,359.88,163.72Z" style="fill:#263238"></path><path d="M359.88,179.58c0,.14-5.71.26-12.74.26s-12.73-.12-12.73-.26,5.7-.26,12.73-.26S359.88,179.44,359.88,179.58Z" style="fill:#263238"></path><path d="M359.88,195.44c0,.15-5.71.26-12.74.26s-12.73-.11-12.73-.26,5.7-.26,12.73-.26S359.88,195.3,359.88,195.44Z" style="fill:#263238"></path><path d="M443.84,107a5.63,5.63,0,0,0-8.86-.27c-4.05,4.91-9.37,13.47-9.37,24.62V268h25.07s1.57-118.62,1.57-136.63A40.92,40.92,0,0,0,443.84,107Z" style="fill:#4945FF"></path><path d="M443.84,107a31.44,31.44,0,0,1,1.89,2.64,42.2,42.2,0,0,1,4.2,8.33,39,39,0,0,1,2.45,14.56c-.06,5.79-.12,12.39-.19,19.7-.32,29.28-.76,70-1.25,115.76v.25H425.35V268c0-48.33.06-91.75.08-123.1,0-3.92,0-7.65,0-11.18,0-1.76,0-3.48.13-5.14a35.42,35.42,0,0,1,.72-4.78,40,40,0,0,1,6.57-14.45c.63-.89,1.27-1.7,1.88-2.46a5.93,5.93,0,0,1,2.12-1.7,5.67,5.67,0,0,1,4.19-.22,5.24,5.24,0,0,1,2.21,1.37,4.48,4.48,0,0,1,.57.68s-.19-.24-.6-.64a5.53,5.53,0,0,0-2.21-1.32,5.59,5.59,0,0,0-4.09.27c-1.56.67-2.62,2.41-3.91,4.14a39.94,39.94,0,0,0-6.45,14.39,33.58,33.58,0,0,0-.69,4.74c-.14,1.65-.12,3.36-.12,5.12q0,5.3,0,11.18c0,31.35,0,74.77.08,123.1l-.26-.26h25.07l-.26.26c.56-45.77,1.06-86.47,1.42-115.75.09-7.31.18-13.91.26-19.7a39.17,39.17,0,0,0-2.35-14.5,43.05,43.05,0,0,0-4.11-8.34c-.56-.9-1-1.56-1.33-2S443.84,107,443.84,107Z" style="fill:#263238"></path><path d="M451.83,132.58c0,.14-5.7.26-12.73.26s-12.74-.12-12.74-.26,5.7-.26,12.74-.26S451.83,132.43,451.83,132.58Z" style="fill:#263238"></path><path d="M451.83,148.44c0,.14-5.7.26-12.73.26s-12.74-.12-12.74-.26,5.7-.26,12.74-.26S451.83,148.3,451.83,148.44Z" style="fill:#263238"></path><path d="M451.83,164.3c0,.15-5.7.26-12.73.26s-12.74-.11-12.74-.26,5.7-.26,12.74-.26S451.83,164.16,451.83,164.3Z" style="fill:#263238"></path><path d="M451.83,180.16c0,.15-5.7.26-12.73.26s-12.74-.11-12.74-.26,5.7-.26,12.74-.26S451.83,180,451.83,180.16Z" style="fill:#263238"></path><path d="M451.83,196c0,.14-5.7.26-12.73.26s-12.74-.12-12.74-.26,5.7-.26,12.74-.26S451.83,195.88,451.83,196Z" style="fill:#263238"></path><path d="M451.83,211.89c0,.14-5.7.26-12.73.26s-12.74-.12-12.74-.26,5.7-.26,12.74-.26S451.83,211.74,451.83,211.89Z" style="fill:#263238"></path><path d="M451.83,227.75c0,.14-5.7.26-12.73.26s-12.74-.12-12.74-.26,5.7-.26,12.74-.26S451.83,227.61,451.83,227.75Z" style="fill:#263238"></path><path d="M402.39,61.07c-5.45-4.11-13.14-3.39-18.47,1-15.85,13.18-23.67,32.9-23.67,48.51V287.12h62.47s3.91-151.29,3.91-176.51C426.63,95.28,416.29,71.56,402.39,61.07Z" style="fill:#e0e0e0"></path><path d="M402.39,61.07l.91.72A31.14,31.14,0,0,1,405.9,64a55,55,0,0,1,8.46,10.2,81.11,81.11,0,0,1,4.77,8.35,78.66,78.66,0,0,1,4.4,10.61,64.91,64.91,0,0,1,3,12.9c.06.59.15,1.17.18,1.77s.05,1.2.08,1.8c.08,1.21,0,2.43,0,3.68,0,2.48,0,5-.07,7.64-.64,41.79-2.06,100.08-3.72,166.13v.25H360v-.26c0-35.32,0-68.74,0-99,0-15.13,0-29.47,0-42.86q0-10,0-19.35v-9.11c0-3,0-5.87.09-8.72a60.81,60.81,0,0,1,3.13-15.85,67.36,67.36,0,0,1,6-13.08A66.47,66.47,0,0,1,384.2,61.77a16.34,16.34,0,0,1,7.62-3.32,15,15,0,0,1,6.09.36,14.42,14.42,0,0,1,3.44,1.52c.69.48,1,.74,1,.74s-.37-.23-1.07-.7a14.06,14.06,0,0,0-9.48-1.77,16.18,16.18,0,0,0-7.52,3.32,66.71,66.71,0,0,0-14.8,17.38,67.76,67.76,0,0,0-5.94,13,60.78,60.78,0,0,0-3.08,15.77c0,45.36,0,108.37,0,179l-.26-.26h62.47l-.26.25c1.68-66.05,3.17-124.34,3.89-166.13q.06-3.92.1-7.64c0-1.23.06-2.46,0-3.66l-.06-1.79c0-.59-.13-1.17-.18-1.76a63.8,63.8,0,0,0-2.92-12.84,77.9,77.9,0,0,0-4.34-10.59,82.29,82.29,0,0,0-4.73-8.36,56.43,56.43,0,0,0-8.36-10.23,33.52,33.52,0,0,0-2.57-2.28Z" style="fill:#263238"></path><path d="M389.81,63.39s-24,19.32-24.24,45.21v69h10.3l-.63-60.11s-1.31-11.42,4.9-31.5A123,123,0,0,1,389.81,63.39Z" style="fill:#fff"></path><path d="M425.42,117.49c0,.14-14.33.26-32,.26s-32-.12-32-.26,14.33-.26,32-.26S425.42,117.34,425.42,117.49Z" style="fill:#263238"></path><path d="M425.42,141.5c0,.15-14.33.26-32,.26s-32-.11-32-.26,14.33-.26,32-.26S425.42,141.36,425.42,141.5Z" style="fill:#263238"></path><path d="M425.42,165.52c0,.14-14.33.26-32,.26s-32-.12-32-.26,14.33-.26,32-.26S425.42,165.38,425.42,165.52Z" style="fill:#263238"></path><path d="M425.42,189.53c0,.15-14.33.26-32,.26s-32-.11-32-.26,14.33-.26,32-.26S425.42,189.39,425.42,189.53Z" style="fill:#263238"></path><rect x="336.15" y="285.37" width="16.4" height="10.64" style="fill:#455a64"></rect><path d="M331.46,301.83h0a6.42,6.42,0,0,1,2.3-5l2.39-2.3,16.4.2L354,296a6.89,6.89,0,0,1,2.61,4.66v.24Z" style="fill:#455a64"></path><rect x="329.79" y="300.91" width="28.81" height="2.9" rx="1.41" style="fill:#455a64"></rect><polygon points="315.84 283.24 315.84 252.4 357.53 211.5 375.29 155.86 375.29 291.51 315.84 283.24" style="fill:#f5f5f5"></polygon><polygon points="315.84 273.06 375.28 280.96 375.28 291.51 315.84 283.24 315.84 273.06" style="fill:#4945FF"></polygon><path d="M315.84,283.24l1.08.13,3.11.41,11.88,1.6,43.41,5.93-.23.2c0-29.6,0-68.78-.06-111.63v-24l.51.08c-6.38,19.95-12.39,38.73-17.79,55.63l0,.06,0,0L316,252.51l0-.11c0,9.72-.06,17.42-.08,22.69q0,4,0,6.05c0,.68,0,1.2,0,1.56s0,.54,0,.54,0-.17,0-.51,0-.87,0-1.54c0-1.38,0-3.4,0-6,0-5.29,0-13-.08-22.77v-.06l.05-.05,41.63-40.95-.06.09c5.39-16.91,11.37-35.69,17.74-55.65l.5-1.58v25.68c0,42.85,0,82-.06,111.63v.22l-.23,0-43.48-6.15-11.84-1.7-3.07-.45Z" style="fill:#263238"></path><rect x="431.41" y="285.37" width="16.4" height="10.64" style="fill:#455a64"></rect><path d="M426.72,301.83h0a6.42,6.42,0,0,1,2.3-5l2.39-2.3,16.4.2,1.45,1.28a6.92,6.92,0,0,1,2.6,4.66v.24Z" style="fill:#455a64"></path><rect x="425.05" y="300.91" width="28.81" height="2.9" rx="1.41" style="fill:#455a64"></rect><path d="M434.41,269.8a1.4,1.4,0,1,1-1.4-1.39A1.4,1.4,0,0,1,434.41,269.8Z" style="fill:#ebebeb"></path><path d="M412.54,139.61c-.09-8.48-4.76-16-9.49-23.31a21.66,21.66,0,0,0-5.47-6.06,6.37,6.37,0,0,0-7.4,0,22.28,22.28,0,0,0-5.4,6c-4.72,7.33-9.39,14.83-9.49,23.31-.11,9.93,0,151.9,0,151.9h37.25S412.66,149.54,412.54,139.61Z" style="fill:#f5f5f5"></path><path d="M404.34,117.85a25.91,25.91,0,0,0-6.24-7.33,6.93,6.93,0,0,0-8.44,0,26.32,26.32,0,0,0-6.14,7.3,71,71,0,0,0-7.4,15.71l35.57-.12A67.78,67.78,0,0,0,404.34,117.85Z" style="fill:#4945FF"></path><path d="M411.69,133.44c0,.14-8,.29-17.78.32s-17.79-.06-17.79-.2,8-.29,17.78-.32S411.69,133.3,411.69,133.44Z" style="fill:#263238"></path><path d="M381,130.35a.68.68,0,1,1-.68-.68A.68.68,0,0,1,381,130.35Z" style="fill:#263238"></path><path d="M387.41,130.35a.68.68,0,0,1-.68.67.67.67,0,0,1-.67-.67.68.68,0,0,1,.67-.68A.69.69,0,0,1,387.41,130.35Z" style="fill:#263238"></path><path d="M393.84,130.35a.68.68,0,0,1-.68.67.67.67,0,0,1-.67-.67.68.68,0,0,1,.67-.68A.69.69,0,0,1,393.84,130.35Z" style="fill:#263238"></path><path d="M400.26,130.35a.67.67,0,1,1-1.34,0,.67.67,0,1,1,1.34,0Z" style="fill:#263238"></path><path d="M406.69,130.35a.67.67,0,1,1-1.34,0,.67.67,0,1,1,1.34,0Z" style="fill:#263238"></path><path d="M412.54,139.61s0,.25,0,.74,0,1.23,0,2.19c0,1.94,0,4.78,0,8.47,0,7.39,0,18.15.07,31.64,0,27,.06,65,.1,108.86v.25H375V272.49c0-28.75,0-56.13,0-81,0-12.45,0-24.29,0-35.36q0-8.31,0-16a31.29,31.29,0,0,1,3.82-14.22c1.07-2.11,2.24-4.1,3.42-6s2.32-3.77,3.6-5.48a19.7,19.7,0,0,1,4.4-4.39,6.49,6.49,0,0,1,5.69-.69,7.34,7.34,0,0,1,2.4,1.42,19,19,0,0,1,1.94,1.85,27.51,27.51,0,0,1,3,4c1.73,2.7,3.28,5.19,4.53,7.51a36.85,36.85,0,0,1,4.27,11.32c.12.68.21,1.29.25,1.82a12.14,12.14,0,0,1,.1,1.32c0,.71,0,1.07,0,1.07s0-.36-.07-1.07c0-.35-.06-.79-.12-1.32s-.15-1.12-.28-1.8a37.33,37.33,0,0,0-4.35-11.24c-1.26-2.31-2.81-4.79-4.56-7.48a27.24,27.24,0,0,0-3-4,17.39,17.39,0,0,0-1.92-1.81,7.11,7.11,0,0,0-2.31-1.37,6.22,6.22,0,0,0-5.43.68,19.42,19.42,0,0,0-4.3,4.33c-1.26,1.69-2.37,3.57-3.57,5.46s-2.33,3.89-3.39,6a31,31,0,0,0-3.75,14.07q0,7.71,0,16c0,11.08,0,22.91,0,35.36,0,24.91,0,52.3,0,81v19l-.26-.26h37.25l-.25.25c0-43.87.07-81.84.1-108.85,0-13.5.05-24.26.07-31.65,0-3.69,0-6.53,0-8.47,0-.95,0-1.68,0-2.19S412.54,139.61,412.54,139.61Z" style="fill:#263238"></path><path d="M393.44,148.1a9.6,9.6,0,0,0-9.6,9.6H403A9.6,9.6,0,0,0,393.44,148.1Z" style="fill:#455a64"></path><path d="M373.81,301.65h0a8.78,8.78,0,0,1,3.61-7l4.17-3.11H408l3.66,2.87a8.8,8.8,0,0,1,3.41,6.89v.38Z" style="fill:#e0e0e0"></path><path d="M373.81,301.65a5.2,5.2,0,0,1,.82,0l2.35,0,8.73-.08,29.35-.09-.26.26a8.44,8.44,0,0,0-1.59-5.27,11.39,11.39,0,0,0-2.58-2.46l-2.8-2.21.16.05-26.4-.07.11,0L377.2,295a9,9,0,0,0-2.55,3.24,10.12,10.12,0,0,0-.84,3.44,4.39,4.39,0,0,1,0-.93,8.32,8.32,0,0,1,.66-2.59,9,9,0,0,1,2.55-3.38l4.46-3.39,0,0h.06l26.4-.08h.09l.07.06c.92.72,1.86,1.45,2.8,2.2a11.85,11.85,0,0,1,2.68,2.57,9,9,0,0,1,1.69,5.57v.26h-.25l-29.35-.09-8.73-.08-2.35,0A5.2,5.2,0,0,1,373.81,301.65Z" style="fill:#263238"></path><rect x="371.06" y="301.65" width="47.28" height="4.76" rx="2.31" style="fill:#4945FF"></rect><path d="M394.24,294.23H370.29V270.5a11.63,11.63,0,0,1,11.63-11.62h.69a11.63,11.63,0,0,1,11.63,11.62Z" style="fill:#ebebeb"></path><path d="M394.24,294.23a1.11,1.11,0,0,1,0-.3c0-.22,0-.5,0-.84,0-.77,0-1.84,0-3.19,0-2.79-.06-6.75-.1-11.62,0-2.45,0-5.12-.05-8a11.34,11.34,0,0,0-3.57-8,11.59,11.59,0,0,0-4.15-2.5,12.47,12.47,0,0,0-5-.58,11.35,11.35,0,0,0-8.89,5.2,11.09,11.09,0,0,0-1.55,3.75,18.58,18.58,0,0,0-.26,4c0,2.7,0,5.33,0,7.88,0,5.09,0,9.87,0,14.21l-.22-.22,17.32.11,4.87.06,1.3,0,.46,0-.42,0-1.25,0-4.82.06-17.46.11h-.21v-.21c0-4.34,0-9.12,0-14.21v-7.88a19.36,19.36,0,0,1,.26-4.13,11.68,11.68,0,0,1,1.62-3.92,11.87,11.87,0,0,1,9.3-5.43,13,13,0,0,1,5.23.62,11.89,11.89,0,0,1,4.32,2.62,11.76,11.76,0,0,1,3.67,8.38q0,4.37,0,8.09c0,4.89-.07,8.86-.09,11.65,0,1.33,0,2.38-.05,3.14,0,.33,0,.59,0,.8S394.24,294.23,394.24,294.23Z" style="fill:#263238"></path><polygon points="472.04 283.24 472.04 252.4 430.36 211.5 412.59 155.86 412.59 291.51 472.04 283.24" style="fill:#f5f5f5"></polygon><polygon points="412.54 291.51 412.59 282.28 472.04 274.75 472.04 283.24 412.54 291.51" style="fill:#4945FF"></polygon><path d="M472,283.24l-1,.16-3.07.45-11.83,1.7-43.49,6.15-.22,0v-.22c0-29.6,0-68.78-.07-111.63,0-8.16,0-16.19,0-24V154.2l.5,1.58,17.74,55.65-.06-.09,41.63,40.95,0,.05v.06c0,9.76-.06,17.48-.08,22.77,0,2.62,0,4.64,0,6,0,.67,0,1.18,0,1.54s0,.51,0,.51,0-.19,0-.54,0-.88,0-1.56q0-2.08,0-6.05c0-5.27-.05-13-.08-22.69l0,.11L430.2,211.67l0,0,0-.06c-5.41-16.9-11.41-35.68-17.79-55.63l.5-.08v24c0,42.85,0,82-.06,111.63l-.22-.2,43.4-5.93,11.89-1.6,3.11-.41Z" style="fill:#263238"></path><g style="opacity:0.30000000000000004"><path d="M421.3,290.07V268.41s-.69-7.61-6.24-9.53v-89l-2.47-14V291.72Z"></path></g><path d="M418.34,294.23H394.4V270.5A11.62,11.62,0,0,1,406,258.88h.7a11.62,11.62,0,0,1,11.62,11.62Z" style="fill:#ebebeb"></path><path d="M418.34,294.23a2,2,0,0,1,0-.3c0-.22,0-.5,0-.84,0-.77,0-1.84,0-3.19,0-2.79-.06-6.75-.1-11.62,0-2.45,0-5.12-.05-8a11.26,11.26,0,0,0-3.57-8,11.5,11.5,0,0,0-4.15-2.5,12.4,12.4,0,0,0-5-.58,11.34,11.34,0,0,0-8.89,5.2,11.11,11.11,0,0,0-1.56,3.75,18.58,18.58,0,0,0-.25,4q0,4,0,7.88c0,5.09,0,9.87,0,14.21l-.21-.22,17.32.11,4.87.06,1.29,0,.46,0-.41,0-1.25,0-4.82.06-17.46.11h-.22v-.21c0-4.34,0-9.12,0-14.21,0-2.55,0-5.18,0-7.88a19.36,19.36,0,0,1,.26-4.13,11.7,11.7,0,0,1,1.63-3.92,11.85,11.85,0,0,1,9.3-5.43,12.9,12.9,0,0,1,5.22.62,11.84,11.84,0,0,1,8,11q0,4.37,0,8.09c0,4.89-.07,8.86-.1,11.65,0,1.33,0,2.38,0,3.14,0,.33,0,.59,0,.8A1.39,1.39,0,0,1,418.34,294.23Z" style="fill:#263238"></path><path d="M412.2,186.52c0,.14-8.19.26-18.28.26s-18.28-.12-18.28-.26,8.18-.26,18.28-.26S412.2,186.37,412.2,186.52Z" style="fill:#263238"></path><path d="M412.2,225.88c0,.14-8.19.26-18.28.26s-18.28-.12-18.28-.26,8.18-.27,18.28-.27S412.2,225.73,412.2,225.88Z" style="fill:#263238"></path><g style="opacity:0.30000000000000004"><path d="M394.7,148.19l-8,9.51h5.48l6.36-8.11A12,12,0,0,0,394.7,148.19Z" style="fill:#fff"></path></g></g><g id="freepik--character-4--inject-1"><path d="M690.62,220.22l.43-36c.41-8.94-4.47-16.64-13.42-16.79l-.83,0a16,16,0,0,0-15.34,15.36c-.31,7.76-.55,16.34-.32,20.48.46,8.59,9.1,9.57,9.1,9.57s.06,5.22,0,7.74l6.91,9.59v.52Z" style="fill:#ffbf9d"></path><path d="M670.24,212.89a20.81,20.81,0,0,0,11-3.77s-2.43,6.57-11,6.15Z" style="fill:#ff9a6c"></path><path d="M664.19,190.25a1.23,1.23,0,0,0,1.23,1.19,1.17,1.17,0,0,0,1.22-1.16,1.22,1.22,0,0,0-1.23-1.19A1.18,1.18,0,0,0,664.19,190.25Z" style="fill:#263238"></path><path d="M663.44,186.56c.16.15,1.06-.57,2.38-.62s2.31.57,2.45.4-.1-.36-.54-.65a3.38,3.38,0,0,0-2-.52,3.19,3.19,0,0,0-1.88.7C663.49,186.2,663.36,186.49,663.44,186.56Z" style="fill:#263238"></path><path d="M676,190.25a1.22,1.22,0,0,0,1.23,1.19,1.18,1.18,0,0,0,1.22-1.16,1.23,1.23,0,0,0-1.23-1.19A1.17,1.17,0,0,0,676,190.25Z" style="fill:#263238"></path><path d="M676.39,186.33c.16.16,1.06-.57,2.38-.62s2.31.57,2.45.4-.1-.36-.54-.65a3.48,3.48,0,0,0-2-.52,3.19,3.19,0,0,0-1.88.7C676.44,186,676.31,186.26,676.39,186.33Z" style="fill:#263238"></path><path d="M672.07,196.67a8.15,8.15,0,0,0-2.16-.3c-.34,0-.66-.07-.72-.3a1.69,1.69,0,0,1,.18-1l.89-2.61a44.4,44.4,0,0,0,2-6.8,44,44,0,0,0-2.5,6.63c-.3.91-.58,1.78-.85,2.62a2,2,0,0,0-.12,1.33.85.85,0,0,0,.57.47,2,2,0,0,0,.58.05A8.92,8.92,0,0,0,672.07,196.67Z" style="fill:#263238"></path><path d="M675.79,182.22c.19.33,1.46-.08,3-.17s2.86.09,3-.27c.06-.17-.22-.46-.78-.71a5.25,5.25,0,0,0-4.59.34C675.93,181.74,675.7,182.06,675.79,182.22Z" style="fill:#263238"></path><path d="M663.22,182.68c.28.3,1.35,0,2.64-.09s2.39.14,2.64-.18c.1-.16-.08-.46-.56-.73a4.44,4.44,0,0,0-4.26.23C663.23,182.23,663.09,182.54,663.22,182.68Z" style="fill:#263238"></path><path d="M690.62,190.62c.14-.07,5.82-2,5.88,3.89s-5.86,4.72-5.87,4.55S690.62,190.62,690.62,190.62Z" style="fill:#ffbf9d"></path><path d="M692.4,196.82s.11.07.28.15a1.1,1.1,0,0,0,.77,0,2.55,2.55,0,0,0,1.15-2.29,3.43,3.43,0,0,0-.3-1.46,1.2,1.2,0,0,0-.78-.78.52.52,0,0,0-.6.29c-.08.16,0,.28-.07.29s-.13-.1-.08-.34a.63.63,0,0,1,.22-.37.77.77,0,0,1,.57-.16,1.47,1.47,0,0,1,1.08.9,3.51,3.51,0,0,1,.37,1.64,2.66,2.66,0,0,1-1.47,2.55,1.1,1.1,0,0,1-.94-.15C692.42,197,692.38,196.83,692.4,196.82Z" style="fill:#ff9a6c"></path><path d="M676.22,197.49c-.21,0-.21,1.33-1.37,2.29s-2.6.79-2.61,1,.32.27.93.28a3.32,3.32,0,0,0,2.17-.74,2.89,2.89,0,0,0,1.06-1.92C676.46,197.81,676.31,197.48,676.22,197.49Z" style="fill:#263238"></path><path d="M649.59,175.11a1.36,1.36,0,0,1,.65-.82,4.2,4.2,0,0,1,2.19-.38,12.23,12.23,0,0,0,5.36-1.42,5.77,5.77,0,0,1-1.59-1.09,3.68,3.68,0,0,1-1.1-3.65.82.82,0,0,1,.45-.57c.38-.12.72.25,1,.54a3.16,3.16,0,0,0,3,1.23,5.25,5.25,0,0,0,2.23-.68l.07-.08.89-.92h0a19.45,19.45,0,0,1,6-4.57,19.89,19.89,0,0,1,10.66-1c3,.75,5.71,3.14,6.16,6.21a6.21,6.21,0,0,1,6.24-.66l.05,0c2.29.78,3.61,3.17,4.3,5.49,0,.12.08.25.11.38a8.94,8.94,0,0,0,3.1,3c.22.13.47.28.5.54s-.18.46-.38.61a4.52,4.52,0,0,1-1.83.78,9.33,9.33,0,0,0,.77,1.59c.26.44.57.95.35,1.41a1,1,0,0,1-1,.45,2.72,2.72,0,0,1-1.06-.47l.78,1.82a5.48,5.48,0,0,1-2.48-.14c-.46,2.18-.77,6.2-1.32,7.68a8.73,8.73,0,0,0-2.72.15c-1,.35-.61,2.14-1.94,1.65-.67-.26-1.74-2.8-2-3.48a33.69,33.69,0,0,1-1.62-14.2,10.7,10.7,0,0,0-3.36-2.36l.11.09c-2.42-.81-5.14-1.6-7.41-.44-1.76.89-2.78,2.74-4.09,4.22a12.29,12.29,0,0,1-9,4.52c-.3,2.6-.36,6.84-.46,9.27L659.09,185v0c-.17-.28-.31-.56-.45-.85l0-.09h0c-.22-.45-.43-.91-.7-1.37l0,0a1.51,1.51,0,0,1-2.24-2,3.25,3.25,0,0,1,.73-.75,2.42,2.42,0,0,1-2.28.62,1.87,1.87,0,0,1-1.35-1.84,1.59,1.59,0,0,1,.94-1.29,5.41,5.41,0,0,1-3.08-.65C650,176.44,649.39,175.87,649.59,175.11Z" style="fill:#263238"></path><path d="M682.88,169a10.55,10.55,0,0,1,.87.78,6.26,6.26,0,0,1,1.35,2.84,10.54,10.54,0,0,1,.25,2.19c0,.79,0,1.64-.09,2.53a22.06,22.06,0,0,0,0,2.83,10.76,10.76,0,0,0,.21,1.48,3.14,3.14,0,0,0,.63,1.44,1.28,1.28,0,0,0,1.22.39,1.9,1.9,0,0,0,1.08-.63,4.42,4.42,0,0,0,.81-2.19l-.18,0a7.23,7.23,0,0,0,1.06,1.79,2.53,2.53,0,0,0,1.69.89,1.55,1.55,0,0,0,.88-.16,1.45,1.45,0,0,0,.6-.6,1.5,1.5,0,0,0,.17-.77,1.1,1.1,0,0,0-.28-.66l-.09.08a5.5,5.5,0,0,0,1.86,1.37,4.37,4.37,0,0,0,.58.21l.2.05-.19-.08-.56-.24a5.84,5.84,0,0,1-1.8-1.39l-.09.08a1.12,1.12,0,0,1,.07,1.28,1.26,1.26,0,0,1-.54.53,1.43,1.43,0,0,1-.8.14,2.36,2.36,0,0,1-1.56-.85,7,7,0,0,1-1-1.75l-.13-.27,0,.29a4.25,4.25,0,0,1-.77,2.1,1.7,1.7,0,0,1-1,.57,1.13,1.13,0,0,1-1-.34,3,3,0,0,1-.57-1.34,9.17,9.17,0,0,1-.21-1.46,23.68,23.68,0,0,1,0-2.8c0-.89.09-1.74.07-2.54a10.07,10.07,0,0,0-.27-2.22,6.08,6.08,0,0,0-1.43-2.86A3.62,3.62,0,0,0,682.88,169Z" style="fill:#455a64"></path><path d="M656.36,177.64l.07.06.21.15a3.51,3.51,0,0,0,.37.23c.15.08.32.18.53.27a7.66,7.66,0,0,0,3.69.62,9.77,9.77,0,0,0,5.17-2,16.86,16.86,0,0,0,4.4-5.19c.61-1.05,1.11-2.12,1.66-3.11a11.42,11.42,0,0,1,1.9-2.65,5.93,5.93,0,0,1,2.46-1.53,4.21,4.21,0,0,1,1.3-.16,4.56,4.56,0,0,1,1.2.21,5,5,0,0,1,1.81,1.06,4.88,4.88,0,0,1,1,1.25,5.84,5.84,0,0,1,.46,1.29s0,0,0-.09,0-.16-.05-.27a4.2,4.2,0,0,0-.34-1,4.88,4.88,0,0,0-1-1.29,5.11,5.11,0,0,0-1.84-1.11,4.47,4.47,0,0,0-1.24-.24,4.29,4.29,0,0,0-1.36.16,6.1,6.1,0,0,0-2.54,1.56,11.58,11.58,0,0,0-1.94,2.68c-.56,1-1,2.07-1.66,3.11a16.89,16.89,0,0,1-4.34,5.14,9.71,9.71,0,0,1-5.07,2,7.77,7.77,0,0,1-3.65-.55A12.54,12.54,0,0,1,656.36,177.64Z" style="fill:#455a64"></path><path d="M655.53,173.87a2,2,0,0,0,.31.21,7.22,7.22,0,0,0,.92.45,8.89,8.89,0,0,0,1.45.46,9.58,9.58,0,0,0,1.86.22,10.9,10.9,0,0,0,1.86-.14,9.89,9.89,0,0,0,1.47-.4,6.71,6.71,0,0,0,.93-.42c.22-.11.33-.18.32-.2s-.49.22-1.3.48a8.83,8.83,0,0,1-1.45.35,10.58,10.58,0,0,1-1.83.13,10.14,10.14,0,0,1-1.82-.2,10.65,10.65,0,0,1-1.44-.41C656,174.1,655.55,173.83,655.53,173.87Z" style="fill:#455a64"></path><path d="M679.19,437.53l.82,18.65s-18.68,7.09-18.86,10.55l36.2-.29-.08-29.1Z" style="fill:#455a64"></path><path d="M691.19,454.52a1.49,1.49,0,0,1,1,1.68,1.43,1.43,0,0,1-1.66,1,1.57,1.57,0,0,1-1.09-1.78,1.48,1.48,0,0,1,1.85-.89" style="fill:#e0e0e0"></path><g style="opacity:0.6000000000000001"><path d="M697.35,466.44l-.12-2.93-34.67,1.37s-1.6.71-1.41,1.85Z" style="fill:#fff"></path></g><path d="M679.42,456c0,.17.89.25,1.77.81s1.34,1.3,1.5,1.23-.11-1.09-1.18-1.75S679.38,455.84,679.42,456Z" style="fill:#263238"></path><path d="M675.64,457.6c0,.17.72.46,1.33,1.21s.79,1.53,1,1.52.28-1-.49-1.92S675.64,457.43,675.64,457.6Z" style="fill:#263238"></path><path d="M673.51,462.16c.16,0,.4-.85-.06-1.81s-1.29-1.35-1.36-1.2.44.66.81,1.46S673.34,462.14,673.51,462.16Z" style="fill:#263238"></path><path d="M679.71,451.73c.07.16.88-.09,1.88,0s1.78.37,1.87.21-.66-.77-1.84-.83S679.62,451.59,679.71,451.73Z" style="fill:#263238"></path><path d="M679.24,451.52a31,31,0,0,0,0,4.49l.15-.23c-2.12.81-4.93,1.89-7.92,3.3a42.69,42.69,0,0,0-8,4.62,8.51,8.51,0,0,0-2,2c-.38.58-.33,1-.27,1a2.4,2.4,0,0,1,.46-.87,10.07,10.07,0,0,1,2-1.82,52.83,52.83,0,0,1,8-4.41c3-1.4,5.75-2.53,7.82-3.42l.16-.07V456A30.52,30.52,0,0,0,679.24,451.52Z" style="fill:#263238"></path><path d="M702.61,307.53v16.9l-6.67,53.95s2.11,25.31,3.41,39.59c1.13,12.4-.71,34-.71,34H678.88l-7.07-72.05L667.42,335l-8-26.61Z" style="fill:#263238"></path><path d="M667.57,434.3l5.18,17.93s-16.49,11.28-15.85,14.69L692,458.13l-6.92-28.27Z" style="fill:#455a64"></path><path d="M683.23,448a1.47,1.47,0,0,1,1.4,1.39,1.42,1.42,0,0,1-1.36,1.4,1.56,1.56,0,0,1-1.48-1.48c.07-.72.88-1.48,1.58-1.3" style="fill:#e0e0e0"></path><g style="opacity:0.6000000000000001"><path d="M692,458.13l-.81-2.82-33.37,9.48s-1.39,1.07-.94,2.13Z" style="fill:#fff"></path></g><path d="M672.14,452.19c0,.17.92,0,1.9.37s1.62.95,1.76.85-.37-1-1.56-1.43S672.06,452,672.14,452.19Z" style="fill:#263238"></path><path d="M668.83,454.64c0,.17.82.28,1.59.86s1.12,1.3,1.29,1.25,0-1.05-.93-1.75S668.8,454.47,668.83,454.64Z" style="fill:#263238"></path><path d="M667.84,459.57c.17,0,.19-.92-.48-1.75s-1.57-1-1.61-.84.59.54,1.13,1.23S667.67,459.59,667.84,459.57Z" style="fill:#263238"></path><path d="M671.41,448c.11.14.84-.29,1.82-.47s1.82-.06,1.87-.23-.82-.6-2-.37S671.29,447.86,671.41,448Z" style="fill:#263238"></path><polygon points="651.83 308.69 650.92 317.88 652.01 384.6 667.65 438.2 671.44 451.2 691.63 447.4 676.07 308.7 651.83 308.69" style="fill:#263238"></polygon><path d="M652.44,386s0,.11.07.32l.26.92c.23.83.57,2,1,3.59.91,3.15,2.22,7.72,3.88,13.48,3.35,11.54,8.07,27.84,13.61,46.94l.05.16.16,0,20.18-3.79.19,0,0-.18c-1-5.44-2.1-11.13-3.2-16.92-3.26-17.16-6.34-33.35-9-47.5V383c3.34-21,6-37.72,7.54-47.33v0l3.37-6.14.86-1.58c.19-.36.28-.55.28-.55s-.12.18-.32.53l-.89,1.56-3.44,6.1h0v0c-1.57,9.6-4.3,26.32-7.72,47.29V383c2.68,14.15,5.74,30.34,9,47.51,1.1,5.8,2.18,11.48,3.21,16.92l.15-.22L671.41,451l.2.12-13.74-46.9c-1.7-5.75-3-10.31-4-13.45l-1.08-3.57c-.12-.4-.21-.7-.28-.92S652.44,386,652.44,386Z" style="fill:#455a64"></path><path d="M655.45,314.16a6.44,6.44,0,0,0,1.1,1.61,14.87,14.87,0,0,0,8,4.84,6.17,6.17,0,0,0,1.94.24,18.15,18.15,0,0,1-11-6.69Z" style="fill:#455a64"></path><path d="M642.79,245.67l-10.56,11.38-14.14-13-11.6.25s17.89,30.15,22,32.56,7.25,1.31,11.88-1.51,20-22.34,20-22.34Z" style="fill:#ffbf9d"></path><path d="M632.83,266c.12,0-.44-2-.58-4.54s.14-4.56,0-4.58a15.54,15.54,0,0,0,.55,9.12Z" style="fill:#ff9a6c"></path><path d="M602.75,222.63s.46-2.65,2.71-.69,10.06,12.65,12,17.87l1.28,5-9.84,3.51L601,240.87c-.91-.85-2-4.78,1.39-3.64,0,0-.81-3.85,2.64-3.15,0,0-.52-2.88,2.91-2.89Z" style="fill:#ffbf9d"></path><path d="M712.71,261.17s2.35,15.11.78,21.09-14.37,21.09-14.37,21.09l-17.47-10.94,11.5-28.58Z" style="fill:#ffbf9d"></path><path d="M696.55,223.67s-10,.14-10.17,12.64,2.55,29.22,2.55,29.22l25.6-4.51s-3.18-23.27-5.89-30S700.7,222.53,696.55,223.67Z" style="fill:#4945FF"></path><path d="M691.79,214.67l.32,2s13.68,9,14.45,11.37c1.2,3.62-1.41,34.17-2.57,42.83s-1.38,27.74-1.38,27.74a26.69,26.69,0,0,1,2.11,7.42c.31,3.11-2.11,5.94-2.11,5.94-14.68,4.79-32.61,1.12-52-3.31l.19-5.49,6.34-59.74s-1.85-15.52,5.72-20c.83-.49,7.44-4.24,7.44-4.24Z" style="fill:#4945FF"></path><g style="opacity:0.30000000000000004"><path d="M669.8,240.57A46.25,46.25,0,0,1,665.29,259a54.44,54.44,0,0,1-11.51,16l2.06-17.87Z"></path></g><path d="M658.31,225.48c2.4-1.94,6.86-3,9.4-1.25A7.61,7.61,0,0,1,670.8,228c2.17,6.35.87,13.18-.86,18.24s-10.14,14.84-10.14,14.84l-20.75-12.6,15.33-18.58A38.06,38.06,0,0,1,658.31,225.48Z" style="fill:#4945FF"></path><path d="M658.31,225.48a5,5,0,0,0-.44.36,14.18,14.18,0,0,0-1.14,1.16c-1,1.06-2.23,2.71-3.94,4.72l-13.88,16.69-.12.15.17.11,19.6,11.92,1.14.69.14.08.1-.12c2.32-2.74,4.48-5.5,6.42-8.28a43.92,43.92,0,0,0,2.64-4.21,17,17,0,0,0,1-2.21c.28-.75.5-1.5.72-2.25,1.74-6,1.78-11.8.2-16.25a7.66,7.66,0,0,0-4.32-4.46,6.94,6.94,0,0,0-2.58-.3,9.54,9.54,0,0,0-2.15.36,10,10,0,0,0-2.74,1.22,4.54,4.54,0,0,0-.84.62s.29-.22.88-.56a10.64,10.64,0,0,1,2.74-1.14,10,10,0,0,1,2.12-.33,6.88,6.88,0,0,1,6.64,4.68c1.53,4.39,1.46,10.16-.28,16.07-.22.74-.44,1.49-.72,2.22a16.7,16.7,0,0,1-1,2.15,44.79,44.79,0,0,1-2.64,4.18c-1.93,2.76-4.09,5.51-6.39,8.24l.24,0-1.14-.69-19.62-11.89,0,.26,13.76-16.78c1.69-2,2.94-3.71,3.87-4.78.46-.54.84-.94,1.1-1.19A3.89,3.89,0,0,0,658.31,225.48Z" style="fill:#263238"></path><path d="M706.83,235a1.71,1.71,0,0,0-.06.36c0,.28,0,.63-.09,1-.07,1-.17,2.26-.28,3.84-.21,3.29-.49,7.74-.8,12.66s-.67,9.42-1,12.65c-.15,1.58-.27,2.87-.36,3.83,0,.42-.06.76-.09,1s0,.37,0,.37a1.52,1.52,0,0,0,.08-.36c0-.28.1-.62.16-1,.13-.9.3-2.2.48-3.82.36-3.23.74-7.7,1.07-12.65s.54-9.43.69-12.68c.06-1.57.12-2.87.16-3.84l0-1C706.85,235.13,706.85,235,706.83,235Z" style="fill:#263238"></path><path d="M660.94,307.53a1.13,1.13,0,0,0,.39.12l1.12.28c.48.12,1.08.24,1.78.37s1.5.29,2.38.42c1.76.31,3.88.56,6.24.78s5,.35,7.69.38,5.34-.07,7.7-.23,4.48-.4,6.25-.69c.89-.12,1.68-.27,2.38-.4s1.3-.25,1.79-.37l1.12-.27.38-.12a1.51,1.51,0,0,0-.4.05l-1.13.19c-.49.1-1.09.2-1.8.31s-1.49.24-2.38.34c-1.77.26-3.88.44-6.24.61s-4.94.22-7.67.2-5.31-.17-7.66-.34-4.47-.43-6.23-.7c-.88-.12-1.68-.25-2.38-.37s-1.3-.21-1.79-.31l-1.13-.2A2.42,2.42,0,0,0,660.94,307.53Z" style="fill:#263238"></path></g><g id="freepik--character-3--inject-1"><path d="M541.08,199.8c-1.69-11.72-4.68-24.58-21.42-23.38,0,0-12.61.85-16.33,10-2,4.93-.8,23.36-1.3,38.61l-1.8,19.6,50.42-9.49S542.13,207.08,541.08,199.8Z" style="fill:#263238"></path><path d="M517.43,181.15l1.05-1,11.32,4.56a3.16,3.16,0,0,1,3,3.06l-.1,36.88a10.33,10.33,0,0,1-2,6.65L520.3,244.59c-3.63,4.79-3.29-5.75-6.16-11-.2-.37.67-1.74.61-2a8.19,8.19,0,0,1-.17-.83c-.34-3-.36-5.54-.36-5.54-.2-3.25-.27-4.59-.27-4.56s-6.93-.8-8.8-9.69c-.93-4.43-.76-10.51-.5-16.51C505,186.15,510.77,181.14,517.43,181.15Z" style="fill:#ffbf9d"></path><path d="M518,200.83a1.14,1.14,0,0,0,1.16,1.1,1.1,1.1,0,0,0,1.14-1.09,1.15,1.15,0,0,0-1.17-1.11A1.1,1.1,0,0,0,518,200.83Z" style="fill:#263238"></path><path d="M506.9,201.08a1.15,1.15,0,0,0,1.17,1.1,1.09,1.09,0,0,0,1.13-1.09A1.15,1.15,0,0,0,508,200,1.11,1.11,0,0,0,506.9,201.08Z" style="fill:#263238"></path><path d="M505.84,196.81c.15.15,1-.54,2.22-.6s2.18.51,2.31.36-.1-.34-.51-.61a3.21,3.21,0,0,0-1.85-.47,3.11,3.11,0,0,0-1.77.67C505.88,196.47,505.76,196.75,505.84,196.81Z" style="fill:#263238"></path><path d="M518.4,196.94c.16.13.93-.64,2.15-.83s2.22.29,2.33.12-.13-.32-.57-.55a3.2,3.2,0,0,0-1.89-.28,3.09,3.09,0,0,0-1.68.85C518.41,196.6,518.32,196.89,518.4,196.94Z" style="fill:#263238"></path><path d="M514.07,206a8.37,8.37,0,0,0-2-.26c-.31,0-.61-.06-.68-.28a1.65,1.65,0,0,1,.17-.95c.25-.77.52-1.59.81-2.45a40.84,40.84,0,0,0,1.78-6.4,41.37,41.37,0,0,0-2.29,6.24l-.78,2.47a1.87,1.87,0,0,0-.1,1.25.79.79,0,0,0,.55.43,1.75,1.75,0,0,0,.54.05A7.72,7.72,0,0,0,514.07,206Z" style="fill:#263238"></path><path d="M514,220.64a22.81,22.81,0,0,0,11.85-3.8s-2.7,6.36-11.72,6Z" style="fill:#ff9a6c"></path><path d="M514.75,208.91a2.24,2.24,0,0,1,2-.93,2.05,2.05,0,0,1,1.45.68,1.28,1.28,0,0,1,.17,1.47,1.51,1.51,0,0,1-1.6.5,4.76,4.76,0,0,1-1.63-.87,1.24,1.24,0,0,1-.37-.35.41.41,0,0,1,0-.46" style="fill:#ff9a6c"></path><path d="M517.76,206.63c-.2,0-.14,1.34-1.24,2.35s-2.54.93-2.54,1.12.33.25.94.23a3.33,3.33,0,0,0,2.12-.86,2.88,2.88,0,0,0,1-2C518,206.94,517.85,206.61,517.76,206.63Z" style="fill:#263238"></path><path d="M517.21,192.12c.17.31,1.37,0,2.84-.08s2.68.17,2.83-.16c.06-.16-.19-.44-.71-.69a4.9,4.9,0,0,0-4.31.18C517.36,191.66,517.14,192,517.21,192.12Z" style="fill:#263238"></path><path d="M506,191.5c.23.27,1.06-.07,2.09-.13s1.9.09,2.09-.21c.08-.15-.07-.43-.47-.67a3,3,0,0,0-3.37.27C506,191.07,505.91,191.36,506,191.5Z" style="fill:#263238"></path><path d="M532.55,203.51s-6.34,2-9.92-13.67c-1.23-5.35-6.19-9.69-6.19-9.69l2-.6s12.5,3.52,12.71,3.68,3.16,6.46,3.16,6.46Z" style="fill:#263238"></path><path d="M531,202.93c0-.67.66-2.29,1.32-2.42,1.74-.36,4.93-.38,5.18,4.09.35,6.11-5.86,5.2-5.88,5S531.1,205.23,531,202.93Z" style="fill:#ffbf9d"></path><path d="M533.34,207.2s.11.07.3.14a1.1,1.1,0,0,0,.8,0,2.66,2.66,0,0,0,1.08-2.44,3.62,3.62,0,0,0-.38-1.51,1.26,1.26,0,0,0-.85-.77.54.54,0,0,0-.61.33c-.08.18,0,.3-.06.31s-.14-.1-.1-.35a.63.63,0,0,1,.22-.4.8.8,0,0,1,.58-.19,1.5,1.5,0,0,1,1.16.89,3.62,3.62,0,0,1,.47,1.68,2.78,2.78,0,0,1-1.41,2.73,1.17,1.17,0,0,1-1-.11C533.36,207.35,533.32,207.22,533.34,207.2Z" style="fill:#ff9a6c"></path><path d="M528.25,200.52s-.33,0-.91-.19a5.53,5.53,0,0,1-2.18-1.26,7.58,7.58,0,0,1-1.13-1.33,10.38,10.38,0,0,1-.93-1.79,39.2,39.2,0,0,1-1.32-4.44,44,44,0,0,0-1.4-4.44,28,28,0,0,0-1.59-3.46,21.13,21.13,0,0,0-1.4-2.14c-.19-.25-.34-.42-.44-.55a1.64,1.64,0,0,0-.17-.18l.14.2c.09.13.24.31.41.56a19.74,19.74,0,0,1,1.36,2.17,28.12,28.12,0,0,1,1.55,3.45c.5,1.34,1,2.84,1.39,4.43A38.13,38.13,0,0,0,523,196a11.28,11.28,0,0,0,.95,1.8,7.86,7.86,0,0,0,1.17,1.34,5.37,5.37,0,0,0,2.24,1.24A3.39,3.39,0,0,0,528.25,200.52Z" style="fill:#263238"></path><path d="M536.61,226.6a1.21,1.21,0,0,0,.06-.3c0-.21.09-.5.16-.86.13-.79.31-1.91.55-3.32l-.15,0c0,.22-.06.46-.1.72v0c0,.09-.09.18-.13.28l.15.06a58.33,58.33,0,0,0,2-9.85,60.1,60.1,0,0,0,.38-6.36,29.5,29.5,0,0,0-.61-7,10.64,10.64,0,0,0-1.11-2.77,15,15,0,0,0-1.69-2.36c-1.24-1.44-2.58-2.67-3.81-3.9l-6.56-6.45-4.44-4.34L520.06,179l-.32-.3c-.07-.06-.11-.1-.12-.09l.1.11.3.32,1.18,1.21,4.38,4.4,6.52,6.5c1.22,1.23,2.56,2.47,3.78,3.89a12,12,0,0,1,2.74,5,29.26,29.26,0,0,1,.61,6.91A61.49,61.49,0,0,1,537,223.08l.15.06c0-.1.09-.2.12-.28h0c0-.26.06-.5.09-.73l-.15,0c-.2,1.43-.37,2.55-.48,3.33l-.12.88A1.36,1.36,0,0,0,536.61,226.6Z" style="fill:#455a64"></path><path d="M500,230.63s-4.08,1.67-4.54,10.64-1.24,29.23-1.24,29.23-2.62,3.38-2.93,6.17-5.24,19.1-5.24,19.1l11.1,3.53,2.85-5,2.4-49.51Z" style="fill:#455a64"></path><path d="M489.77,281s-2-2.18-3.53-2.18-2.43.76-2.43,1.76V282Z" style="fill:#ffbf9d"></path><path d="M499.05,241.83a2.77,2.77,0,0,0-.08.59c0,.43-.07,1-.13,1.67-.12,1.46-.2,3.57-.25,6.19-.1,5.22.16,12.44.7,20.39s1,15.14,1.13,20.35c.06,2.61.08,4.72.06,6.18v1.68a4.44,4.44,0,0,0,0,.59,2.49,2.49,0,0,0,.07-.59c0-.43.05-1,.09-1.68.07-1.45.1-3.57.09-6.18,0-5.23-.44-12.43-1-20.38s-.86-15.15-.84-20.36c0-2.61,0-4.72.1-6.18,0-.69,0-1.25,0-1.68A2.8,2.8,0,0,0,499.05,241.83Z" style="fill:#263238"></path><path d="M499.7,278.77a9.73,9.73,0,0,0-1.45-4,10,10,0,0,0-2.69-3.32c-.11.09,1.14,1.53,2.27,3.54S499.56,278.81,499.7,278.77Z" style="fill:#263238"></path><path d="M537.64,426.09,556.1,443,535.21,466c-2.08-2.13,4.3-18.07,4.3-18.07L528,436.82Z" style="fill:#455a64"></path><path d="M545,439.93a1.27,1.27,0,0,1,1.66.32,1.23,1.23,0,0,1-.3,1.66,1.34,1.34,0,0,1-1.76-.35,1.27,1.27,0,0,1,.51-1.69" style="fill:#fff"></path><path d="M556.1,443l-1.93-1.78-19.24,22.95s-.47,1.43.36,2Z" style="fill:#263238"></path><path d="M539.06,448.24c.11.1.67-.42,1.54-.65s1.6-.09,1.65-.23-.75-.57-1.79-.28S538.93,448.17,539.06,448.24Z" style="fill:#fff"></path><path d="M537.87,451.56c.08.13.71-.19,1.54-.14s1.42.4,1.52.28-.42-.76-1.45-.8S537.76,451.46,537.87,451.56Z" style="fill:#fff"></path><path d="M539.52,455.56c.14-.1-.19-.71-1.19-1s-1.6,0-1.55.17.68.11,1.4.34S539.4,455.66,539.52,455.56Z" style="fill:#fff"></path><path d="M536.52,445.57c.15.05.46-.61,1.08-1.21s1.27-.91,1.22-1.05-.87,0-1.59.68S536.38,445.55,536.52,445.57Z" style="fill:#fff"></path><path d="M534.28,442.55c.05,0,.52-.34,1-1.16a7.36,7.36,0,0,0,1-2.53,1.84,1.84,0,0,0,.05-.6.66.66,0,0,0-.56-.59.84.84,0,0,0-.7.26,1.76,1.76,0,0,0-.33.49,5.47,5.47,0,0,0-.41.94,5.54,5.54,0,0,0-.26,1.7,2.72,2.72,0,0,0,.32,1.53c.09,0,0-.6.05-1.52a6.38,6.38,0,0,1,.35-1.55,6.51,6.51,0,0,1,.4-.85c.16-.3.34-.51.51-.48s.08,0,.11.15a1.76,1.76,0,0,1,0,.43,8,8,0,0,1-.2.93,9.63,9.63,0,0,1-.58,1.5A10.26,10.26,0,0,0,534.28,442.55Z" style="fill:#fff"></path><path d="M534.58,442.55s-.15-.62-.84-1.32a5.08,5.08,0,0,0-1.41-1,5.54,5.54,0,0,0-1-.34,1.3,1.3,0,0,0-1.25.21.71.71,0,0,0-.11.78,2,2,0,0,0,.31.5,3.41,3.41,0,0,0,.78.7,3.68,3.68,0,0,0,1.64.59,2.08,2.08,0,0,0,1.54-.3c0-.09-.6.1-1.49-.07a3.59,3.59,0,0,1-1.41-.62,3.17,3.17,0,0,1-.65-.62c-.21-.26-.33-.53-.22-.6a.84.84,0,0,1,.74-.06,4.87,4.87,0,0,1,.89.28,5.37,5.37,0,0,1,1.35.82C534.19,442.09,534.5,442.59,534.58,442.55Z" style="fill:#fff"></path><path d="M542.1,442.36l-.24,25-31.11-.14c.19-3,16.32-8.87,16.32-8.87l-.51-16Z" style="fill:#455a64"></path><path d="M536.69,457.06a1.25,1.25,0,0,1,.87,1.45,1.22,1.22,0,0,1-1.43.88,1.35,1.35,0,0,1-.91-1.55,1.27,1.27,0,0,1,1.59-.74" style="fill:#fff"></path><path d="M541.87,467.42l0-2.68-29.92,1s-1.39.6-1.23,1.58Z" style="fill:#263238"></path><path d="M526.56,458.2c0,.16.77.23,1.51.72s1.14,1.13,1.28,1.07-.08-.94-1-1.52S526.53,458.06,526.56,458.2Z" style="fill:#263238"></path><path d="M523.29,459.54c0,.15.62.41,1.14,1s.66,1.33.81,1.32.25-.86-.4-1.65S523.3,459.39,523.29,459.54Z" style="fill:#263238"></path><path d="M521.42,463.44c.14,0,.36-.73,0-1.56s-1.1-1.17-1.16-1,.37.57.68,1.26S521.27,463.42,521.42,463.44Z" style="fill:#263238"></path><path d="M526.85,454.54c.06.14.76-.07,1.62,0s1.53.34,1.61.21-.56-.68-1.58-.74S526.78,454.42,526.85,454.54Z" style="fill:#263238"></path><path d="M540.53,299.71a44.12,44.12,0,0,1,6.5,9.14c2.15,4.47,5.44,14,5.44,14s4.1,14.56,3.18,21.42-7,53.79-7,53.79,1.21,37.21-4,53.76l-1,4.39-17.55-3.12h0L522.17,361l-10.7-60.89Z" style="fill:#263238"></path><path d="M518.13,303.63a2.06,2.06,0,0,1,.67-1,1.33,1.33,0,0,1,1.21-.12,1.25,1.25,0,0,1,0,2.33,1.3,1.3,0,0,1-1.2-.17,2,2,0,0,1-.64-1s-.07.13,0,.37a1.45,1.45,0,0,0,.49.9,1.58,1.58,0,0,0,1.51.3,1.63,1.63,0,0,0,.06-3.07,1.57,1.57,0,0,0-1.52.25,1.41,1.41,0,0,0-.53.88C518.07,303.5,518.11,303.63,518.13,303.63Z" style="fill:#455a64"></path><path d="M497.77,312.36s-6.43,58.39-7.36,68.41,35.47,63.5,35.47,63.5l15.35-18.15L517.8,382.57l7.89-43.37-10.38-39.14-16.15.19Z" style="fill:#263238"></path><path d="M547.25,437.76a12.09,12.09,0,0,1-.13,1.28c-.1.84-.31,2.07-.6,3.65-.58,3.18-1.53,7.79-2.8,13.55l0,.12-.12,0L526,453.26l-.14,0v-.14c-.49-12-1.07-26.43-1.7-41.86-.65-16.6-1.25-32-1.74-44.63h0c-1.31-10.14-2.4-18.53-3.16-24.41l-.86-6.78-.21-1.78c0-.41-.05-.62-.05-.62s0,.21.1.61.15,1,.26,1.78c.22,1.57.54,3.86.94,6.77.8,5.87,1.93,14.25,3.31,24.39h0c.51,12.63,1.13,28,1.81,44.62.6,15.44,1.16,29.83,1.63,41.87l-.14-.16,17.54,3.15-.15.1c1.3-5.75,2.29-10.34,2.91-13.51.32-1.58.54-2.81.67-3.64.08-.42.12-.73.15-.95S547.25,437.76,547.25,437.76Z" style="fill:#455a64"></path><path d="M520.68,323.45a6.26,6.26,0,0,0-1,.05,4.39,4.39,0,0,1-2.46-.43,2.24,2.24,0,0,1-1-1.32,9.33,9.33,0,0,1-.3-2c-.12-1.46-.25-3.06-.36-4.74-.22-3.37-.35-6.42-.42-8.63,0-1-.07-1.92-.1-2.62a3.89,3.89,0,0,0-.08-1,3.89,3.89,0,0,0-.08,1c0,.62,0,1.51,0,2.62,0,2.22.08,5.28.31,8.65.11,1.69.25,3.29.39,4.75a8.78,8.78,0,0,0,.36,2.09,2.61,2.61,0,0,0,1.17,1.47,3.25,3.25,0,0,0,1.49.39,6.42,6.42,0,0,0,1.14-.06A3.42,3.42,0,0,0,520.68,323.45Z" style="fill:#455a64"></path><path d="M498.47,312.41a6.15,6.15,0,0,0,1.68-.89,17.83,17.83,0,0,0,3.45-3,17.42,17.42,0,0,0,2.54-3.82,5.93,5.93,0,0,0,.66-1.77,30.34,30.34,0,0,1-3.51,5.31A31.44,31.44,0,0,1,498.47,312.41Z" style="fill:#455a64"></path><path d="M542.81,243.36l-6,53.67-33.44,2.34-2.66-2.17,1.69-36.07L514,229.27l.38-1.29c1.14,2,2.87,15.24,4.82,15.4,1.24.1,10.34-13.55,13.57-17.13l.1-1.26Z" style="fill:#f5f5f5"></path><path d="M532.78,221.4l5.32,6.41L556,233.57l-11.2,51.59,8.53,20a48.27,48.27,0,0,1,2.24,6.45l5.25,19.59s-18.09,4.69-22.75,2.13S527.75,305.83,526,299.92s-4.31-23.49-3.1-32.85,3.27-23.16,4.31-27.93S532.78,221.4,532.78,221.4Z" style="fill:#455a64"></path><path d="M556,233.57s4.71,5.86,6,11.49c2.25,9.51,11,35.45,10.44,41.53s-34.24,17.11-34.24,17.11l-1.38-16.92,15.69-7.88L548.27,263" style="fill:#455a64"></path><path d="M548.27,263l.06.28c0,.2.11.47.2.81l.81,3.14,3.1,11.75.07-.15-15.7,7.83-.11.06v.11c.41,5.14.87,10.86,1.35,16.92l0,.26.26-.08c6.61-2.22,13.72-4.8,20.89-8,2.36-1.06,4.67-2.15,6.86-3.37a20.54,20.54,0,0,0,5.94-4.41,4.5,4.5,0,0,0,.48-.79,1.69,1.69,0,0,0,.14-.45,1.23,1.23,0,0,0,.07-.46,11.29,11.29,0,0,0-.07-1.75c-.1-1.16-.32-2.28-.51-3.39q-.69-3.32-1.5-6.45c-2.17-8.33-4.48-15.75-6.29-22-.92-3.13-1.69-6-2.34-8.48a27.14,27.14,0,0,0-2.72-6.09c-.93-1.59-1.76-2.76-2.33-3.55-.29-.39-.52-.68-.68-.87a2.2,2.2,0,0,0-.25-.29s.07.11.22.31l.63.9c.55.8,1.36,2,2.26,3.58a27.16,27.16,0,0,1,2.63,6.08c.62,2.5,1.38,5.36,2.28,8.48,1.77,6.27,4.05,13.7,6.19,22q.81,3.12,1.49,6.42c.19,1.11.4,2.22.5,3.35a12.08,12.08,0,0,1,.06,1.7,2.58,2.58,0,0,1-.62,1.49,20.42,20.42,0,0,1-5.8,4.28c-2.18,1.21-4.48,2.3-6.83,3.35-7.14,3.16-14.25,5.75-20.84,8l.28.17c-.5-6.06-1-11.78-1.4-16.92l-.1.18L552.64,279l.1,0,0-.1c-1.37-5-2.47-9-3.22-11.71-.38-1.35-.68-2.4-.89-3.13l-.23-.8A1.36,1.36,0,0,0,548.27,263Z" style="fill:#263238"></path><path d="M514.05,224.29,511,228l-11,2.65s-2.89,13.79-2.89,17.56,1.63,45.66,1.63,47.63-7.93,28.75-7.24,30.39,9,2.79,9,2.79,3.1-23.16,3.1-31,.35-27.27,2.07-36.8,8.79-32.46,8.79-32.46Z" style="fill:#455a64"></path><path d="M503.35,302.36a1.57,1.57,0,0,0,0-.2v-.57c0-.54,0-1.28,0-2.22-.05-1.95-.11-4.72-.19-8.13-.17-6.87-.46-16.35-.64-26.83,0-1.31,0-2.6,0-3.87s.14-2.52.24-3.75c.2-2.46.41-4.84.65-7.09s.51-4.4.87-6.38a26.27,26.27,0,0,1,1.61-5.37,67.27,67.27,0,0,1,3.61-7.34l1.11-1.94.29-.51A1.23,1.23,0,0,0,511,228a.74.74,0,0,0-.13.16l-.33.48c-.28.43-.68,1.07-1.18,1.91a60.1,60.1,0,0,0-3.75,7.32,25.55,25.55,0,0,0-1.68,5.4c-.38,2-.66,4.15-.91,6.41s-.47,4.63-.68,7.1c-.11,1.22-.26,2.48-.25,3.77s0,2.58,0,3.89c.18,10.48.52,20,.76,26.83.14,3.4.26,6.17.34,8.13,0,.93.09,1.67.11,2.21,0,.23,0,.42.05.57A.55.55,0,0,0,503.35,302.36Z" style="fill:#263238"></path><path d="M523.79,286.59a3.38,3.38,0,0,0,.09-.61c0-.41.1-1,.15-1.78.11-1.55.2-3.79.16-6.56,0-1.38-.09-2.9-.2-4.52a19.42,19.42,0,0,1,.65-5.09,82.8,82.8,0,0,1,4-11.23c1.66-3.91,3.38-7.58,5-10.9a45.69,45.69,0,0,0,2.12-4.81,42.22,42.22,0,0,0,1.13-4.41c.55-2.72.85-4.94,1-6.48.09-.76.15-1.36.19-1.77a2.43,2.43,0,0,0,0-.62,5.36,5.36,0,0,0-.12.61c-.07.44-.16,1-.27,1.76-.25,1.53-.6,3.74-1.19,6.45a42.24,42.24,0,0,1-1.17,4.36,44.68,44.68,0,0,1-2.14,4.74c-1.62,3.32-3.35,7-5,10.91a80.39,80.39,0,0,0-4,11.31,19.38,19.38,0,0,0-.61,5.19c.12,1.62.2,3.13.24,4.51.09,2.76,0,5,0,6.54,0,.74-.05,1.33-.07,1.78A3.23,3.23,0,0,0,523.79,286.59Z" style="fill:#263238"></path><path d="M474.32,285.3l9.42,12.12a1.76,1.76,0,0,0,1.7.63l40.72-7.33a1.62,1.62,0,0,0,1.31-2.11l-4.39-12.88a1.74,1.74,0,0,0-2-1.11l-45.74,8.1A1.62,1.62,0,0,0,474.32,285.3Z" style="fill:#263238"></path><path d="M562.07,280a3.94,3.94,0,0,0-1.37-1,8.71,8.71,0,0,0-4.09-1.08,8.88,8.88,0,0,0-4.13,1,4.06,4.06,0,0,0-1.4,1c0,.06.58-.33,1.54-.75a9.47,9.47,0,0,1,7.93.1C561.5,279.62,562,280,562.07,280Z" style="fill:#263238"></path><g style="opacity:0.30000000000000004"><polygon points="552.43 302.95 536.35 308.59 534.67 302.23 527.05 303.7 525.81 299.25 537.59 297.14 538.1 303.7 550.6 299.2 552.43 302.95"></polygon></g><path d="M536.68,287.58s-3.69-2.26-4.61-2.8-4.06-2.51-5.48-2.31l-1.43.21,1.29,3.59s-11.46-1.63-13,.14,1.71,2.1,3.42,2.3S524,289.8,524,289.8s-14.31-1.5-15.31,0,1.39,1.83,1.39,1.83l9.48,3.59,1.09.41,1.09,1.35s3.89,2.58,5.1,2.24,10.72-2.08,10.72-2.08Z" style="fill:#ffbf9d"></path><path d="M526,293.89a12.22,12.22,0,0,0-2.22-.65c-1.39-.33-3.33-.71-5.5-1a55.35,55.35,0,0,0-5.58-.47,11.37,11.37,0,0,0-2.32,0,17.27,17.27,0,0,0,2.31.23c1.42.12,3.38.3,5.53.59s4.1.62,5.5.88A17.85,17.85,0,0,0,526,293.89Z" style="fill:#ff9a6c"></path><path d="M524.73,296.51a6.13,6.13,0,0,0-2.05-.7,6.42,6.42,0,0,0-2.16-.34,5.78,5.78,0,0,0,2.05.71A6,6,0,0,0,524.73,296.51Z" style="fill:#ff9a6c"></path><path d="M497.35,242.44a2.44,2.44,0,0,0-.08.54c0,.4-.07.91-.12,1.55-.1,1.35-.18,3.3-.23,5.71-.09,4.83.14,11.5.65,18.84s.94,14,1,18.81c.06,2.41.08,4.36.06,5.71v1.55a1.85,1.85,0,0,0,0,.54,3.43,3.43,0,0,0,.06-.53c0-.4.05-.92.08-1.56.07-1.34.1-3.3.08-5.71,0-4.83-.4-11.49-.91-18.83s-.79-14-.78-18.81c0-2.41,0-4.36.1-5.71,0-.64,0-1.16,0-1.55A2.9,2.9,0,0,0,497.35,242.44Z" style="fill:#263238"></path><path d="M547,261.28a4.88,4.88,0,0,0,.08-1.08c0-.69,0-1.7.14-2.93a49.72,49.72,0,0,1,1.67-9.54,50.35,50.35,0,0,1,3.55-9c.57-1.12,1.06-2,1.41-2.61a4.84,4.84,0,0,0,.5-1,6,6,0,0,0-.65.88c-.4.59-.93,1.46-1.54,2.57a43.78,43.78,0,0,0-3.7,9.07,43.27,43.27,0,0,0-1.55,9.63c-.05,1.25-.05,2.26,0,2.95A5.53,5.53,0,0,0,547,261.28Z" style="fill:#263238"></path><path d="M477.29,289.14s-1.44,1.92-.93,3.45,4.14,4.33,4.14,4.33,1.4,1.66,2,1.66,3.67.55,3.46-1.25-2.89-2.13-2.89-2.13-.06-.65-1.21-1.47-2.41-1.78-2.41-1.78Z" style="fill:#ffbf9d"></path><path d="M479.88,296.43s.14.27.55.51a2.19,2.19,0,0,0,1.82.15,1.7,1.7,0,0,0,.83-.65,1.52,1.52,0,0,0,.25-.83c0-.51-.28-.74-.32-.7s.06.29,0,.67a1.4,1.4,0,0,1-.92,1.08,2.24,2.24,0,0,1-1.52,0C480.16,296.5,479.92,296.37,479.88,296.43Z" style="fill:#ff9a6c"></path><circle cx="533.51" cy="211" r="2.52" style="fill:#455a64"></circle></g><g id="freepik--character-2--inject-1"><path d="M249.27,308.33s-9.15,21.85-15.4,23.69-8.26-10.43-8.26-10.43L237.2,299.8Z" style="fill:#ffbf9d"></path><path d="M231.41,278.34s-1.91-1.61-3.09-1.42-4.91,2.78-5.55,3.11-2.44,2.2-2.4,3.42,1.71,12.82,1.7,13.22,8.21,2.44,8.21,2.44a5,5,0,0,0,2.37-3.63c.2-2.39.16-3.61.31-4.54s1.19-1.42,1.53-1.85,1.61-1.31,1.19-2.73-1.27-1.65-1.27-1.65,1-1.2.27-2.19a2.2,2.2,0,0,0-1.8-.93l.34-1,.18-.24a.73.73,0,0,0-.35-1.12Z" style="fill:#ffbf9d"></path><path d="M229.39,287.41c.08.08,1-.8,2.35-1.5s2.6-.94,2.58-1.06a4.9,4.9,0,0,0-2.76.71A4.75,4.75,0,0,0,229.39,287.41Z" style="fill:#ff9a6c"></path><path d="M228.72,283.91a14.42,14.42,0,0,0,2.06-1.09,14.92,14.92,0,0,0,2.07-1.08,4.57,4.57,0,0,0-2.25.73A4.64,4.64,0,0,0,228.72,283.91Z" style="fill:#ff9a6c"></path><path d="M225.65,281.62a4.85,4.85,0,0,0,1.07-.62,9.54,9.54,0,0,1,2.62-1.28,4.28,4.28,0,0,1,2.8.16,11.76,11.76,0,0,1,1,.64s-.19-.49-.9-.89a4.14,4.14,0,0,0-3-.3,7.77,7.77,0,0,0-2.67,1.44C226,281.24,225.61,281.58,225.65,281.62Z" style="fill:#ff9a6c"></path><path d="M229.53,277.39c0,.11.42.28.7.75s.24.94.35,1,.14-.1.18-.32a1.3,1.3,0,0,0-.19-.85,1.32,1.32,0,0,0-.67-.56C229.68,277.31,229.54,277.34,229.53,277.39Z" style="fill:#ff9a6c"></path><path d="M228.19,290.66c.08-.08-.32-.56-.43-1.28s.09-1.3,0-1.35-.52.55-.37,1.42S228.13,290.76,228.19,290.66Z" style="fill:#ff9a6c"></path><path d="M224.49,287.83c.08-.08-.13-.46-.05-1s.36-.83.29-.92-.16,0-.32.13a1.2,1.2,0,0,0-.36.73,1.19,1.19,0,0,0,.16.81C224.32,287.8,224.45,287.86,224.49,287.83Z" style="fill:#ff9a6c"></path><path d="M222.29,286c.11,0-.13-.73.14-1.52s.83-1.23.77-1.33-.22,0-.47.2a2.1,2.1,0,0,0-.68,1,2.22,2.22,0,0,0,0,1.22C222.12,285.9,222.25,286.05,222.29,286Z" style="fill:#ff9a6c"></path><path d="M230.85,298.31l5.06,15.55s4.2,3.75,3.17,9.23-4.91,9.74-8.56,10-5.28-4.17-6.53-7.48-1.92-28.92-1.92-28.92Z" style="fill:#ffbf9d"></path><path d="M231.12,298.6a3.61,3.61,0,0,0,.15.87c.13.55.33,1.35.61,2.32.55,1.95,1.44,4.6,2.52,7.49a27.61,27.61,0,0,0,1.72,4c.67,1.17,1.32,2.17,1.76,3.07a8,8,0,0,1,.83,3.09s0-.07,0-.22a4.45,4.45,0,0,0,0-.66,6.85,6.85,0,0,0-.64-2.33c-.41-.94-1-2-1.69-3.13a27.4,27.4,0,0,1-1.66-4c-1.09-2.88-2-5.51-2.63-7.43l-.73-2.28A3.9,3.9,0,0,0,231.12,298.6Z" style="fill:#ff9a6c"></path><path d="M242.57,433.91l10.05,23.45L223.51,470c-1-2.86,11.59-15,11.59-15l-7-14.76Z" style="fill:#455a64"></path><path d="M243.55,449.85a1.31,1.31,0,0,1,1.42,1,1.25,1.25,0,0,1-1,1.41,1.36,1.36,0,0,1-1.49-1.07,1.29,1.29,0,0,1,1.18-1.35" style="fill:#fff"></path><path d="M252.64,457.41l-1.07-2.52-27.52,13.23s-1,1.14-.5,2Z" style="fill:#263238"></path><path d="M234.57,455.08c.06.14.8-.1,1.7.05s1.53.59,1.64.48-.47-.85-1.56-1S234.48,455,234.57,455.08Z" style="fill:#263238"></path><path d="M232.06,457.67c0,.15.75.13,1.49.52s1.16,1,1.3.9-.12-.91-1-1.38S232,457.54,232.06,457.67Z" style="fill:#263238"></path><path d="M231.92,462.08c.14,0,0-.82-.68-1.44s-1.5-.64-1.51-.5.59.38,1.16.9S231.77,462.13,231.92,462.08Z" style="fill:#263238"></path><path d="M233.33,451.54c.12.1.68-.37,1.51-.67s1.56-.31,1.59-.47-.81-.4-1.78,0S233.21,451.46,233.33,451.54Z" style="fill:#263238"></path><path d="M229.73,449l-25.11-56.24s.51-9.61,2.28-12.65,55.37-20.73,55.37-20.73,13.66-3.29,22.76,0,17.06,15.17,14.66,21-8.29,12.23-8.29,12.23l-37.73-.1-21.48,7.84,16.6,40.77S230.39,449.17,229.73,449Z" style="fill:#263238"></path><path d="M223.53,413.78l-1.18,25.49L190.64,438c.31-3,17-8.43,17-8.43l.09-16.36Z" style="fill:#455a64"></path><path d="M217.47,428.56a1.3,1.3,0,0,1,.83,1.52,1.25,1.25,0,0,1-1.49.84,1.37,1.37,0,0,1-.88-1.61,1.29,1.29,0,0,1,1.65-.7" style="fill:#fff"></path><path d="M222.35,439.32l.14-2.73L192,436.5s-1.44.56-1.31,1.56Z" style="fill:#263238"></path><path d="M207.1,429.35c0,.15.77.26,1.51.79s1.12,1.19,1.26,1.14-.05-1-1-1.59S207.07,429.21,207.1,429.35Z" style="fill:#263238"></path><path d="M203.71,430.59c0,.15.62.44,1.12,1.11s.62,1.38.78,1.38.29-.87-.35-1.7S203.72,430.44,203.71,430.59Z" style="fill:#263238"></path><path d="M201.66,434.49c.14,0,.39-.73,0-1.59s-1.07-1.23-1.14-1.11.36.6.65,1.32S201.51,434.47,201.66,434.49Z" style="fill:#263238"></path><path d="M207.53,425.62c.06.15.78,0,1.65.06s1.54.4,1.63.27-.55-.71-1.58-.81S207.46,425.5,207.53,425.62Z" style="fill:#263238"></path><path d="M216,354.06s-9.09-.73-10.1,9.13-2,55.88-2,55.88l21.24,1.77,3.29-47,33.88-14.41S222,352.79,216,354.06Z" style="fill:#263238"></path><path d="M253.43,340.75s-5.52,15.46-4.47,17.19,15.24,8.81,15.24,8.81l35.49,13.64a29.73,29.73,0,0,0,3.65-14.71c0-8.91-12.35-24.93-12.35-24.93Z" style="fill:#263238"></path><path d="M264,358.61a.77.77,0,0,1-.17.09l-.5.23-2,.88L253.94,363l-25.48,11,.12-.17c-.32,4.65-.67,9.67-1,14.86-.87,12.13-1.66,23.32-2.29,32.17V421h-.16l-15.48-1.36-4.26-.4-1.11-.11-.38-.06h.38l1.12.07,4.27.31,15.48,1.22-.17.15c.61-8.85,1.38-20,2.21-32.18.37-5.19.72-10.21,1-14.85v-.12l.1,0,25.53-10.84,7.42-3.11,2-.82.52-.2Z" style="fill:#455a64"></path><path d="M292.18,360.16a6.25,6.25,0,0,1-1-.28l-2.67-.86a59.33,59.33,0,0,0-8.94-2.26,26.16,26.16,0,0,0-9.16.12c-2.31.48-3.64,1.14-3.67,1.06a4.34,4.34,0,0,1,.92-.46,16.39,16.39,0,0,1,2.69-.87,24.42,24.42,0,0,1,9.27-.24,49.68,49.68,0,0,1,9,2.39c1.12.39,2,.74,2.63,1A4.45,4.45,0,0,1,292.18,360.16Z" style="fill:#455a64"></path><path d="M287.16,352a29.36,29.36,0,0,0-3.1,0c-1,.06-2.1.21-3.36.36s-2.65.32-4.09.59a19,19,0,0,0-7,2.58,23.2,23.2,0,0,0-2.41,1.94,3,3,0,0,1,.52-.67,10.84,10.84,0,0,1,1.74-1.5,17.7,17.7,0,0,1,7-2.74c1.46-.28,2.86-.44,4.13-.57s2.41-.24,3.38-.27a12.53,12.53,0,0,1,2.3.1A2.75,2.75,0,0,1,287.16,352Z" style="fill:#455a64"></path><path d="M296,289.11s-4.92-12.07-12.35-12.75l-24.6,1.87-9.82,3.48S244,290.26,245.33,305c.51,5.52,3.13,20.74,3.5,24.07.35,3.1.82,11.66,4.6,11.66H291s8.49-2.35,8.85-7.45S296,289.11,296,289.11Z" style="fill:#4945FF"></path><path d="M278,317.18a3.22,3.22,0,0,1-.63.53,11.57,11.57,0,0,1-1.95,1.14,11.88,11.88,0,0,1-3.2,1,11.25,11.25,0,0,1-4.1-.18,13.51,13.51,0,0,1-6.38-3.7,16.33,16.33,0,0,1-1.47-1.7,3.38,3.38,0,0,1-.44-.7c.06,0,.74.91,2.1,2.2a14.08,14.08,0,0,0,6.28,3.51,11.46,11.46,0,0,0,7.1-.65C277,317.86,278,317.11,278,317.18Z" style="fill:#263238"></path><g style="opacity:0.30000000000000004"><path d="M260.46,314.4a11,11,0,0,0,3.86,7.38,9.1,9.1,0,0,0,8,1.75,7.79,7.79,0,0,0,5.49-6,23.12,23.12,0,0,1-6,2.09,11.77,11.77,0,0,1-11.57-5.46l.31.32"></path></g><path d="M303.34,305.82l-18.93,8.87s-7.72-17.07-8.38-19.4-2.75-6-.61-10.89,7.51-7.58,11.08-6.33C294.84,281,303.34,305.82,303.34,305.82Z" style="fill:#4945FF"></path><path d="M286.27,313.49c3.58,5.89,6.08,9.28,6.08,9.28L260.2,342.35l3.75,8.7,41.7-17.16s4.11-4.23,2.65-8.95l-6.64-18.35Z" style="fill:#ffbf9d"></path><path d="M300.17,325.76a27.09,27.09,0,0,0-3.85-2,26.32,26.32,0,0,0-4.22-1,10.39,10.39,0,0,1,8.07,3Z" style="fill:#ff9a6c"></path><path d="M303.34,305.82a1.42,1.42,0,0,0-.38.13l-1,.45-3.83,1.69-12.56,5.73-1.54.71.24.08c-2.18-4.5-4.1-8.53-5.45-11.43-.66-1.42-1.19-2.59-1.58-3.44-.18-.38-.32-.68-.43-.93a1.79,1.79,0,0,0-.17-.32,1.54,1.54,0,0,0,.11.35c.08.21.19.54.36,1,.33.83.84,2,1.48,3.49,1.3,2.94,3.18,7,5.36,11.49l.07.16.17-.07,1.53-.71,12.52-5.82,3.77-1.8,1-.51A2.27,2.27,0,0,0,303.34,305.82Z" style="fill:#263238"></path><path d="M235.26,348.31l8-3.84,15.65-1.24,1.27-.88,3.75,8.7s-4.1,2-6.25,2.13l-13.16-.4-6.88.73Z" style="fill:#ffbf9d"></path><path d="M190.15,317.42l45.11.37c1.47,0,2.86.7,3.08,2.15l4.93,32.88h23.24a1.36,1.36,0,0,1,0,2.71H192.3l-5.07-34.7A3,3,0,0,1,190.15,317.42Z" style="fill:#e0e0e0"></path><path d="M190.15,317.42a2.39,2.39,0,0,0-.71.07,2.92,2.92,0,0,0-1.72,1.14,3,3,0,0,0-.56,1.44,8.87,8.87,0,0,0,.17,1.86c.19,1.33.4,2.86.65,4.58,1,6.89,2.42,16.82,4.18,29l0,.11h.12l72,0h1.94a1.92,1.92,0,0,0,1-.2,1.49,1.49,0,0,0,.69-.81,1.53,1.53,0,0,0-.7-1.87,1.89,1.89,0,0,0-1-.2h-23l.18.15C241.67,341,240,330,238.53,320.18a2.54,2.54,0,0,0-.83-1.72,3.34,3.34,0,0,0-1.73-.76,14,14,0,0,0-1.82-.07h-1.77l-6.79,0-12.07-.08-17.18-.09h-6.19l.41,0,1.18,0,4.6.06,17.18.19,12.07.12,6.79.07h1.77a14.88,14.88,0,0,1,1.78.07,3.11,3.11,0,0,1,1.57.69,2.25,2.25,0,0,1,.73,1.54c1.47,9.86,3.11,20.84,4.87,32.62l0,.15h23.11a1.51,1.51,0,0,1,.84.14,1.18,1.18,0,0,1,.54,1.43,1.2,1.2,0,0,1-.53.62,1.46,1.46,0,0,1-.85.15h-1.94l-72,.05.14.12c-1.81-12.21-3.29-22.14-4.31-29-.26-1.72-.48-3.24-.68-4.57a8.82,8.82,0,0,1-.19-1.83,2.88,2.88,0,0,1,.53-1.4,2.93,2.93,0,0,1,1.66-1.15C189.91,317.42,190.15,317.44,190.15,317.42Z" style="fill:#263238"></path><path d="M217.45,336.06a2.83,2.83,0,1,1-2.83-2.83A2.83,2.83,0,0,1,217.45,336.06Z" style="fill:#fff"></path><path d="M241.45,355.22c-.07,0-1.5-8.36-3.21-18.7s-3-18.72-3-18.73,1.5,8.36,3.21,18.7S241.51,355.21,241.45,355.22Z" style="fill:#263238"></path><path d="M247.24,308.55l-12-7.58s6-13.85,10.41-17.05,6.68-3.3,6.68-3.3Z" style="fill:#4945FF"></path><path d="M253.75,231.37c3.93-1.39,7.77-.44,11.58,1.25a20.69,20.69,0,0,1,9.14,8.28,20.41,20.41,0,0,1,2.94,12.62,16.32,16.32,0,0,1-6.22,11.22c-4.81,3.59-11.72,3.82-17.05,1.07a20.67,20.67,0,0,1-10.3-14.07,19.75,19.75,0,0,1,1.09-12.15,15.1,15.1,0,0,1,8.82-8.22" style="fill:#263238"></path><path d="M267.66,243.17c-.86-1.45-.93-3.22-1.45-4.82-1.14-3.53-4.56-5.93-8.18-6.76-3.36-.78-7.15.17-10.72,2a14.72,14.72,0,0,0-6,5.57,11.54,11.54,0,0,0-.32,10.57l18.06-5.89a20.91,20.91,0,0,0,6.25,2.72,3.9,3.9,0,0,0,2,0,1.75,1.75,0,0,0,1.24-1.44A3.73,3.73,0,0,0,267.66,243.17Z" style="fill:#263238"></path><path d="M273.74,277l-5.85-35a3.05,3.05,0,0,0-3.33-2.47l-16.76-.64c-5.21.55-7.26,7.54-6.5,12.72.85,5.76,2.12,12.76,3.7,16.85,3.16,8.24,9.93,7.93,9.93,7.93s1.19,5.41,1.88,8.5a6.27,6.27,0,0,0,7.06,1.3C268.34,284.38,273.74,277,273.74,277Z" style="fill:#ffbf9d"></path><path d="M246.26,257.91a1.12,1.12,0,0,0,1.29.88,1.08,1.08,0,0,0,.92-1.23,1.13,1.13,0,0,0-1.29-.88A1.08,1.08,0,0,0,246.26,257.91Z" style="fill:#263238"></path><path d="M243.58,254.84c.17.11.86-.68,2-.93s2.17.16,2.26,0-.14-.3-.58-.5a3.06,3.06,0,0,0-1.84-.16,3,3,0,0,0-1.59.91C243.57,254.5,243.5,254.79,243.58,254.84Z" style="fill:#263238"></path><path d="M257.16,255.4a1.13,1.13,0,0,0,1.29.88,1.07,1.07,0,0,0,.92-1.23,1.12,1.12,0,0,0-1.29-.88A1.08,1.08,0,0,0,257.16,255.4Z" style="fill:#263238"></path><path d="M254.8,252c.17.11.87-.68,2-.92s2.17.16,2.26,0-.14-.3-.57-.49a3,3,0,0,0-1.85-.17,3,3,0,0,0-1.59.91C254.79,251.7,254.72,252,254.8,252Z" style="fill:#263238"></path><path d="M252.78,262.23a7.87,7.87,0,0,0-2,.06c-.3,0-.6,0-.69-.16a1.46,1.46,0,0,1,0-.93c.12-.79.26-1.61.4-2.48a40.42,40.42,0,0,0,.72-6.41,40.32,40.32,0,0,0-1.24,6.34c-.12.86-.24,1.69-.36,2.48a1.78,1.78,0,0,0,.1,1.21.79.79,0,0,0,.58.34,2.72,2.72,0,0,0,.53,0A7.69,7.69,0,0,0,252.78,262.23Z" style="fill:#263238"></path><path d="M254.93,276.32a22.15,22.15,0,0,0,10.76-5.47s-1.61,6.51-10.31,7.53Z" style="fill:#ff9a6c"></path><path d="M253.88,265a2.14,2.14,0,0,1,1.73-1.19,2,2,0,0,1,1.49.43,1.24,1.24,0,0,1,.39,1.38,1.46,1.46,0,0,1-1.46.72,4.53,4.53,0,0,1-1.69-.58,1.15,1.15,0,0,1-.41-.28.38.38,0,0,1-.09-.43" style="fill:#ff9a6c"></path><path d="M256.41,262.31c-.19,0,.08,1.3-.82,2.44s-2.29,1.29-2.26,1.47.35.18.93.08a3.23,3.23,0,0,0,1.9-1.16,2.8,2.8,0,0,0,.61-2C256.71,262.57,256.5,262.28,256.41,262.31Z" style="fill:#263238"></path><path d="M253.43,247.37c.19.3,1.33-.11,2.74-.23s2.62,0,2.74-.32c0-.15-.21-.41-.72-.63a4.73,4.73,0,0,0-2.14-.27,4.65,4.65,0,0,0-2,.69C253.55,246.92,253.35,247.23,253.43,247.37Z" style="fill:#263238"></path><path d="M242.83,249.62c.26.22,1-.23,2-.45s1.84-.2,2-.52c.06-.15-.13-.39-.54-.57a3,3,0,0,0-3.19.78C242.76,249.21,242.71,249.51,242.83,249.62Z" style="fill:#263238"></path><path d="M270.19,240.16c-2.52-4.63-11-10.08-16.1-8.72L246.78,238a8.11,8.11,0,0,0,6.59,5c1.54.16,3.33-.06,4.44,1s1,3.08,2.05,4.24c1.5,1.62,4.61.92,5.85,2.74.54.8.55,1.87,1.11,2.65.74,1.05,3.91,1.94,5,1.33s.73-2.66.92-3.8a5.73,5.73,0,0,0-.56-3.83C271.23,245.08,271.4,242.37,270.19,240.16Z" style="fill:#263238"></path><path d="M268.52,256.72c-.13-.64.28-2.29.89-2.52,1.61-.62,4.66-1.12,5.59,3.12,1.28,5.8-4.81,5.89-4.86,5.72S269,258.91,268.52,256.72Z" style="fill:#ffbf9d"></path><path d="M271.43,260.46s.12,0,.31.08a1,1,0,0,0,.76-.15,2.56,2.56,0,0,0,.66-2.49,3.38,3.38,0,0,0-.6-1.39,1.19,1.19,0,0,0-.93-.61.54.54,0,0,0-.54.41c0,.18,0,.29,0,.3s-.14-.07-.15-.32a.67.67,0,0,1,.15-.41.78.78,0,0,1,.53-.27,1.44,1.44,0,0,1,1.25.67,3.59,3.59,0,0,1,.71,1.54,2.68,2.68,0,0,1-.93,2.83,1.13,1.13,0,0,1-1,.05C271.47,260.59,271.41,260.47,271.43,260.46Z" style="fill:#ff9a6c"></path><path d="M248.18,235.93c-.13,2.47-3.22,6.15-4.49,8.28-2.42,4.06-2.82,5.34-1.42,13.24-1.9-2.49-3.46-5-3.88-8.07a12.9,12.9,0,0,1,1.94-9,10.06,10.06,0,0,1,7.85-4.48" style="fill:#263238"></path><path d="M273.16,239.57a6.22,6.22,0,0,1-1,.42,12,12,0,0,1-1.15.41c-.45.14-1,.32-1.55.46a30.07,30.07,0,0,1-4.14.76,33.41,33.41,0,0,1-5.15.1,31.51,31.51,0,0,1-5.1-.8,27.63,27.63,0,0,1-4-1.31c-.56-.21-1-.46-1.47-.66s-.8-.4-1.09-.56a5.56,5.56,0,0,1-.88-.55,6.17,6.17,0,0,1,.95.42c.29.15.66.33,1.1.51s.92.41,1.48.61a32.09,32.09,0,0,0,4,1.22,34.68,34.68,0,0,0,5,.77,34.16,34.16,0,0,0,5.1-.08,29.53,29.53,0,0,0,4.11-.68c.59-.11,1.1-.28,1.55-.4s.85-.24,1.16-.35A6.12,6.12,0,0,1,273.16,239.57Z" style="fill:#455a64"></path><path d="M274.5,243.66a3.48,3.48,0,0,1-.65.28,15.87,15.87,0,0,1-1.85.57,23.82,23.82,0,0,1-12.61-.28,17.62,17.62,0,0,1-1.81-.65,3,3,0,0,1-.64-.31c0-.06,1,.3,2.52.71a26.91,26.91,0,0,0,12.49.29C273.52,243.92,274.48,243.6,274.5,243.66Z" style="fill:#455a64"></path><path d="M260.52,223.12a6.91,6.91,0,0,1,3.85-3.8,11.42,11.42,0,0,1,5.47-.69,11.89,11.89,0,0,1,6.75,2.62,7.49,7.49,0,0,1,2.68,6.52,5.51,5.51,0,0,1-4.88,4.72,16,16,0,0,1,5.24,4.14c.27.31.52.75.3,1.1s-.84.24-1.27.05l-4.76-2.08a8.45,8.45,0,0,1,3.48,3.67c.27.55.39,1.36-.15,1.63a1.25,1.25,0,0,1-1.1-.16l-3.42-1.64-7.8-6.89a9.7,9.7,0,0,1-3.92-3.83A6.7,6.7,0,0,1,260.52,223.12Z" style="fill:#263238"></path><path d="M258.57,230.58c0,.08,1,.14,2.57.51a20.46,20.46,0,0,1,5.78,2.39,19.85,19.85,0,0,1,4.74,4.06c1,1.23,1.56,2.09,1.63,2.06A2.48,2.48,0,0,0,273,239a13.22,13.22,0,0,0-1.08-1.6,18.33,18.33,0,0,0-4.76-4.23,18.12,18.12,0,0,0-5.93-2.32,12.82,12.82,0,0,0-1.92-.24A2.29,2.29,0,0,0,258.57,230.58Z" style="fill:#4945FF"></path><path d="M244.77,293.05a4.89,4.89,0,0,1,.17,1.13c.06.84.15,1.87.25,3.08.19,2.6.42,6.19.78,10.15s.84,7.52,1.28,10.09c.22,1.28.41,2.32.55,3a5.4,5.4,0,0,1,.17,1.13,4.09,4.09,0,0,1-.36-1.08c-.21-.7-.45-1.73-.72-3a91.34,91.34,0,0,1-1.44-10.11c-.36-4-.53-7.57-.63-10.18q0-1.83-.09-3.09A5.19,5.19,0,0,1,244.77,293.05Z" style="fill:#263238"></path></g><g id="freepik--character-1--inject-1"><path d="M116.78,174.92a3.78,3.78,0,0,1-1.22-7.42,3.93,3.93,0,0,1,3.76-6.45,4.7,4.7,0,0,1,7.28-3.49,5.29,5.29,0,0,1,6.51.2,3.76,3.76,0,0,1,3,6.54" style="fill:#263238"></path><path d="M133.74,161.53l-.83-.05a16,16,0,0,0-16.7,13.94c-1,7.71-2,16.24-2.18,20.39-.32,8.6,8.21,10.37,8.21,10.37L121,216.47l20.89.39,3.71-37.37C146.81,170.61,142.65,162.49,133.74,161.53Z" style="fill:#ae7461"></path><path d="M122.17,206.16a20.85,20.85,0,0,0,11.43-2.73s-3,6-11.5,4.85Z" style="fill:#6f4439"></path><path d="M118.46,182.83a1.24,1.24,0,0,0,1.12,1.3,1.17,1.17,0,0,0,1.32-1,1.22,1.22,0,0,0-1.12-1.3A1.18,1.18,0,0,0,118.46,182.83Z" style="fill:#263238"></path><path d="M117.85,179.72c.14.17,1.1-.48,2.43-.41s2.25.78,2.4.63-.06-.37-.47-.7a3.38,3.38,0,0,0-1.92-.69,3.2,3.2,0,0,0-1.94.52C117.93,179.36,117.77,179.64,117.85,179.72Z" style="fill:#263238"></path><path d="M130.65,183.39a1.24,1.24,0,0,0,1.12,1.3,1.17,1.17,0,0,0,1.32-1,1.22,1.22,0,0,0-1.12-1.3A1.18,1.18,0,0,0,130.65,183.39Z" style="fill:#263238"></path><path d="M130.82,180.61c.14.17,1.11-.47,2.43-.4s2.26.77,2.41.62-.07-.37-.48-.69a3.35,3.35,0,0,0-1.91-.7,3.22,3.22,0,0,0-2,.52C130.9,180.25,130.75,180.53,130.82,180.61Z" style="fill:#263238"></path><path d="M125.54,190.17a8.34,8.34,0,0,0-2.13-.49c-.33-.06-.65-.14-.7-.37a1.81,1.81,0,0,1,.28-1c.36-.8.73-1.64,1.12-2.52a45.05,45.05,0,0,0,2.58-6.61,44.31,44.31,0,0,0-3.1,6.39c-.38.88-.74,1.73-1.08,2.53a2,2,0,0,0-.25,1.32.85.85,0,0,0,.53.52,2.35,2.35,0,0,0,.57.11A8.81,8.81,0,0,0,125.54,190.17Z" style="fill:#263238"></path><path d="M129.93,175.47c.15.34,1.3,0,2.7.06s2.56.32,2.7,0c.07-.16-.17-.47-.66-.77a4.25,4.25,0,0,0-2.07-.54,4,4,0,0,0-2,.52C130.08,175,129.86,175.31,129.93,175.47Z" style="fill:#263238"></path><path d="M118.05,174.27c.27.31,1.37,0,2.68.11s2.42.32,2.69,0,0-.46-.52-.77a4.52,4.52,0,0,0-4.32-.1C118.1,173.81,117.94,174.12,118.05,174.27Z" style="fill:#263238"></path><path d="M117.23,171.52s2.53-5.27,5.19-6.4c3.22-1.36,4.4,2.15,7.44,1.46s6.11-2,9,.47c3.23,2.7,1.57,4.4,1.59,8.23.07,15.5,2.68,20,3.84,12.77.13-.79,2.37-1.31,2.87-4.67.64-4.35,1.08-9.65.25-12.8-.69-2.66-2.09-4.54-4.67-6.66-4.06-3.36-9.85-3.71-13.81-3.51S117.21,164.76,117.23,171.52Z" style="fill:#263238"></path><path d="M143.8,187.79a2.34,2.34,0,0,1,2.64-2.12c1.59.23,3.33,1.23,3.06,4.54-.48,5.87-6.27,4.17-6.27,4S143.58,190.25,143.8,187.79Z" style="fill:#ae7461"></path><path d="M144.69,192.11s.1.08.26.17a1,1,0,0,0,.76.08,2.52,2.52,0,0,0,1.36-2.17,3.32,3.32,0,0,0-.17-1.49,1.16,1.16,0,0,0-.7-.84.52.52,0,0,0-.63.23c-.09.15-.06.27-.09.28s-.12-.11,0-.35a.61.61,0,0,1,.26-.34.74.74,0,0,1,.57-.11,1.46,1.46,0,0,1,1,1,3.61,3.61,0,0,1,.22,1.66,2.69,2.69,0,0,1-1.7,2.42,1.08,1.08,0,0,1-.92-.24C144.69,192.25,144.67,192.12,144.69,192.11Z" style="fill:#6f4439"></path><path d="M144.26,176.4a5.72,5.72,0,0,1-2.55,1,1.92,1.92,0,0,1-2.06-1.46c-.05-.41.07-.88-.18-1.21s-.9-.3-1.4-.28c-1.71.1-3.62-1.89-4-3.57a1.53,1.53,0,0,1-2.07.32,5.33,5.33,0,0,1-1.35-1.33,2.46,2.46,0,0,0-2-1.11,5.91,5.91,0,0,1-1.29.22c-.77-.11-1.1-1-1.18-1.8s-.13-1.67-.76-2.12a3.12,3.12,0,0,0-2.1-.16c-.71.07-1.62-.14-1.77-.85a1.38,1.38,0,0,1,.32-1.05,3.79,3.79,0,0,1,4.56-1.22,5.16,5.16,0,0,1,9.53-.53,5.24,5.24,0,0,1,8.27,2.33,3.8,3.8,0,0,1,4,5.73,3.6,3.6,0,0,1,1.84,3,2.06,2.06,0,0,1-2.44,2,2.11,2.11,0,0,1-3.74,1.92" style="fill:#263238"></path><path d="M126,163.52s0,0,0,.11,0,.17,0,.31a3.74,3.74,0,0,0,.37,1.16,4.2,4.2,0,0,0,1.23,1.45,4,4,0,0,0,2.37.81l-.09-.14a2.1,2.1,0,0,0,0,1.63,6.23,6.23,0,0,0,.93,1.5,4.48,4.48,0,0,0,.63.7,1.9,1.9,0,0,0,.91.39,2.16,2.16,0,0,0,1.93-.58l-.22-.07a4.43,4.43,0,0,0,1.72,3.14,3.27,3.27,0,0,0,1.9.73,5.78,5.78,0,0,0,1.92-.33l-.15-.07a4.55,4.55,0,0,0,1.3,1.88,2.44,2.44,0,0,0,2,.66,3.21,3.21,0,0,0,2.61-2.41l-.13.06a3,3,0,0,0,2,.39,3.17,3.17,0,0,0,1.44-.56,2.83,2.83,0,0,0,.7-.68,1,1,0,0,0,.16-.3,3.49,3.49,0,0,1-.91.9,3.25,3.25,0,0,1-1.4.5,2.89,2.89,0,0,1-1.89-.41l-.11-.06,0,.12a3.07,3.07,0,0,1-2.48,2.23,2.24,2.24,0,0,1-1.83-.62,4.43,4.43,0,0,1-1.22-1.79l0-.11-.11,0a5.72,5.72,0,0,1-1.84.3,2.94,2.94,0,0,1-1.76-.67,4.19,4.19,0,0,1-1.62-3l0-.28-.2.21a1.92,1.92,0,0,1-1.7.52,2,2,0,0,1-.81-.34,4.87,4.87,0,0,1-.59-.67,5.83,5.83,0,0,1-.91-1.43,1.89,1.89,0,0,1-.06-1.47l.06-.14H130a3.73,3.73,0,0,1-2.28-.74,4.09,4.09,0,0,1-1.23-1.38A4.35,4.35,0,0,1,126,163.52Z" style="fill:#455a64"></path><path d="M129.54,191.48a21.71,21.71,0,0,0-3.77,1.41l-1.28.58c.48.72,1,1.9,1.7,2.25a2.61,2.61,0,0,0,2.57-.18,3,3,0,0,0,.84-1.88A9.94,9.94,0,0,0,129.54,191.48Z" style="fill:#6f4439"></path><path d="M125,194.33s.11.18.32.46a2.25,2.25,0,0,0,1.17.83,2.84,2.84,0,0,0,2.08-.26,2.68,2.68,0,0,0,.93-2.31,7,7,0,0,0-.25-1.6l.26.13c-1.47.59-2.76,1.08-3.69,1.42a7.9,7.9,0,0,1-1.5.48,6.46,6.46,0,0,1,1.41-.71c.9-.4,2.17-.94,3.63-1.55l.2-.08.06.21a6.49,6.49,0,0,1,.28,1.69,2.56,2.56,0,0,1-3.49,2.85,2.21,2.21,0,0,1-1.22-1A1.06,1.06,0,0,1,125,194.33Z" style="fill:#263238"></path><path d="M121.6,441.4l.92,16.77s-16.73,6.56-16.87,9.68l32.58-.62L137.87,441Z" style="fill:#263238"></path><path d="M132.57,456.56a1.35,1.35,0,0,1,1,1.51A1.29,1.29,0,0,1,132,459a1.41,1.41,0,0,1-1-1.6,1.34,1.34,0,0,1,1.65-.82" style="fill:#e0e0e0"></path><path d="M138.23,467.23l-.14-2.63-31.18,1.57s-1.44.66-1.26,1.68Z" style="fill:#455a64"></path><path d="M122,458c0,.16.81.22,1.6.71s1.22,1.16,1.37,1.09-.11-1-1.08-1.56S122,457.86,122,458Z" style="fill:#fff"></path><path d="M118.6,459.49c0,.15.66.41,1.21,1.07s.73,1.37.89,1.36.24-.91-.47-1.72S118.6,459.34,118.6,459.49Z" style="fill:#fff"></path><path d="M116.74,463.61c.14,0,.35-.76-.08-1.63s-1.17-1.19-1.24-1.06.41.59.75,1.31S116.58,463.6,116.74,463.61Z" style="fill:#fff"></path><path d="M122.21,454.16c.07.15.79-.08,1.69,0s1.61.31,1.69.18-.61-.7-1.67-.73S122.13,454,122.21,454.16Z" style="fill:#fff"></path><path d="M161.05,439.74,162.81,460l-3.22,16.41a2.09,2.09,0,0,0,1.78,2.47h0a2.1,2.1,0,0,0,1.8-.66c2.9-3.16,13.53-14.86,13.31-16.34-.24-1.71-.44-21.48-.44-21.48Z" style="fill:#263238"></path><path d="M161.37,478.87l15-18.37,0,.86a3.17,3.17,0,0,1-.61,2.08c-1.19,1.59-4.58,5.93-12.61,14.77a2.12,2.12,0,0,1-1.86.66Z" style="fill:#455a64"></path><g style="opacity:0.6000000000000001"><path d="M171.81,454.23a1.25,1.25,0,0,0-.23,1.66,1.2,1.2,0,0,0,1.64.25,1.33,1.33,0,0,0,.25-1.76,1.27,1.27,0,0,0-1.75-.07" style="fill:#fff"></path></g><path d="M165.44,469.71a6.27,6.27,0,0,0-1.88-1.46,6.09,6.09,0,0,0-2.36-.3c0-.05.22-.22.69-.32a3.25,3.25,0,0,1,1.84.2,3.33,3.33,0,0,1,1.45,1.16C165.44,469.39,165.49,469.69,165.44,469.71Z" style="fill:#fff"></path><path d="M164.17,472.52a14.88,14.88,0,0,0-1.85-.76,18,18,0,0,0-2-.13,2.32,2.32,0,0,1,2.1-.3C163.64,471.6,164.27,472.46,164.17,472.52Z" style="fill:#fff"></path><path d="M167.91,466.06a19.52,19.52,0,0,0-2.78-1.36,19.13,19.13,0,0,0-3.06-.51,4.56,4.56,0,0,1,3.19.08A4.61,4.61,0,0,1,167.91,466.06Z" style="fill:#fff"></path><path d="M167.88,459.86c0,.12-1.19-.27-2.65-.23s-2.6.46-2.65.34a4,4,0,0,1,2.64-.79A4,4,0,0,1,167.88,459.86Z" style="fill:#fff"></path><path d="M167.52,453.9a10.23,10.23,0,0,0-2.76-.31,9.67,9.67,0,0,0-2.65.85s.17-.31.62-.61a4.59,4.59,0,0,1,2-.69,4.44,4.44,0,0,1,2.08.29C167.29,453.63,167.54,453.86,167.52,453.9Z" style="fill:#fff"></path><path d="M164.72,452.45s-.09-.26-.08-.76a5.46,5.46,0,0,1,.48-2.05,2.43,2.43,0,0,1,.94-1.19.84.84,0,0,1,1,.12,1.43,1.43,0,0,1,.38.9,3,3,0,0,1-2.4,2.88,3.4,3.4,0,0,1-3.46-1.57,1.15,1.15,0,0,1-.12-1,.83.83,0,0,1,.83-.49,3,3,0,0,1,1.38.61,6,6,0,0,1,1.48,1.49,2,2,0,0,1,.36.68,9.73,9.73,0,0,0-2-1.9,2.76,2.76,0,0,0-1.21-.51.45.45,0,0,0-.46.27.87.87,0,0,0,.12.64,3,3,0,0,0,3,1.32,2.55,2.55,0,0,0,2.08-2.42,1,1,0,0,0-.24-.63.45.45,0,0,0-.53-.08,2.16,2.16,0,0,0-.81,1A7.84,7.84,0,0,0,164.72,452.45Z" style="fill:#fff"></path><path d="M105.46,300.54a72.11,72.11,0,0,0-1.57,21.22c.35,4.51,15.56,129.27,15.56,129.27H140l-5.78-117.25,1.69.36s11.21,50,12.13,58.11c.82,7.27,10.28,60.15,10.28,60.15l18.79.21-6-69.93-7-67.11L161.5,296Z" style="fill:#263238"></path><path d="M137.46,321.81a3.4,3.4,0,0,1-.85.49,9.79,9.79,0,0,1-2.55.89,5.43,5.43,0,0,1-1.89,0,3.81,3.81,0,0,1-2-.95,4.73,4.73,0,0,1-1.2-2.1c-.24-.79-.38-1.63-.55-2.47-.66-3.38-1.1-6.47-1.36-8.71-.13-1.13-.21-2-.26-2.67a4.08,4.08,0,0,1,0-1,4.32,4.32,0,0,1,.2,1c.11.71.24,1.59.4,2.63.33,2.23.82,5.31,1.48,8.68.33,1.67.55,3.37,1.6,4.36a4.23,4.23,0,0,0,3.54.92,11.37,11.37,0,0,0,2.53-.74A5.75,5.75,0,0,1,137.46,321.81Z" style="fill:#455a64"></path><path d="M131.28,305.91s.13-.11.42-.12a1.81,1.81,0,0,1,1.15.37,2,2,0,0,1,.87,1.58,2,2,0,0,1-3.47,1.3,2,2,0,0,1-.39-1.76,1.8,1.8,0,0,1,.62-1c.23-.18.39-.21.4-.19a2.37,2.37,0,0,0-.72,1.28,1.8,1.8,0,0,0,.39,1.44,1.67,1.67,0,0,0,2.77-1,1.78,1.78,0,0,0-.66-1.34A2.32,2.32,0,0,0,131.28,305.91Z" style="fill:#455a64"></path><path d="M58.76,207.32a23.9,23.9,0,0,0,3.74,7.37l2.81,2,.57,9.29,11.22-4.2-1-9.65-.68-8-7-6Z" style="fill:#ae7461"></path><path d="M89.67,190.13l-5,12-3-.6-18.1,17.05-6.15-10.13s11-5.73,12.82-9.94-.09-4-.09-4l4.31-7.43Z" style="fill:#263238"></path><path d="M81.52,175s-6-1.41-15.9-7.55a87.4,87.4,0,0,1-15.53-12.64,3.26,3.26,0,0,0-4.55-.16c-2,1.85-4.65,6.37-7.21,17.65-4.49,19.89-.32,23.4,1.33,23s12.43-4.55,19.63-5.24,18.31.85,18.31.85Z" style="fill:#e0e0e0"></path><path d="M81.52,175s0,.09,0,.27-.11.45-.19.79c-.17.73-.41,1.77-.73,3.12-.66,2.76-1.62,6.75-2.83,11.78l0,.11h-.12c-3.16-.4-6.76-.75-10.74-.92a61.58,61.58,0,0,0-6.22,0,37.39,37.39,0,0,0-6.61,1c-4.52,1-9.16,2.65-14.07,4.25l-.24.07-.28,0a2,2,0,0,1-.55-.09c-.15-.08-.32-.16-.47-.26l-.39-.34a5.41,5.41,0,0,1-1-1.74,13.92,13.92,0,0,1-.78-3.94,41.59,41.59,0,0,1,.36-8.17c.08-.61.16-1.21.25-1.82s.2-1.2.31-1.79c.19-1.2.43-2.38.69-3.54.47-2.35,1-4.63,1.67-6.86a55.57,55.57,0,0,1,2.2-6.45A19.65,19.65,0,0,1,45,154.85a4,4,0,0,1,1.31-1,3.31,3.31,0,0,1,1.61-.28,3.42,3.42,0,0,1,1.53.47,5.63,5.63,0,0,1,1.18,1c1.41,1.43,2.83,2.77,4.23,4a89.52,89.52,0,0,0,8.22,6.49A85.18,85.18,0,0,0,76.31,173c1.64.72,3,1.21,3.84,1.52l1,.33.35.11a1.38,1.38,0,0,1-.36-.07c-.24-.06-.59-.15-1-.3-.9-.28-2.22-.74-3.87-1.44a81.29,81.29,0,0,1-13.31-7.33,86.55,86.55,0,0,1-8.28-6.47c-1.41-1.25-2.84-2.59-4.26-4a5.54,5.54,0,0,0-1.11-1,3.11,3.11,0,0,0-4,.74A19.38,19.38,0,0,0,42,160.63,56.12,56.12,0,0,0,39.86,167c-.62,2.22-1.19,4.5-1.66,6.83-.25,1.16-.49,2.34-.69,3.53-.1.59-.21,1.19-.3,1.79S37,180.39,37,181a40.89,40.89,0,0,0-.36,8.09,13.15,13.15,0,0,0,.75,3.82,5,5,0,0,0,.94,1.62l.34.29c.12.08.26.14.38.21a1.24,1.24,0,0,0,.83,0c4.86-1.59,9.55-3.21,14.09-4.24a39.81,39.81,0,0,1,6.67-1c2.17-.11,4.26-.07,6.25,0,4,.19,7.6.57,10.77,1l-.14.09c1.25-5,2.25-8.94,2.94-11.67.35-1.36.61-2.4.8-3.13l.21-.82A1.66,1.66,0,0,1,81.52,175Z" style="fill:#263238"></path><polygon points="97.92 190.72 94.03 190.34 95.98 185.16 99.32 186.7 97.92 190.72" style="fill:#4945FF"></polygon><path d="M96.47,184.62l-1.52,4-.83,2.21a6.07,6.07,0,0,1-7.52,3.64l-15.9-3.41,5.33-20,16.18,5A7,7,0,0,1,96.47,184.62Z" style="fill:#4945FF"></path><g style="opacity:0.30000000000000004"><path d="M39.69,173.24c-2.33,10.6-2.29,19.61.07,20.13s6.16-7.66,8.49-18.26,2.29-19.61-.08-20.13S42,162.64,39.69,173.24Z"></path></g><path d="M49.39,168.9s-5.72-2.07-7,5.35,4.24,7.43,4.24,7.43A46.31,46.31,0,0,0,49.39,168.9Z" style="fill:#fff"></path><path d="M79.57,178.6a53.55,53.55,0,0,0,6.12,1.87A53.41,53.41,0,0,0,91.93,182a51.38,51.38,0,0,0-6.13-1.88A52.17,52.17,0,0,0,79.57,178.6Z" style="fill:#263238"></path><path d="M79,180.8a53.35,53.35,0,0,0,6.13,1.87,53,53,0,0,0,6.23,1.51,50.66,50.66,0,0,0-6.13-1.88A51.68,51.68,0,0,0,79,180.8Z" style="fill:#263238"></path><path d="M78.41,183a50.66,50.66,0,0,0,6.13,1.88,51.68,51.68,0,0,0,6.23,1.5,54.15,54.15,0,0,0-6.13-1.87A53,53,0,0,0,78.41,183Z" style="fill:#263238"></path><path d="M77.83,185.19A50.66,50.66,0,0,0,84,187.07a51.68,51.68,0,0,0,6.23,1.5,53.35,53.35,0,0,0-6.13-1.87A53,53,0,0,0,77.83,185.19Z" style="fill:#263238"></path><path d="M72.44,203.58l-2.17-4.85a2.35,2.35,0,0,0-3.34-1.11,1.74,1.74,0,0,0-.84,1.71s-3.51-.91-2.93,2.39c0,0-2.57-.11-2.33,2.24,0,0-3.14-.51-2.73,2.53s4.32,4.41,5.33,4c0,0,1.07-.36.51-2.06,0,0,2.76,3.29,4.32,2.49s.09-2.26.09-2.26,1.07,1,2,.49-.41-3.82-.41-3.82a2.7,2.7,0,0,0,1.88.06C72.66,205,72.44,203.58,72.44,203.58Z" style="fill:#ae7461"></path><path d="M63.94,208.42c-.11.05-.72-1-1.68-2.11a7.71,7.71,0,0,1-1.56-2.23,11,11,0,0,1,1.87,2A5.5,5.5,0,0,1,63.94,208.42Z" style="fill:#6f4439"></path><path d="M63.3,201.59a15.73,15.73,0,0,1,3,3.37,15.74,15.74,0,0,1,2.25,3.9c-.11.06-1.13-1.66-2.58-3.66S63.21,201.67,63.3,201.59Z" style="fill:#6f4439"></path><path d="M70.17,205.67a28.91,28.91,0,0,0-1.66-3.41,26.8,26.8,0,0,0-2.44-2.9A7,7,0,0,1,68.85,202,7.14,7.14,0,0,1,70.17,205.67Z" style="fill:#6f4439"></path><path d="M80.71,203.56l-1.39-1.39a2,2,0,0,0-1.77-.54,19.87,19.87,0,0,0-4.94,1.65c-.72.61-.22,2.12,2.52,2s.28,0,.28,0-5.84,2.63-4.08,7.81l4.52-.34s4.92-6.2,5.25-7.31A2,2,0,0,0,80.71,203.56Z" style="fill:#ae7461"></path><path d="M76.48,205c0,.07-.61.18-1.49.62a7.09,7.09,0,0,0-2.82,2.54,7,7,0,0,0-1,3.66c0,1,.17,1.6.1,1.61a3.28,3.28,0,0,1-.39-1.6,6.55,6.55,0,0,1,4-6.47A3.43,3.43,0,0,1,76.48,205Z" style="fill:#6f4439"></path><path d="M30,179.34c0,.06-3.14,1.41-7.08,3s-7.16,2.85-7.18,2.78,3.14-1.41,7.08-3S30,179.27,30,179.34Z" style="fill:#263238"></path><path d="M30.92,171.77c0,.07-5.21-.37-11.61-1s-11.6-1.15-11.6-1.22,5.21.36,11.62,1S30.93,171.7,30.92,171.77Z" style="fill:#263238"></path><path d="M31.66,164a53.5,53.5,0,0,1-4.23-3.34c-2.29-1.91-4.11-3.49-4.07-3.55s1.94,1.45,4.23,3.35S31.7,164,31.66,164Z" style="fill:#263238"></path><path d="M49.35,156.06a2.41,2.41,0,0,1,.07.37c0,.3.08.66.14,1.09s.12,1,.16,1.73.11,1.44.12,2.29a57.62,57.62,0,0,1-.15,6,61.1,61.1,0,0,1-1,7.25,61.77,61.77,0,0,1-1.94,7.06,59.43,59.43,0,0,1-2.25,5.54c-.35.77-.72,1.45-1,2s-.59,1.11-.83,1.52l-.56.94a1.25,1.25,0,0,1-.22.31,1.82,1.82,0,0,1,.15-.35c.13-.26.29-.59.49-1s.49-.94.77-1.55.64-1.29,1-2.07c.7-1.55,1.43-3.42,2.16-5.54a70.9,70.9,0,0,0,1.9-7,67.3,67.3,0,0,0,1.06-7.19c.18-2.23.25-4.25.23-6,0-.84,0-1.61-.06-2.28s-.05-1.25-.09-1.73,0-.79-.06-1.09S49.33,156.06,49.35,156.06Z" style="fill:#263238"></path><path d="M77.62,219.5l.93,4.21,2.5,13.86,14.08-10s3.75-5,7.07-9c2.37-2.87,6.55-2.54,6.55-2.54l-6.07,32.06s-17.4,9-21.4,10-12.86,4.55-13.85-5.43-2.57-30.3-2.57-30.3Z" style="fill:#e0e0e0"></path><path d="M159.21,214.53l-13.54-2.75-2.58-6.52-16.27,8.53-5.23-4.37L120,214.23,106.65,216l-4,27v19.44l-.65,30.8a7.93,7.93,0,0,0,1.65,5l1.78,2.3,17.23,3.19a24.16,24.16,0,0,0,6.29-.29L161.5,296h0c2-5.68.17-7.82-.61-13.78l.09-35.64Z" style="fill:#e0e0e0"></path><polygon points="123.32 220.5 125.57 224.14 128.66 223.86 130.34 220.56 128.23 216.73 125.75 216.73 123.32 220.5" style="fill:#4945FF"></polygon><polygon points="125.57 223.37 117.05 289.92 122.65 301.54 132.12 289.29 128.78 223.37 125.57 223.37" style="fill:#4945FF"></polygon><path d="M103.43,223.76a10.15,10.15,0,0,1,0,1.58c0,1.11-.06,2.56-.1,4.31-.09,3.64-.2,8.67-.22,14.22s0,10.59.08,14.23c0,1.75,0,3.2.06,4.31a9.72,9.72,0,0,1,0,1.58,8.67,8.67,0,0,1-.16-1.57c-.08-1-.15-2.49-.23-4.31-.15-3.64-.26-8.68-.23-14.24s.19-10.59.37-14.23c.1-1.82.19-3.29.27-4.31A8.55,8.55,0,0,1,103.43,223.76Z" style="fill:#263238"></path><path d="M145.55,212.13a3.91,3.91,0,0,1-.82.67c-.54.4-1.34,1-2.34,1.65-2,1.38-4.76,3.25-7.83,5.3L131,222.12l-.25.17-.11-.28c-1-2.41-2.15-4.38-2.82-5.84a11.14,11.14,0,0,1-1-2.38A24.49,24.49,0,0,1,128,216c.74,1.41,1.93,3.35,3,5.79l-.36-.11,3.59-2.4c3.07-2,5.88-3.87,7.92-5.17,1-.64,1.85-1.16,2.43-1.51A4.14,4.14,0,0,1,145.55,212.13Z" style="fill:#263238"></path><path d="M126.82,213.79a6.62,6.62,0,0,1-.69,2.21,29.59,29.59,0,0,1-2.74,4.86l-.26.38-.28.4-.18-.45c-.76-1.91-1.5-3.6-2-4.82a10.66,10.66,0,0,1-.82-2,8.1,8.1,0,0,1,1.14,1.84,49,49,0,0,1,2.2,4.78l-.45-.06.26-.37a43.49,43.49,0,0,0,2.83-4.73C126.44,214.59,126.75,213.77,126.82,213.79Z" style="fill:#263238"></path><path d="M155.27,246.53s37.62-38.44,39.74-43.88,2.19-39.83,1.47-44.25l-13.85,4.07-3.52,31.78-27,23.48Z" style="fill:#e0e0e0"></path><path d="M193,148.19c0-.29-.26-3.66-1.2-4.35a2.36,2.36,0,0,0-2.18-.12,3.85,3.85,0,0,0-2.1-1.36,4.11,4.11,0,0,0-2.43.69L184,142.7a2.22,2.22,0,0,0-2.3.26,4.09,4.09,0,0,1-2,1.46c-1.19.31-1.75,4-2.14,5.79s-.94,4.17,1.26,6.06a72.75,72.75,0,0,0,7.24,5.2l10-1.76s1-1.56.17-5.08A17.89,17.89,0,0,0,193,148.19Z" style="fill:#ae7461"></path><path d="M189.61,143.72a9.51,9.51,0,0,0-.13,2c0,1.23,0,2.94,0,4.81,0,.24,0,.47,0,.7a2,2,0,0,0,0,.21.55.55,0,0,0,.13.24.72.72,0,0,0,.38.22,2.85,2.85,0,0,0,1.37,0,1.71,1.71,0,0,0,1-.69,2.87,2.87,0,0,0,.45-1,5.37,5.37,0,0,0,.19-1.47c0-.35,0-.54-.07-.54s0,.78-.4,1.92a1.85,1.85,0,0,1-1.29,1.36,2.73,2.73,0,0,1-1.17,0,.36.36,0,0,1-.19-.11s0,0,0-.18,0-.46,0-.7c0-1.87-.07-3.57-.12-4.8A9.18,9.18,0,0,0,189.61,143.72Z" style="fill:#6f4439"></path><path d="M185.08,143.05a6.34,6.34,0,0,0,.12,1.67c.13,1,.33,2.45.58,4v.14a4.55,4.55,0,0,0,.62,2.29,2,2,0,0,0,1.72.94,2.42,2.42,0,0,0,1.24-.43c.25-.17.36-.3.34-.33s-.16.07-.42.19a2.68,2.68,0,0,1-1.16.27,1.7,1.7,0,0,1-1.4-.84,4.59,4.59,0,0,1-.52-2.1v-.2c-.26-1.57-.51-3-.71-4A7,7,0,0,0,185.08,143.05Z" style="fill:#6f4439"></path><path d="M181.7,143a14.12,14.12,0,0,0,.86,2.35v-.06c0,1.34-.08,3.15-.09,5.13,0,.44,0,.87,0,1.28v.09l.06.06a3.84,3.84,0,0,0,1.16.75,1.92,1.92,0,0,0,1.31.09,1.39,1.39,0,0,0,.88-.79,3.31,3.31,0,0,0,.24-1,5.14,5.14,0,0,0,0-1.36c0-.31-.09-.48-.12-.48s.05.7-.11,1.8c-.09.52-.29,1.27-1,1.43a2.35,2.35,0,0,1-2.07-.78l.06.15c0-.42,0-.85,0-1.29,0-2,0-3.79,0-5.13v-.07A14.72,14.72,0,0,0,181.7,143Z" style="fill:#6f4439"></path><path d="M186.06,161.47s-7.13-5-7.24-5.2-1-8-.16-9.74,2-3.89,2-3.89,2-.22,2.08,2.86-.05,6.27-.05,6.27l2.42,1.74s6.61-.57,8.35,5.3" style="fill:#ae7461"></path><path d="M193.44,158.81a4.2,4.2,0,0,0-.22-.74,4.08,4.08,0,0,0-.37-.84,7.18,7.18,0,0,0-.68-1.07,7.29,7.29,0,0,0-2.72-2,9.93,9.93,0,0,0-4.37-.79l.12,0-2.42-1.74.08.16c.06-1.48.1-3.06.09-4.71a17.09,17.09,0,0,0-.13-2.54,3.26,3.26,0,0,0-.52-1.27,2,2,0,0,0-1.19-.78,1.67,1.67,0,0,0-.5,0h-.11l-.05.1-1.07,2.12c-.18.35-.35.7-.53,1a6.83,6.83,0,0,0-.48,1.06,9.85,9.85,0,0,0-.24,2.25c0,.73,0,1.44,0,2.14.06,1.38.17,2.69.31,3.91l.12.91,0,.23a1,1,0,0,0,0,.14l.11.12.35.28,1.33,1c1.71,1.2,3.1,2.15,4.07,2.8l1.12.73a2.62,2.62,0,0,0,.4.24s-.11-.12-.35-.3l-1.08-.8-4-2.91-1.3-1-.32-.26,0,0h0l-.08,0c.1,0,.07,0,.07,0v-.06l0-.2-.1-.89c-.13-1.22-.22-2.53-.28-3.9,0-.69,0-1.39,0-2.11a9,9,0,0,1,.23-2.14,6,6,0,0,1,.47-1l.52-1,1.07-2.1-.16.1a1.65,1.65,0,0,1,.36,0,2,2,0,0,1,1.39,1.72,16.89,16.89,0,0,1,.13,2.47c0,1.64,0,3.21-.06,4.68v.11l.09.06,2.43,1.72,0,0h.07a9.91,9.91,0,0,1,4.23.7,7.35,7.35,0,0,1,2.67,1.91A11.2,11.2,0,0,1,193.44,158.81Z" style="fill:#6f4439"></path><path d="M157.72,241.61s-.2-.2-.47-.62a12.65,12.65,0,0,1-1-1.87,18.76,18.76,0,0,1-.58-13.77,13,13,0,0,1,.85-1.95,2.48,2.48,0,0,1,.42-.66c.08,0-.41,1-.92,2.73a20.69,20.69,0,0,0,.57,13.51C157.22,240.62,157.8,241.57,157.72,241.61Z" style="fill:#263238"></path></g></svg>
