<svg width="20" height="20" viewBox="0 0 20 20" fill="none" xmlns="http://www.w3.org/2000/svg">
<path fill-rule="evenodd" clip-rule="evenodd" d="M1.87256 9.32272C1.87256 5.20764 5.20849 1.8717 9.32357 1.8717C13.4386 1.8717 16.7746 5.20763 16.7746 9.32271C16.7746 13.4378 13.4386 16.7737 9.32357 16.7737C5.20849 16.7737 1.87256 13.4378 1.87256 9.32272ZM5.25866 10.6773C6.00686 10.6773 6.61339 10.0707 6.61339 9.32254C6.61339 8.57435 6.00686 7.96781 5.25866 7.96781C4.51046 7.96781 3.90393 8.57435 3.90393 9.32254C3.90393 10.0707 4.51046 10.6773 5.25866 10.6773ZM10.6786 9.32261C10.6786 10.0708 10.0721 10.6773 9.3239 10.6773C8.5757 10.6773 7.96917 10.0708 7.96917 9.32261C7.96917 8.57442 8.5757 7.96788 9.3239 7.96788C10.0721 7.96788 10.6786 8.57442 10.6786 9.32261ZM13.3878 10.6773C14.136 10.6773 14.7425 10.0708 14.7425 9.32261C14.7425 8.57442 14.136 7.96788 13.3878 7.96788C12.6396 7.96788 12.0331 8.57442 12.0331 9.32261C12.0331 10.0708 12.6396 10.6773 13.3878 10.6773Z" fill="#D4B2FF"/>
<path fill-rule="evenodd" clip-rule="evenodd" d="M9.3667 18.1285L18.1251 18.1285L18.1251 9.41089C18.0781 14.218 14.1791 18.1034 9.3667 18.1285Z" fill="#DADAFF"/>
</svg>