<svg xmlns="http://www.w3.org/2000/svg" xmlns:xlink="http://www.w3.org/1999/xlink" viewBox="0 0 20 20"><defs><linearGradient id="a"><stop offset="0" stop-color="#000092"/><stop offset="1" stop-color="#ff00f3"/></linearGradient><linearGradient id="b" x1="2.477" x2="16" y1="9.5" y2="9.5" gradientUnits="userSpaceOnUse" xlink:href="#a"/></defs><path style="line-height:normal;text-indent:0;text-align:start;text-decoration-line:none;text-decoration-style:solid;text-decoration-color:#000;text-transform:none;block-progression:tb;isolation:auto;mix-blend-mode:normal" fill="url(#b)" d="M11 2.5c-.261 0-.528.095-.717.283A1.018 1.018 0 0 0 10 3.5V8c0 .261.095.528.283.717.189.188.456.283.717.283h4.5c.261 0 .528-.095.717-.283.188-.189.283-.456.283-.717V3.5c0-.261-.095-.528-.283-.717A1.018 1.018 0 0 0 15.5 2.5H11zm-5.262.074c-.316 0-.647.14-.853.45l-.018.025-2.33 4.66-.012.033a.954.954 0 0 0 .143.877c.191.246.507.381.832.381h4.6a.89.89 0 0 0 .775-.445c.154-.278.127-.654-.059-.932l.032.053-2.301-4.6.027.067c-.129-.388-.52-.569-.836-.569zM11 3.5h4.5V8H11V3.5zm-5.3.12L7.89 8H3.51L5.7 3.62zm.1 6.28a3.307 3.307 0 0 0-3.3 3.3c0 1.816 1.484 3.3 3.3 3.3a3.307 3.307 0 0 0 3.3-3.3 3.306 3.306 0 0 0-3.3-3.3zm5.15.55c-.126 0-.25.05-.35.15-.2.2-.2.5 0 .7l1.9 1.9-2 2c-.2.2-.2.5 0 .7.2.1.3.1.4.1.1 0 .2 0 .3-.1l2-2 2 2c.1.1.2.1.3.1.2 0 .3 0 .4-.1.2-.2.2-.5 0-.7l-2-2 1.9-1.9c.2-.2.2-.5 0-.7-.2-.2-.5-.2-.7 0l-1.9 1.9-1.9-1.9a.498.498 0 0 0-.35-.15zm-5.15.45a2.29 2.29 0 0 1 2.3 2.3c0 1.275-1.023 2.3-2.3 2.3a2.294 2.294 0 0 1-2.3-2.3 2.292 2.292 0 0 1 2.3-2.3z" color="#000" font-family="sans-serif" font-weight="400" overflow="visible"/></svg>