<svg xmlns="http://www.w3.org/2000/svg" width="32" height="32"><path fill="#fbfdfe" d="M6.312 2.238h15.61l4.531 4.52v21.486c0 .834-.673 1.506-1.51 1.506H6.821c-.836 0-1.51-.672-1.51-1.506V3.828c0-.834.175-1.455 1-1.59z"/><path fill="none" stroke="#105286" stroke-linecap="round" stroke-linejoin="round" d="M5.311 10.728V3.757c0-.835.674-1.507 1.51-1.507h15.337l4.53 4.52v21.474c0 .834-.673 1.506-1.51 1.506H6.822c-.836 0-1.51-.672-1.51-1.506V13.31"/><path fill="#105286" stroke="#105286" stroke-linecap="round" stroke-linejoin="round" d="m22.158 2.25 4.53 4.52h-3.02c-1.51 0-1.51-1.49-1.51-1.49z"/><path fill="#2dbca4" d="M11.819 19.243a6 6 0 0 1-.354-8.1 6 6 0 0 1 8.038-1.058A6 6 0 0 1 21.258 18l-5.196-3z"/><path fill="#ee7581" d="M22.062 15a6 6 0 0 1-3.704 5.544 6 6 0 0 1-6.54-1.301L16.063 15z"/><path fill="#105286" d="M22.062 15a6 6 0 0 1-1.758 4.243L16.062 15z"/><path fill="#406b95" d="M12.061 4h-3v1h3zM12.062 6h-3v1h3z"/><path fill="#2dbca4" d="M8.062 4h-1v1h1z"/><path fill="#ee7581" d="M8.062 6h-1v1h1z"/><path fill="#406b95" d="M12.062 8h-3v1h3z"/><path fill="#105286" d="M8.062 8h-1v1h1z"/><path fill="#406b95" d="M7.062 22h5v1h-5zM7.062 24h18v1h-18zM7.062 26h18v1h-18z"/></svg>