<svg width="400" height="400" viewBox="0 0 400 400" fill="none" xmlns="http://www.w3.org/2000/svg">
<rect width="400" height="400" fill="#FAE7B9"/>
<path d="M177.495 195C181.637 195 184.995 191.642 184.995 187.5C184.995 183.358 181.637 180 177.495 180C173.353 180 169.995 183.358 169.995 187.5C169.995 191.642 173.353 195 177.495 195Z" fill="#BE5D01"/>
<path d="M192.495 210L184.995 200L169.995 220H229.995L207.495 190L192.495 210Z" fill="#BE5D01"/>
<path d="M239.995 160H159.995C154.48 160 149.995 164.485 149.995 170V230C149.995 235.515 154.48 240 159.995 240H239.995C245.51 240 249.995 235.515 249.995 230V170C249.995 164.485 245.51 160 239.995 160ZM159.995 230V170H239.995L240.005 230H159.995Z" fill="#BE5D01"/>
</svg>
