<svg width="200" height="186" viewBox="0 0 200 186" fill="none" xmlns="http://www.w3.org/2000/svg">
<path d="M0.160504 186.001V42.082L144.698 186.001H0.160504Z" fill="url(#paint0_linear_146_2020)"/>
<path d="M117.997 100.279C118.818 99.4571 120.148 99.4571 120.968 100.279C121.789 101.1 121.789 102.433 120.968 103.254C120.148 104.076 118.818 104.076 117.997 103.254C117.177 102.433 117.177 101.1 117.997 100.279Z" fill="#956FFF"/>
<path d="M125.721 92.5424C126.541 91.7208 127.872 91.7208 128.692 92.5424C129.512 93.3641 129.512 94.6964 128.692 95.5181C127.872 96.3397 126.541 96.3397 125.721 95.5181C124.901 94.6964 124.901 93.3641 125.721 92.5424Z" fill="#956FFF"/>
<path d="M133.446 84.8042C134.266 83.9825 135.596 83.9825 136.417 84.8042C137.237 85.6259 137.237 86.9581 136.417 87.7798C135.596 88.6015 134.266 88.6015 133.446 87.7798C132.625 86.9581 132.625 85.6259 133.446 84.8042Z" fill="#956FFF"/>
<path d="M141.171 77.0678C141.991 76.2461 143.321 76.2461 144.142 77.0678C144.962 77.8895 144.962 79.2218 144.142 80.0434C143.321 80.8651 141.991 80.8651 141.171 80.0434C140.35 79.2218 140.35 77.8895 141.171 77.0678Z" fill="#956FFF"/>
<path d="M148.896 69.3315C149.716 68.5098 151.046 68.5098 151.867 69.3315C152.687 70.1532 152.687 71.4854 151.867 72.3071C151.046 73.1288 149.716 73.1288 148.896 72.3071C148.075 71.4854 148.075 70.1532 148.896 69.3315Z" fill="#956FFF"/>
<path d="M156.621 61.5952C157.441 60.7735 158.771 60.7735 159.592 61.5952C160.412 62.4169 160.412 63.7491 159.592 64.5708C158.771 65.3925 157.441 65.3925 156.621 64.5708C155.8 63.7491 155.8 62.4169 156.621 61.5952Z" fill="#956FFF"/>
<path d="M164.345 53.8589C165.166 53.0372 166.496 53.0372 167.316 53.8589C168.137 54.6805 168.137 56.0128 167.316 56.8345C166.496 57.6562 165.166 57.6562 164.345 56.8345C163.525 56.0128 163.525 54.6805 164.345 53.8589Z" fill="#956FFF"/>
<path d="M172.07 46.1225C172.89 45.3008 174.22 45.3008 175.041 46.1225C175.861 46.9442 175.861 48.2764 175.041 49.0981C174.22 49.9198 172.89 49.9198 172.07 49.0981C171.249 48.2764 171.249 46.9442 172.07 46.1225Z" fill="#956FFF"/>
<path d="M179.795 38.3862C180.615 37.5645 181.945 37.5645 182.766 38.3862C183.586 39.2079 183.586 40.5401 182.766 41.3618C181.945 42.1835 180.615 42.1835 179.795 41.3618C178.974 40.5401 178.974 39.2079 179.795 38.3862Z" fill="#956FFF"/>
<path d="M187.519 30.6499C188.339 29.8282 189.669 29.8282 190.49 30.6499C191.31 31.4716 191.31 32.8038 190.49 33.6255C189.669 34.4472 188.339 34.4472 187.519 33.6255C186.698 32.8038 186.698 31.4716 187.519 30.6499Z" fill="#956FFF"/>
<path d="M195.243 22.9116C196.063 22.0899 197.393 22.0899 198.214 22.9116C199.034 23.7333 199.034 25.0655 198.214 25.8872C197.393 26.7089 196.063 26.7089 195.243 25.8872C194.422 25.0655 194.422 23.7333 195.243 22.9116Z" fill="#956FFF"/>
<path d="M110.866 93.1362C111.686 92.3145 113.016 92.3145 113.837 93.1362C114.657 93.9579 114.657 95.2901 113.837 96.1118C113.016 96.9335 111.686 96.9335 110.866 96.1118C110.045 95.2901 110.045 93.9579 110.866 93.1362Z" fill="#956FFF"/>
<path d="M118.591 85.3999C119.411 84.5782 120.742 84.5782 121.562 85.3999C122.382 86.2216 122.382 87.5538 121.562 88.3755C120.742 89.1972 119.411 89.1972 118.591 88.3755C117.771 87.5538 117.771 86.2216 118.591 85.3999Z" fill="#956FFF"/>
<path d="M126.315 77.6635C127.136 76.8419 128.466 76.8419 129.286 77.6635C130.107 78.4852 130.107 79.8175 129.286 80.6391C128.466 81.4608 127.136 81.4608 126.315 80.6391C125.495 79.8175 125.495 78.4852 126.315 77.6635Z" fill="#956FFF"/>
<path d="M134.04 69.9272C134.86 69.1055 136.19 69.1055 137.011 69.9272C137.831 70.7489 137.831 72.0811 137.011 72.9028C136.19 73.7245 134.86 73.7245 134.04 72.9028C133.219 72.0811 133.219 70.7489 134.04 69.9272Z" fill="#956FFF"/>
<path d="M141.765 62.1909C142.585 61.3692 143.916 61.3692 144.736 62.1909C145.556 63.0126 145.556 64.3448 144.736 65.1665C143.916 65.9882 142.585 65.9882 141.765 65.1665C140.944 64.3448 140.944 63.0126 141.765 62.1909Z" fill="#956FFF"/>
<path d="M149.489 54.4526C150.31 53.6309 151.64 53.6309 152.46 54.4526C153.281 55.2743 153.281 56.6065 152.46 57.4282C151.64 58.2499 150.31 58.2499 149.489 57.4282C148.669 56.6065 148.669 55.2743 149.489 54.4526Z" fill="#956FFF"/>
<path d="M157.214 46.7163C158.035 45.8946 159.365 45.8946 160.185 46.7163C161.006 47.538 161.006 48.8702 160.185 49.6919C159.365 50.5136 158.035 50.5136 157.214 49.6919C156.394 48.8702 156.394 47.538 157.214 46.7163Z" fill="#956FFF"/>
<path d="M164.939 38.9799C165.759 38.1583 167.09 38.1583 167.91 38.9799C168.73 39.8016 168.73 41.1339 167.91 41.9556C167.09 42.7772 165.759 42.7772 164.939 41.9556C164.118 41.1339 164.118 39.8016 164.939 38.9799Z" fill="#956FFF"/>
<path d="M103.736 85.9956C104.556 85.1739 105.886 85.1739 106.707 85.9956C107.527 86.8173 107.527 88.1495 106.707 88.9712C105.886 89.7929 104.556 89.7929 103.736 88.9712C102.915 88.1495 102.915 86.8173 103.736 85.9956Z" fill="#956FFF"/>
<path d="M111.46 78.2592C112.28 77.4376 113.611 77.4376 114.431 78.2592C115.251 79.0809 115.251 80.4132 114.431 81.2349C113.611 82.0565 112.28 82.0565 111.46 81.2349C110.639 80.4132 110.639 79.0809 111.46 78.2592Z" fill="#956FFF"/>
<path d="M119.185 70.5229C120.005 69.7012 121.336 69.7012 122.156 70.5229C122.976 71.3446 122.976 72.6768 122.156 73.4985C121.336 74.3202 120.005 74.3202 119.185 73.4985C118.365 72.6768 118.365 71.3446 119.185 70.5229Z" fill="#956FFF"/>
<path d="M126.909 62.7846C127.73 61.9629 129.06 61.9629 129.88 62.7846C130.701 63.6063 130.701 64.9386 129.88 65.7602C129.06 66.5819 127.73 66.5819 126.909 65.7602C126.089 64.9386 126.089 63.6063 126.909 62.7846Z" fill="#956FFF"/>
<path d="M134.635 55.0503C135.455 54.2286 136.785 54.2286 137.606 55.0503C138.426 55.872 138.426 57.2042 137.606 58.0259C136.785 58.8476 135.455 58.8476 134.635 58.0259C133.814 57.2042 133.814 55.872 134.635 55.0503Z" fill="#956FFF"/>
<path d="M96.605 78.853C97.4255 78.0313 98.7557 78.0313 99.5761 78.853C100.397 79.6747 100.397 81.0069 99.5761 81.8286C98.7557 82.6503 97.4255 82.6503 96.605 81.8286C95.7846 81.0069 95.7846 79.6747 96.605 78.853Z" fill="#956FFF"/>
<path d="M104.329 71.1167C105.15 70.295 106.48 70.295 107.3 71.1167C108.121 71.9384 108.121 73.2706 107.3 74.0923C106.48 74.914 105.15 74.914 104.329 74.0923C103.509 73.2706 103.509 71.9384 104.329 71.1167Z" fill="#956FFF"/>
<path d="M112.054 63.3803C112.874 62.5586 114.204 62.5586 115.025 63.3803C115.845 64.202 115.845 65.5343 115.025 66.3559C114.204 67.1776 112.874 67.1776 112.054 66.3559C111.233 65.5343 111.233 64.202 112.054 63.3803Z" fill="#956FFF"/>
<defs>
<linearGradient id="paint0_linear_146_2020" x1="78.5462" y1="42.0433" x2="-21.3512" y2="243.149" gradientUnits="userSpaceOnUse">
<stop stop-color="#956FFF"/>
<stop offset="1" stop-color="#1A2670"/>
</linearGradient>
</defs>
</svg>
