<svg width="135" height="42" viewBox="0 0 135 42" fill="none" xmlns="http://www.w3.org/2000/svg">
<g clip-path="url(#clip0_146_1853)">
<path d="M2.50515 5.01031C3.88871 5.01031 5.01031 3.88871 5.01031 2.50515C5.01031 1.1216 3.88871 0 2.50515 0C1.1216 0 0 1.1216 0 2.50515C0 3.88871 1.1216 5.01031 2.50515 5.01031Z" fill="#956FFF"/>
<path d="M15.4485 5.01031C16.832 5.01031 17.9536 3.88871 17.9536 2.50515C17.9536 1.1216 16.832 0 15.4485 0C14.0649 0 12.9433 1.1216 12.9433 2.50515C12.9433 3.88871 14.0649 5.01031 15.4485 5.01031Z" fill="#956FFF"/>
<path d="M28.5309 5.01031C29.9145 5.01031 31.0361 3.88871 31.0361 2.50515C31.0361 1.1216 29.9145 0 28.5309 0C27.1474 0 26.0258 1.1216 26.0258 2.50515C26.0258 3.88871 27.1474 5.01031 28.5309 5.01031Z" fill="#956FFF"/>
<path d="M41.4742 5.01031C42.8578 5.01031 43.9794 3.88871 43.9794 2.50515C43.9794 1.1216 42.8578 0 41.4742 0C40.0907 0 38.9691 1.1216 38.9691 2.50515C38.9691 3.88871 40.0907 5.01031 41.4742 5.01031Z" fill="#956FFF"/>
<path d="M54.5567 5.01031C55.9403 5.01031 57.0619 3.88871 57.0619 2.50515C57.0619 1.1216 55.9403 0 54.5567 0C53.1731 0 52.0516 1.1216 52.0516 2.50515C52.0516 3.88871 53.1731 5.01031 54.5567 5.01031Z" fill="#956FFF"/>
<path d="M67.5 5.01031C68.8836 5.01031 70.0051 3.88871 70.0051 2.50515C70.0051 1.1216 68.8836 0 67.5 0C66.1164 0 64.9948 1.1216 64.9948 2.50515C64.9948 3.88871 66.1164 5.01031 67.5 5.01031Z" fill="#956FFF"/>
<path d="M80.4433 5.01031C81.8269 5.01031 82.9484 3.88871 82.9484 2.50515C82.9484 1.1216 81.8269 0 80.4433 0C79.0597 0 77.9381 1.1216 77.9381 2.50515C77.9381 3.88871 79.0597 5.01031 80.4433 5.01031Z" fill="#956FFF"/>
<path d="M93.5258 5.01031C94.9093 5.01031 96.0309 3.88871 96.0309 2.50515C96.0309 1.1216 94.9093 0 93.5258 0C92.1422 0 91.0206 1.1216 91.0206 2.50515C91.0206 3.88871 92.1422 5.01031 93.5258 5.01031Z" fill="#956FFF"/>
<path d="M106.469 5.01031C107.853 5.01031 108.974 3.88871 108.974 2.50515C108.974 1.1216 107.853 0 106.469 0C105.086 0 103.964 1.1216 103.964 2.50515C103.964 3.88871 105.086 5.01031 106.469 5.01031Z" fill="#956FFF"/>
<path d="M119.552 5.01031C120.935 5.01031 122.057 3.88871 122.057 2.50515C122.057 1.1216 120.935 0 119.552 0C118.168 0 117.046 1.1216 117.046 2.50515C117.046 3.88871 118.168 5.01031 119.552 5.01031Z" fill="#956FFF"/>
<path d="M132.495 5.01031C133.878 5.01031 135 3.88871 135 2.50515C135 1.1216 133.878 0 132.495 0C131.111 0 129.99 1.1216 129.99 2.50515C129.99 3.88871 131.111 5.01031 132.495 5.01031Z" fill="#956FFF"/>
<path d="M2.50515 16.9791C3.88871 16.9791 5.01031 15.8575 5.01031 14.4739C5.01031 13.0903 3.88871 11.9688 2.50515 11.9688C1.1216 11.9688 0 13.0903 0 14.4739C0 15.8575 1.1216 16.9791 2.50515 16.9791Z" fill="#956FFF"/>
<path d="M15.4485 16.9791C16.832 16.9791 17.9536 15.8575 17.9536 14.4739C17.9536 13.0903 16.832 11.9688 15.4485 11.9688C14.0649 11.9688 12.9433 13.0903 12.9433 14.4739C12.9433 15.8575 14.0649 16.9791 15.4485 16.9791Z" fill="#956FFF"/>
<path d="M28.5309 16.9791C29.9145 16.9791 31.0361 15.8575 31.0361 14.4739C31.0361 13.0903 29.9145 11.9688 28.5309 11.9688C27.1474 11.9688 26.0258 13.0903 26.0258 14.4739C26.0258 15.8575 27.1474 16.9791 28.5309 16.9791Z" fill="#956FFF"/>
<path d="M41.4742 16.9791C42.8578 16.9791 43.9794 15.8575 43.9794 14.4739C43.9794 13.0903 42.8578 11.9688 41.4742 11.9688C40.0907 11.9688 38.9691 13.0903 38.9691 14.4739C38.9691 15.8575 40.0907 16.9791 41.4742 16.9791Z" fill="#956FFF"/>
<path d="M54.5567 16.9791C55.9403 16.9791 57.0619 15.8575 57.0619 14.4739C57.0619 13.0903 55.9403 11.9688 54.5567 11.9688C53.1731 11.9688 52.0516 13.0903 52.0516 14.4739C52.0516 15.8575 53.1731 16.9791 54.5567 16.9791Z" fill="#956FFF"/>
<path d="M67.5 16.9791C68.8836 16.9791 70.0051 15.8575 70.0051 14.4739C70.0051 13.0903 68.8836 11.9688 67.5 11.9688C66.1164 11.9688 64.9948 13.0903 64.9948 14.4739C64.9948 15.8575 66.1164 16.9791 67.5 16.9791Z" fill="#956FFF"/>
<path d="M80.4433 16.9791C81.8269 16.9791 82.9484 15.8575 82.9484 14.4739C82.9484 13.0903 81.8269 11.9688 80.4433 11.9688C79.0597 11.9688 77.9381 13.0903 77.9381 14.4739C77.9381 15.8575 79.0597 16.9791 80.4433 16.9791Z" fill="#956FFF"/>
<path d="M93.5258 16.9791C94.9093 16.9791 96.0309 15.8575 96.0309 14.4739C96.0309 13.0903 94.9093 11.9688 93.5258 11.9688C92.1422 11.9688 91.0206 13.0903 91.0206 14.4739C91.0206 15.8575 92.1422 16.9791 93.5258 16.9791Z" fill="#956FFF"/>
<path d="M2.50515 28.9488C3.88871 28.9488 5.01031 27.8272 5.01031 26.4436C5.01031 25.0601 3.88871 23.9385 2.50515 23.9385C1.1216 23.9385 0 25.0601 0 26.4436C0 27.8272 1.1216 28.9488 2.50515 28.9488Z" fill="#956FFF"/>
<path d="M15.4485 28.9488C16.832 28.9488 17.9536 27.8272 17.9536 26.4436C17.9536 25.0601 16.832 23.9385 15.4485 23.9385C14.0649 23.9385 12.9433 25.0601 12.9433 26.4436C12.9433 27.8272 14.0649 28.9488 15.4485 28.9488Z" fill="#956FFF"/>
<path d="M28.5309 28.9488C29.9145 28.9488 31.0361 27.8272 31.0361 26.4436C31.0361 25.0601 29.9145 23.9385 28.5309 23.9385C27.1474 23.9385 26.0258 25.0601 26.0258 26.4436C26.0258 27.8272 27.1474 28.9488 28.5309 28.9488Z" fill="#956FFF"/>
<path d="M41.4742 28.9488C42.8578 28.9488 43.9794 27.8272 43.9794 26.4436C43.9794 25.0601 42.8578 23.9385 41.4742 23.9385C40.0907 23.9385 38.9691 25.0601 38.9691 26.4436C38.9691 27.8272 40.0907 28.9488 41.4742 28.9488Z" fill="#956FFF"/>
<path d="M54.5567 28.9488C55.9403 28.9488 57.0619 27.8272 57.0619 26.4436C57.0619 25.0601 55.9403 23.9385 54.5567 23.9385C53.1731 23.9385 52.0516 25.0601 52.0516 26.4436C52.0516 27.8272 53.1731 28.9488 54.5567 28.9488Z" fill="#956FFF"/>
<path d="M2.50515 41.0572C3.88871 41.0572 5.01031 39.9356 5.01031 38.552C5.01031 37.1685 3.88871 36.0469 2.50515 36.0469C1.1216 36.0469 0 37.1685 0 38.552C0 39.9356 1.1216 41.0572 2.50515 41.0572Z" fill="#956FFF"/>
<path d="M15.4485 41.0572C16.832 41.0572 17.9536 39.9356 17.9536 38.552C17.9536 37.1685 16.832 36.0469 15.4485 36.0469C14.0649 36.0469 12.9433 37.1685 12.9433 38.552C12.9433 39.9356 14.0649 41.0572 15.4485 41.0572Z" fill="#956FFF"/>
<path d="M28.5309 41.0572C29.9145 41.0572 31.0361 39.9356 31.0361 38.552C31.0361 37.1685 29.9145 36.0469 28.5309 36.0469C27.1474 36.0469 26.0258 37.1685 26.0258 38.552C26.0258 39.9356 27.1474 41.0572 28.5309 41.0572Z" fill="#956FFF"/>
</g>
<defs>
<clipPath id="clip0_146_1853">
<rect width="135" height="41.7526" fill="white"/>
</clipPath>
</defs>
</svg>
