<svg xmlns="http://www.w3.org/2000/svg" xmlns:xlink="http://www.w3.org/1999/xlink" width="48" height="48"><defs><linearGradient id="b" x1="1073.403" x2="1097.116" y1="516.451" y2="544.308" gradientTransform="translate(-1643.872 211.343) scale(1.53785)" gradientUnits="userSpaceOnUse" xlink:href="#a"/><linearGradient id="a"><stop offset="0" stop-color="#16ff6a"/><stop offset="1" stop-color="#0090a5"/></linearGradient></defs><g transform="translate(0 -1004.362)"><rect width="48" height="48" y="1004.362" fill="url(#b)" rx="10.144" ry="10.144"/><path style="line-height:normal;text-indent:0;text-align:start;text-decoration-line:none;text-transform:none;block-progression:tb" fill="#fff" d="M10 1012.362v30h30v-1h-3v-20.092c.579-.208 1-.759 1-1.406 0-.356-.132-.683-.344-.941l.617-.826.079.73.994-.107-.266-2.485-2.486.266.107.994.838-.09-.734.988a1.508 1.508 0 0 0-1.805 1.469c0 .255.071.492.186.703l-5.137 6.905a1.478 1.478 0 0 0-.549-.108c-.425 0-.81.182-1.084.471l-4.469-2.604c.031-.118.053-.239.053-.367 0-.822-.677-1.5-1.5-1.5s-1.5.678-1.5 1.5c0 .327.11.628.291.875l-5.367 7.694a1.454 1.454 0 0 0-.424-.068c-.823 0-1.5.677-1.5 1.5 0 .333.115.64.303.89L11 1040.485v-28.123zm13.861 2.994-.037.996.5.016.836.031.117.014.496.062.125-.992-.496-.062-.144-.018h-.045l-.854-.03zm-1.088.106-.494.07-.334.049h-.023l-.022.01-.644.156-.486.117.234.973.486-.12.631-.15.303-.045.494-.072zm4.207.18-.3.953.476.15.955.3.477.151.3-.953-.476-.15-.955-.301zm-7.242.582-.457.205-.55.248-.022.01-.02.012-.343.195-.436.248.496.87.434-.249.326-.185.527-.237.455-.205zm10.125.511-.467.885.442.234.129.066.678.442.418.273.546-.838-.418-.273-.7-.457-.02-.012-.022-.012-.142-.076zm-12.879.992-.38.323-.721.615-.018.016-.017.016-.036.039-.35.357.718.698.35-.36h.001l.01-.01.711-.607.38-.324zm15.457.786-.693.72.361.346.278.264.008.01.365.424.326.378.758-.654-.326-.377-.373-.433-.016-.02-.018-.015-.31-.297zm-17.673 1.36-.315.39-.07.088-.014.018-.014.02-.49.738-.277.416.832.555.277-.416.48-.723.055-.068.315-.389zm21.16 1.376c.023.01.048.013.072.022v20.092h-6v-11.092c.579-.209 1-.76 1-1.406 0-.265-.077-.512-.2-.729zm-22.813 1.277-.197.461-.121.28-.008.02-.008.02-.215.663-.156.474.951.31.155-.474.207-.635.113-.263.197-.461zm-.93 2.983-.068.498-.064.476-.004.02v.023l-.026.518-.021.5.998.047.023-.5.022-.496.062-.455.069-.494zm11.204.554 4.623 2.694c-.003.036-.012.07-.012.107 0 .647.421 1.198 1 1.406v11.092h-6v-15.094a1.53 1.53 0 0 0 .389-.205zm-1.389.405v14.894h-6v-5.092c.579-.208 1-.759 1-1.406 0-.313-.099-.608-.266-.85zm-8.973 2.029-.992.14.069.495.093.683.004.022.006.023.07.301.114.486.974-.226-.115-.486-.06-.258-.003-.01-.093-.676zm.567 2.805-.914.406.203.457.404.914.203.457.914-.406-.203-.457-.404-.914zm1.406 5.195v4.865h-3.393zm-4 4.857.012.01H11z" color="#000" font-family="sans-serif" font-weight="400" overflow="visible"/></g></svg>