<svg xmlns="http://www.w3.org/2000/svg" xmlns:xlink="http://www.w3.org/1999/xlink" width="48" height="48"><defs><linearGradient id="b" x1="949.87" x2="974.39" y1="518.014" y2="544.657" gradientTransform="translate(-1454.353 211.343) scale(1.53785)" gradientUnits="userSpaceOnUse" xlink:href="#a"/><linearGradient id="a"><stop offset="0" stop-color="#24f7bc"/><stop offset="1" stop-color="#24c4fc"/></linearGradient></defs><g transform="translate(0 -1004.362)"><rect width="48" height="48" y="1004.362" fill="url(#b)" rx="10.144" ry="10.144"/><path style="line-height:normal;text-indent:0;text-align:start;text-decoration-line:none;text-transform:none;block-progression:tb" fill="#fff" d="M24 1016.362c-6.621 0-12 5.379-12 12 0 6.622 5.379 12 12 12s12-5.378 12-12c0-6.621-5.379-12-12-12zm-.5 1.032v.999a9.882 9.882 0 0 0-1.594.188l-.25-.97c.602-.13 1.21-.19 1.844-.218zm1 0c.635.029 1.242.087 1.844.218l-.25.969a9.883 9.883 0 0 0-1.594-.188v-1zm-3.813.468.25.969c-.516.167-1.023.38-1.5.625l-.5-.844c.553-.286 1.148-.56 1.75-.75zm6.625 0c.603.19 1.198.464 1.75.75l-.5.844a10.037 10.037 0 0 0-1.5-.625l.25-.969zm-9.25 1.25.5.844c-.445.29-.857.644-1.25 1-.005-.01-.025-.026-.03-.031l-.688-.687c.461-.422.94-.787 1.468-1.125zm11.875 0c.529.339 1.008.704 1.47 1.125l-.688.688c-.006.01-.026.025-.032.03-.392-.355-.804-.709-1.25-1l.5-.843zm-5.937.25c4.976 0 9 4.024 9 9 0 4.977-4.024 9-9 9s-9-4.023-9-9c0-4.976 4.024-9 9-9zm-2.5 1v1h5v-1h-5zm-5.625.594.688.688c.006.01.024.025.03.03-.36.4-.705.797-1 1.25l-.843-.5c.339-.529.703-1.006 1.125-1.468zm16.25 0c.422.462.786.94 1.125 1.469l-.844.5c-.294-.454-.638-.851-1-1.25.007 0 .025-.026.032-.031l.687-.688zM19 1022.331v1h10v-1H19zm-4.75.969.844.5c-.245.476-.427.983-.594 1.5h-.031l-.969-.25a11.2 11.2 0 0 1 .75-1.75zm19.5 0c.286.552.56 1.117.75 1.719l-.969.28a10.07 10.07 0 0 0-.625-1.5l.844-.5zm-10.313 1.062v1.281c-.642.25-1.125.83-1.125 1.563 0 .92.748 1.75 1.72 1.75.207 0 .324.069.405.156.082.088.125.214.125.406 0 .299-.271.563-.687.563a.76.76 0 0 1-.5-.187l-.438-.375-.75.875.438.375c.238.208.522.34.813.406v1.187h1.125v-1.281c.642-.25 1.125-.828 1.125-1.562 0-.446-.14-.868-.438-1.188a1.683 1.683 0 0 0-1.219-.531c-.397 0-.593-.24-.593-.594 0-.297.272-.562.687-.562.195 0 .374.078.5.187l.438.375.75-.875-.438-.375a1.868 1.868 0 0 0-.813-.406v-1.188h-1.125zm11.313 1.625c.132.603.19 1.24.219 1.875h-1a9.904 9.904 0 0 0-.188-1.594l.969-.28zm-21.5.031.969.25a9.903 9.903 0 0 0-.188 1.594h-1c.028-.625.091-1.25.219-1.844zm-.219 2.844h1c.027.546.076 1.074.188 1.594l-.969.28c-.132-.603-.19-1.238-.219-1.874zm20.938 0h1c-.029.636-.087 1.271-.219 1.875l-.969-.281c.112-.52.16-1.047.188-1.594zm-19.5 2.562h.031c.167.517.38 1.024.625 1.5h-.031l-.844.5a11.241 11.241 0 0 1-.75-1.75l.969-.25zm19.031 0h.031l.969.25c-.19.603-.463 1.198-.75 1.75l-.844-.5h-.031c.245-.476.458-.983.625-1.5zm-14.5 1.938v1h10v-1H19zm-3.406.437c.29.446.644.857 1 1.25-.007.01-.025.025-.032.031l-.687.688a10.69 10.69 0 0 1-1.125-1.469l.844-.5zm16.812 0 .844.5c-.339.53-.703 1.007-1.125 1.47l-.688-.688c-.006-.01-.024-.025-.03-.031.355-.393.709-.804 1-1.25zm-10.906 1.563v1h5v-1h-5zm-4.188.406c.4.361.828.675 1.282.969-.005.01-.027.024-.032.03l-.5.845a10.746 10.746 0 0 1-1.468-1.125l.687-.688c.007-.01.025-.024.032-.03zm13.375 0c.007.01.025.025.032.031l.687.688c-.461.42-.94.786-1.468 1.125l-.5-.844c.445-.29.857-.645 1.25-1zm-11.25 1.5c.478.245.983.427 1.5.594-.002.01.002.025 0 .03l-.28.97c-.603-.19-1.167-.464-1.72-.75l.5-.844zm9.125 0 .5.844c-.552.286-1.116.56-1.718.75l-.282-.969c0-.01.002-.025 0-.03.517-.167 1.025-.35 1.5-.595zm-6.656.875c.52.112 1.048.16 1.594.188v1a10.867 10.867 0 0 1-1.844-.22l.25-.968zm4.188 0 .25.969c-.602.131-1.21.19-1.844.219v-1a9.882 9.882 0 0 0 1.594-.188z" color="#000" font-family="sans-serif" font-weight="400" overflow="visible"/></g></svg>