<svg xmlns="http://www.w3.org/2000/svg" xmlns:xlink="http://www.w3.org/1999/xlink" width="48" height="48"><defs><linearGradient id="b" x1="906.952" x2="931.379" y1="515.915" y2="546.094" gradientTransform="translate(-1388.719 211.366) scale(1.53785)" gradientUnits="userSpaceOnUse" xlink:href="#a"/><linearGradient id="a"><stop offset="0" stop-color="#ffd800"/><stop offset="1" stop-color="#ff6100"/></linearGradient></defs><g transform="translate(0 -1004.385)"><rect width="48" height="48" y="1004.385" fill="url(#b)" rx="10.144" ry="10.144"/><path style="line-height:normal;-inkscape-font-specification:Sans;text-indent:0;text-align:start;text-decoration-line:none;text-transform:none;block-progression:tb;marker:none" fill="#fff" d="M23.5 1014.37v2h1v-2zm-2 3v1h5v-1zm-7.5 2v14h2.344a.41.41 0 0 1 .156 0H34v-14zm4 1.5c.823 0 1.5.678 1.5 1.5 0 .823-.677 1.5-1.5 1.5s-1.5-.677-1.5-1.5c0-.822.677-1.5 1.5-1.5zm0 1c-.282 0-.5.219-.5.5 0 .283.218.5.5.5.282 0 .5-.217.5-.5 0-.281-.218-.5-.5-.5zm6.937 1.126H25c-.054 0 .044-.012.187.03.071.028.136.07.188.126.022.018.077.014.094.03.01.01.021.02.031.032l2.687 3.03 1.5-1.655a.464.464 0 0 1 .032-.031.738.738 0 0 1 .156-.125c.055-.03.062-.05.219-.062-.131.01.168-.02.281.03.035.016.036.047.062.063h.032a.498.498 0 0 1 .125.125c.021.01.042.019.062.03l.719.876c.076.086.12.198.125.312v4.532a.52.52 0 0 1-.5.5H19.157c-.316 0-.657-.334-.657-.657a.77.77 0 0 1 .094-.343c.002 0-.009-.018 0-.031.004-.01.026.01.031 0v-.031a.19.19 0 0 0 .031-.031v-.031c.008-.01.025.01.031 0 .007-.01.035-.031.032-.031a.464.464 0 0 1 .031-.031l5.75-6.406a.464.464 0 0 1 .031-.031c.074-.07.098-.095.156-.125.059-.031.108-.076.25-.094zm.063 1.156-5.094 5.688H30.5v-3.844l-.344-.438-1.594 1.75a.522.522 0 0 1-.75 0zm-9 10.232v.487c0 .261.238.5.5.5h3.187l-3.625 6.28a.524.524 0 0 0 .188.688c.23.131.557.042.688-.187l3.906-6.781h2.562v6.5c-.003.264.236.5.5.5a.513.513 0 0 0 .5-.5v-6.5h2.75l3.906 6.75c.131.229.459.318.688.187a.524.524 0 0 0 .187-.687l-3.625-6.25H31.5a.52.52 0 0 0 .5-.5v-.482l-1-.019H17z" color="#000" font-family="Sans" font-weight="400" overflow="visible"/></g></svg>