<svg xmlns="http://www.w3.org/2000/svg" xmlns:xlink="http://www.w3.org/1999/xlink" width="48" height="48"><defs><linearGradient id="b" x1="992.183" x2="1019.298" y1="516.081" y2="545.959" gradientTransform="translate(-1522.705 211.343) scale(1.53785)" gradientUnits="userSpaceOnUse" xlink:href="#a"/><linearGradient id="a"><stop offset="0" stop-color="#ff1679"/><stop offset="1" stop-color="#ff770b"/></linearGradient></defs><g transform="translate(0 -1004.362)"><rect width="48" height="48" y="1004.362" fill="url(#b)" rx="10.144" ry="10.144"/><path fill="#fff" style="line-height:normal;text-indent:0;text-align:start;text-decoration-line:none;text-transform:none;block-progression:tb" d="M12.265 1015.865a.52.52 0 0 0-.482.498l-.03 8.199c0 .11.037.22.104.307l11.53 15.101a.506.506 0 0 0 .337.192l2.84 1.164c.162.067.358.04.496-.066l9-7a.52.52 0 0 0 .086-.705l-11-14a.507.507 0 0 0-.25-.17l-4.457-1.328a.517.517 0 0 0-.107-.043l-7.918-2.133a.496.496 0 0 0-.149-.016zm.516 1.15 7.088 1.908c.014.01.03.014.045.02l11.117 14.56-7.152 5.463-11.125-14.57zm2.725 2.244a1.48 1.48 0 0 0-.82.303c-.655.5-.781 1.448-.282 2.102.5.653 1.448.782 2.102.283.653-.5.782-1.45.283-2.104a1.496 1.496 0 0 0-.994-.572 1.551 1.551 0 0 0-.29-.012zm6.037.17 2.916.87 10.591 13.478-8.375 6.514-1.877-.77 7.237-5.525a.52.52 0 0 0 .094-.702zm-5.88.826a.497.497 0 0 1 .33.196c.172.224.131.53-.093.7a.493.493 0 0 1-.701-.093.493.493 0 0 1 .094-.701.499.499 0 0 1 .37-.102z" color="#000" font-family="sans-serif" font-weight="400" overflow="visible"/></g></svg>