<svg width="450" height="286" viewBox="0 0 450 286" fill="none" xmlns="http://www.w3.org/2000/svg">
<g clip-path="url(#clip0_146_3036)">
<path fill-rule="evenodd" clip-rule="evenodd" d="M1.62752 217.984C2.52636 217.984 3.25503 218.715 3.25503 219.617C3.25503 220.519 2.52636 221.25 1.62752 221.25C0.728662 221.25 0 220.519 0 219.617C0 218.715 0.728662 217.984 1.62752 217.984ZM10.3075 217.984C11.2064 217.984 11.935 218.715 11.935 219.617C11.935 220.519 11.2064 221.25 10.3075 221.25C9.40866 221.25 8.68 220.519 8.68 219.617C8.68 218.715 9.40866 217.984 10.3075 217.984ZM20.615 219.617C20.615 218.715 19.8864 217.984 18.9875 217.984C18.0887 217.984 17.36 218.715 17.36 219.617C17.36 220.519 18.0887 221.25 18.9875 221.25C19.8864 221.25 20.615 220.519 20.615 219.617ZM27.6678 217.984C28.5666 217.984 29.2953 218.715 29.2953 219.617C29.2953 220.519 28.5666 221.25 27.6678 221.25C26.7689 221.25 26.0403 220.519 26.0403 219.617C26.0403 218.715 26.7689 217.984 27.6678 217.984ZM37.9753 219.617C37.9753 218.715 37.2466 217.984 36.3478 217.984C35.4489 217.984 34.7203 218.715 34.7203 219.617C34.7203 220.519 35.4489 221.25 36.3478 221.25C37.2466 221.25 37.9753 220.519 37.9753 219.617ZM45.0278 217.984C45.9266 217.984 46.6553 218.715 46.6553 219.617C46.6553 220.519 45.9266 221.25 45.0278 221.25C44.1289 221.25 43.4003 220.519 43.4003 219.617C43.4003 218.715 44.1289 217.984 45.0278 217.984ZM55.3353 219.617C55.3353 218.715 54.6066 217.984 53.7078 217.984C52.8089 217.984 52.0803 218.715 52.0803 219.617C52.0803 220.519 52.8089 221.25 53.7078 221.25C54.6066 221.25 55.3353 220.519 55.3353 219.617ZM62.388 217.984C63.2869 217.984 64.0155 218.715 64.0155 219.617C64.0155 220.519 63.2869 221.25 62.388 221.25C61.4892 221.25 60.7605 220.519 60.7605 219.617C60.7605 218.715 61.4892 217.984 62.388 217.984ZM72.6955 219.617C72.6955 218.715 71.9669 217.984 71.0681 217.984C70.1692 217.984 69.4406 218.715 69.4406 219.617C69.4406 220.519 70.1692 221.25 71.0681 221.25C71.9669 221.25 72.6955 220.519 72.6955 219.617ZM79.7483 217.984C80.6472 217.984 81.3758 218.715 81.3758 219.617C81.3758 220.519 80.6472 221.25 79.7483 221.25C78.8495 221.25 78.1208 220.519 78.1208 219.617C78.1208 218.715 78.8495 217.984 79.7483 217.984ZM90.0558 219.617C90.0558 218.715 89.3272 217.984 88.4283 217.984C87.5295 217.984 86.8008 218.715 86.8008 219.617C86.8008 220.519 87.5295 221.25 88.4283 221.25C89.3272 221.25 90.0558 220.519 90.0558 219.617ZM1.62752 225.604C2.52636 225.604 3.25503 226.335 3.25503 227.236C3.25503 228.138 2.52636 228.869 1.62752 228.869C0.728662 228.869 0 228.138 0 227.236C0 226.335 0.728662 225.604 1.62752 225.604ZM11.935 227.236C11.935 226.335 11.2064 225.604 10.3075 225.604C9.40866 225.604 8.68 226.335 8.68 227.236C8.68 228.138 9.40866 228.869 10.3075 228.869C11.2064 228.869 11.935 228.138 11.935 227.236ZM18.9875 225.604C19.8864 225.604 20.615 226.335 20.615 227.236C20.615 228.138 19.8864 228.869 18.9875 228.869C18.0887 228.869 17.36 228.138 17.36 227.236C17.36 226.335 18.0887 225.604 18.9875 225.604ZM29.2953 227.236C29.2953 226.335 28.5666 225.604 27.6678 225.604C26.7689 225.604 26.0403 226.335 26.0403 227.236C26.0403 228.138 26.7689 228.869 27.6678 228.869C28.5666 228.869 29.2953 228.138 29.2953 227.236ZM36.3478 225.604C37.2466 225.604 37.9753 226.335 37.9753 227.236C37.9753 228.138 37.2466 228.869 36.3478 228.869C35.4489 228.869 34.7203 228.138 34.7203 227.236C34.7203 226.335 35.4489 225.604 36.3478 225.604ZM46.6553 227.236C46.6553 226.335 45.9266 225.604 45.0278 225.604C44.1289 225.604 43.4003 226.335 43.4003 227.236C43.4003 228.138 44.1289 228.869 45.0278 228.869C45.9266 228.869 46.6553 228.138 46.6553 227.236ZM53.7078 225.604C54.6066 225.604 55.3353 226.335 55.3353 227.236C55.3353 228.138 54.6066 228.869 53.7078 228.869C52.8089 228.869 52.0803 228.138 52.0803 227.236C52.0803 226.335 52.8089 225.604 53.7078 225.604ZM64.0155 227.236C64.0155 226.335 63.2869 225.604 62.388 225.604C61.4892 225.604 60.7605 226.335 60.7605 227.236C60.7605 228.138 61.4892 228.869 62.388 228.869C63.2869 228.869 64.0155 228.138 64.0155 227.236ZM71.0681 225.604C71.9669 225.604 72.6955 226.335 72.6955 227.236C72.6955 228.138 71.9669 228.869 71.0681 228.869C70.1692 228.869 69.4406 228.138 69.4406 227.236C69.4406 226.335 70.1692 225.604 71.0681 225.604ZM81.3758 227.236C81.3758 226.335 80.6472 225.604 79.7483 225.604C78.8495 225.604 78.1208 226.335 78.1208 227.236C78.1208 228.138 78.8495 228.869 79.7483 228.869C80.6472 228.869 81.3758 228.138 81.3758 227.236ZM88.4283 225.604C89.3272 225.604 90.0558 226.335 90.0558 227.236C90.0558 228.138 89.3272 228.869 88.4283 228.869C87.5295 228.869 86.8008 228.138 86.8008 227.236C86.8008 226.335 87.5295 225.604 88.4283 225.604ZM3.25503 235.945C3.25503 235.043 2.52636 234.312 1.62752 234.312C0.728662 234.312 0 235.043 0 235.945C0 236.846 0.728662 237.577 1.62752 237.577C2.52636 237.577 3.25503 236.846 3.25503 235.945ZM10.3075 234.312C11.2064 234.312 11.935 235.043 11.935 235.945C11.935 236.846 11.2064 237.577 10.3075 237.577C9.40866 237.577 8.68 236.846 8.68 235.945C8.68 235.043 9.40866 234.312 10.3075 234.312ZM20.615 235.945C20.615 235.043 19.8864 234.312 18.9875 234.312C18.0887 234.312 17.36 235.043 17.36 235.945C17.36 236.846 18.0887 237.577 18.9875 237.577C19.8864 237.577 20.615 236.846 20.615 235.945ZM27.6678 234.312C28.5666 234.312 29.2953 235.043 29.2953 235.945C29.2953 236.846 28.5666 237.577 27.6678 237.577C26.7689 237.577 26.0403 236.846 26.0403 235.945C26.0403 235.043 26.7689 234.312 27.6678 234.312ZM37.9753 235.945C37.9753 235.043 37.2466 234.312 36.3478 234.312C35.4489 234.312 34.7203 235.043 34.7203 235.945C34.7203 236.846 35.4489 237.577 36.3478 237.577C37.2466 237.577 37.9753 236.846 37.9753 235.945ZM45.0278 234.312C45.9266 234.312 46.6553 235.043 46.6553 235.945C46.6553 236.846 45.9266 237.577 45.0278 237.577C44.1289 237.577 43.4003 236.846 43.4003 235.945C43.4003 235.043 44.1289 234.312 45.0278 234.312ZM55.3353 235.945C55.3353 235.043 54.6066 234.312 53.7078 234.312C52.8089 234.312 52.0803 235.043 52.0803 235.945C52.0803 236.846 52.8089 237.577 53.7078 237.577C54.6066 237.577 55.3353 236.846 55.3353 235.945ZM62.388 234.312C63.2869 234.312 64.0155 235.043 64.0155 235.945C64.0155 236.846 63.2869 237.577 62.388 237.577C61.4892 237.577 60.7605 236.846 60.7605 235.945C60.7605 235.043 61.4892 234.312 62.388 234.312ZM72.6955 235.945C72.6955 235.043 71.9669 234.312 71.0681 234.312C70.1692 234.312 69.4406 235.043 69.4406 235.945C69.4406 236.846 70.1692 237.577 71.0681 237.577C71.9669 237.577 72.6955 236.846 72.6955 235.945ZM79.7483 234.312C80.6472 234.312 81.3758 235.043 81.3758 235.945C81.3758 236.846 80.6472 237.577 79.7483 237.577C78.8495 237.577 78.1208 236.846 78.1208 235.945C78.1208 235.043 78.8495 234.312 79.7483 234.312ZM90.0558 235.945C90.0558 235.043 89.3272 234.312 88.4283 234.312C87.5295 234.312 86.8008 235.043 86.8008 235.945C86.8008 236.846 87.5295 237.577 88.4283 237.577C89.3272 237.577 90.0558 236.846 90.0558 235.945ZM1.62752 241.931C2.52636 241.931 3.25503 242.662 3.25503 243.565C3.25503 244.466 2.52636 245.197 1.62752 245.197C0.728662 245.197 0 244.466 0 243.565C0 242.662 0.728662 241.931 1.62752 241.931ZM11.935 243.565C11.935 242.662 11.2064 241.931 10.3075 241.931C9.40866 241.931 8.68 242.662 8.68 243.565C8.68 244.466 9.40866 245.197 10.3075 245.197C11.2064 245.197 11.935 244.466 11.935 243.565ZM18.9875 241.931C19.8864 241.931 20.615 242.662 20.615 243.565C20.615 244.466 19.8864 245.197 18.9875 245.197C18.0887 245.197 17.36 244.466 17.36 243.565C17.36 242.662 18.0887 241.931 18.9875 241.931ZM29.2953 243.565C29.2953 242.662 28.5666 241.931 27.6678 241.931C26.7689 241.931 26.0403 242.662 26.0403 243.565C26.0403 244.466 26.7689 245.197 27.6678 245.197C28.5666 245.197 29.2953 244.466 29.2953 243.565ZM36.3478 241.931C37.2466 241.931 37.9753 242.662 37.9753 243.565C37.9753 244.466 37.2466 245.197 36.3478 245.197C35.4489 245.197 34.7203 244.466 34.7203 243.565C34.7203 242.662 35.4489 241.931 36.3478 241.931ZM46.6553 243.565C46.6553 242.662 45.9266 241.931 45.0278 241.931C44.1289 241.931 43.4003 242.662 43.4003 243.565C43.4003 244.466 44.1289 245.197 45.0278 245.197C45.9266 245.197 46.6553 244.466 46.6553 243.565ZM53.7078 241.931C54.6066 241.931 55.3353 242.662 55.3353 243.565C55.3353 244.466 54.6066 245.197 53.7078 245.197C52.8089 245.197 52.0803 244.466 52.0803 243.565C52.0803 242.662 52.8089 241.931 53.7078 241.931ZM64.0155 243.565C64.0155 242.662 63.2869 241.931 62.388 241.931C61.4892 241.931 60.7605 242.662 60.7605 243.565C60.7605 244.466 61.4892 245.197 62.388 245.197C63.2869 245.197 64.0155 244.466 64.0155 243.565ZM71.0681 241.931C71.9669 241.931 72.6955 242.662 72.6955 243.565C72.6955 244.466 71.9669 245.197 71.0681 245.197C70.1692 245.197 69.4406 244.466 69.4406 243.565C69.4406 242.662 70.1692 241.931 71.0681 241.931ZM81.3758 243.565C81.3758 242.662 80.6472 241.931 79.7483 241.931C78.8495 241.931 78.1208 242.662 78.1208 243.565C78.1208 244.466 78.8495 245.197 79.7483 245.197C80.6472 245.197 81.3758 244.466 81.3758 243.565ZM88.4283 241.931C89.3272 241.931 90.0558 242.662 90.0558 243.565C90.0558 244.466 89.3272 245.197 88.4283 245.197C87.5295 245.197 86.8008 244.466 86.8008 243.565C86.8008 242.662 87.5295 241.931 88.4283 241.931ZM3.25503 251.184C3.25503 250.282 2.52636 249.551 1.62752 249.551C0.728662 249.551 0 250.282 0 251.184C0 252.085 0.728662 252.816 1.62752 252.816C2.52636 252.816 3.25503 252.085 3.25503 251.184ZM10.3075 249.551C11.2064 249.551 11.935 250.282 11.935 251.184C11.935 252.085 11.2064 252.816 10.3075 252.816C9.40866 252.816 8.68 252.085 8.68 251.184C8.68 250.282 9.40866 249.551 10.3075 249.551ZM20.615 251.184C20.615 250.282 19.8864 249.551 18.9875 249.551C18.0887 249.551 17.36 250.282 17.36 251.184C17.36 252.085 18.0887 252.816 18.9875 252.816C19.8864 252.816 20.615 252.085 20.615 251.184ZM27.6678 249.551C28.5666 249.551 29.2953 250.282 29.2953 251.184C29.2953 252.085 28.5666 252.816 27.6678 252.816C26.7689 252.816 26.0403 252.085 26.0403 251.184C26.0403 250.282 26.7689 249.551 27.6678 249.551ZM37.9753 251.184C37.9753 250.282 37.2466 249.551 36.3478 249.551C35.4489 249.551 34.7203 250.282 34.7203 251.184C34.7203 252.085 35.4489 252.816 36.3478 252.816C37.2466 252.816 37.9753 252.085 37.9753 251.184ZM45.0278 249.551C45.9266 249.551 46.6553 250.282 46.6553 251.184C46.6553 252.085 45.9266 252.816 45.0278 252.816C44.1289 252.816 43.4003 252.085 43.4003 251.184C43.4003 250.282 44.1289 249.551 45.0278 249.551ZM55.3353 251.184C55.3353 250.282 54.6066 249.551 53.7078 249.551C52.8089 249.551 52.0803 250.282 52.0803 251.184C52.0803 252.085 52.8089 252.816 53.7078 252.816C54.6066 252.816 55.3353 252.085 55.3353 251.184ZM62.388 249.551C63.2869 249.551 64.0155 250.282 64.0155 251.184C64.0155 252.085 63.2869 252.816 62.388 252.816C61.4892 252.816 60.7605 252.085 60.7605 251.184C60.7605 250.282 61.4892 249.551 62.388 249.551ZM72.6955 251.184C72.6955 250.282 71.9669 249.551 71.0681 249.551C70.1692 249.551 69.4406 250.282 69.4406 251.184C69.4406 252.085 70.1692 252.816 71.0681 252.816C71.9669 252.816 72.6955 252.085 72.6955 251.184ZM79.7483 249.551C80.6472 249.551 81.3758 250.282 81.3758 251.184C81.3758 252.085 80.6472 252.816 79.7483 252.816C78.8495 252.816 78.1208 252.085 78.1208 251.184C78.1208 250.282 78.8495 249.551 79.7483 249.551ZM90.0558 251.184C90.0558 250.282 89.3272 249.551 88.4283 249.551C87.5295 249.551 86.8008 250.282 86.8008 251.184C86.8008 252.085 87.5295 252.816 88.4283 252.816C89.3272 252.816 90.0558 252.085 90.0558 251.184ZM1.62752 258.259C2.52636 258.259 3.25503 258.99 3.25503 259.892C3.25503 260.794 2.52636 261.525 1.62752 261.525C0.728662 261.525 0 260.794 0 259.892C0 258.99 0.728662 258.259 1.62752 258.259ZM11.935 259.892C11.935 258.99 11.2064 258.259 10.3075 258.259C9.40866 258.259 8.68 258.99 8.68 259.892C8.68 260.794 9.40866 261.525 10.3075 261.525C11.2064 261.525 11.935 260.794 11.935 259.892ZM18.9875 258.259C19.8864 258.259 20.615 258.99 20.615 259.892C20.615 260.794 19.8864 261.525 18.9875 261.525C18.0887 261.525 17.36 260.794 17.36 259.892C17.36 258.99 18.0887 258.259 18.9875 258.259ZM29.2953 259.892C29.2953 258.99 28.5666 258.259 27.6678 258.259C26.7689 258.259 26.0403 258.99 26.0403 259.892C26.0403 260.794 26.7689 261.525 27.6678 261.525C28.5666 261.525 29.2953 260.794 29.2953 259.892ZM36.3478 258.259C37.2466 258.259 37.9753 258.99 37.9753 259.892C37.9753 260.794 37.2466 261.525 36.3478 261.525C35.4489 261.525 34.7203 260.794 34.7203 259.892C34.7203 258.99 35.4489 258.259 36.3478 258.259ZM46.6553 259.892C46.6553 258.99 45.9266 258.259 45.0278 258.259C44.1289 258.259 43.4003 258.99 43.4003 259.892C43.4003 260.794 44.1289 261.525 45.0278 261.525C45.9266 261.525 46.6553 260.794 46.6553 259.892ZM53.7078 258.259C54.6066 258.259 55.3353 258.99 55.3353 259.892C55.3353 260.794 54.6066 261.525 53.7078 261.525C52.8089 261.525 52.0803 260.794 52.0803 259.892C52.0803 258.99 52.8089 258.259 53.7078 258.259ZM64.0155 259.892C64.0155 258.99 63.2869 258.259 62.388 258.259C61.4892 258.259 60.7605 258.99 60.7605 259.892C60.7605 260.794 61.4892 261.525 62.388 261.525C63.2869 261.525 64.0155 260.794 64.0155 259.892ZM71.0681 258.259C71.9669 258.259 72.6955 258.99 72.6955 259.892C72.6955 260.794 71.9669 261.525 71.0681 261.525C70.1692 261.525 69.4406 260.794 69.4406 259.892C69.4406 258.99 70.1692 258.259 71.0681 258.259ZM81.3758 259.892C81.3758 258.99 80.6472 258.259 79.7483 258.259C78.8495 258.259 78.1208 258.99 78.1208 259.892C78.1208 260.794 78.8495 261.525 79.7483 261.525C80.6472 261.525 81.3758 260.794 81.3758 259.892ZM88.4283 258.259C89.3272 258.259 90.0558 258.99 90.0558 259.892C90.0558 260.794 89.3272 261.525 88.4283 261.525C87.5295 261.525 86.8008 260.794 86.8008 259.892C86.8008 258.99 87.5295 258.259 88.4283 258.259ZM3.25503 267.512C3.25503 266.611 2.52636 265.879 1.62752 265.879C0.728662 265.879 0 266.611 0 267.512C0 268.414 0.728662 269.145 1.62752 269.145C2.52636 269.145 3.25503 268.414 3.25503 267.512ZM10.3075 265.879C11.2064 265.879 11.935 266.611 11.935 267.512C11.935 268.414 11.2064 269.145 10.3075 269.145C9.40866 269.145 8.68 268.414 8.68 267.512C8.68 266.611 9.40866 265.879 10.3075 265.879ZM20.615 267.512C20.615 266.611 19.8864 265.879 18.9875 265.879C18.0887 265.879 17.36 266.611 17.36 267.512C17.36 268.414 18.0887 269.145 18.9875 269.145C19.8864 269.145 20.615 268.414 20.615 267.512ZM27.6678 265.879C28.5666 265.879 29.2953 266.611 29.2953 267.512C29.2953 268.414 28.5666 269.145 27.6678 269.145C26.7689 269.145 26.0403 268.414 26.0403 267.512C26.0403 266.611 26.7689 265.879 27.6678 265.879ZM37.9753 267.512C37.9753 266.611 37.2466 265.879 36.3478 265.879C35.4489 265.879 34.7203 266.611 34.7203 267.512C34.7203 268.414 35.4489 269.145 36.3478 269.145C37.2466 269.145 37.9753 268.414 37.9753 267.512ZM45.0278 265.879C45.9266 265.879 46.6553 266.611 46.6553 267.512C46.6553 268.414 45.9266 269.145 45.0278 269.145C44.1289 269.145 43.4003 268.414 43.4003 267.512C43.4003 266.611 44.1289 265.879 45.0278 265.879ZM55.3353 267.512C55.3353 266.611 54.6066 265.879 53.7078 265.879C52.8089 265.879 52.0803 266.611 52.0803 267.512C52.0803 268.414 52.8089 269.145 53.7078 269.145C54.6066 269.145 55.3353 268.414 55.3353 267.512ZM62.388 265.879C63.2869 265.879 64.0155 266.611 64.0155 267.512C64.0155 268.414 63.2869 269.145 62.388 269.145C61.4892 269.145 60.7605 268.414 60.7605 267.512C60.7605 266.611 61.4892 265.879 62.388 265.879ZM72.6955 267.512C72.6955 266.611 71.9669 265.879 71.0681 265.879C70.1692 265.879 69.4406 266.611 69.4406 267.512C69.4406 268.414 70.1692 269.145 71.0681 269.145C71.9669 269.145 72.6955 268.414 72.6955 267.512ZM79.7483 265.879C80.6472 265.879 81.3758 266.611 81.3758 267.512C81.3758 268.414 80.6472 269.145 79.7483 269.145C78.8495 269.145 78.1208 268.414 78.1208 267.512C78.1208 266.611 78.8495 265.879 79.7483 265.879ZM90.0558 267.512C90.0558 266.611 89.3272 265.879 88.4283 265.879C87.5295 265.879 86.8008 266.611 86.8008 267.512C86.8008 268.414 87.5295 269.145 88.4283 269.145C89.3272 269.145 90.0558 268.414 90.0558 267.512ZM1.62752 274.587C2.52636 274.587 3.25503 275.319 3.25503 276.22C3.25503 277.122 2.52636 277.853 1.62752 277.853C0.728662 277.853 0 277.122 0 276.22C0 275.319 0.728662 274.587 1.62752 274.587ZM11.935 276.22C11.935 275.319 11.2064 274.587 10.3075 274.587C9.40866 274.587 8.68 275.319 8.68 276.22C8.68 277.122 9.40866 277.853 10.3075 277.853C11.2064 277.853 11.935 277.122 11.935 276.22ZM18.9875 274.587C19.8864 274.587 20.615 275.319 20.615 276.22C20.615 277.122 19.8864 277.853 18.9875 277.853C18.0887 277.853 17.36 277.122 17.36 276.22C17.36 275.319 18.0887 274.587 18.9875 274.587ZM29.2953 276.22C29.2953 275.319 28.5666 274.587 27.6678 274.587C26.7689 274.587 26.0403 275.319 26.0403 276.22C26.0403 277.122 26.7689 277.853 27.6678 277.853C28.5666 277.853 29.2953 277.122 29.2953 276.22ZM36.3478 274.587C37.2466 274.587 37.9753 275.319 37.9753 276.22C37.9753 277.122 37.2466 277.853 36.3478 277.853C35.4489 277.853 34.7203 277.122 34.7203 276.22C34.7203 275.319 35.4489 274.587 36.3478 274.587ZM46.6553 276.22C46.6553 275.319 45.9266 274.587 45.0278 274.587C44.1289 274.587 43.4003 275.319 43.4003 276.22C43.4003 277.122 44.1289 277.853 45.0278 277.853C45.9266 277.853 46.6553 277.122 46.6553 276.22ZM53.7078 274.587C54.6066 274.587 55.3353 275.319 55.3353 276.22C55.3353 277.122 54.6066 277.853 53.7078 277.853C52.8089 277.853 52.0803 277.122 52.0803 276.22C52.0803 275.319 52.8089 274.587 53.7078 274.587ZM64.0155 276.22C64.0155 275.319 63.2869 274.587 62.388 274.587C61.4892 274.587 60.7605 275.319 60.7605 276.22C60.7605 277.122 61.4892 277.853 62.388 277.853C63.2869 277.853 64.0155 277.122 64.0155 276.22ZM71.0681 274.587C71.9669 274.587 72.6955 275.319 72.6955 276.22C72.6955 277.122 71.9669 277.853 71.0681 277.853C70.1692 277.853 69.4406 277.122 69.4406 276.22C69.4406 275.319 70.1692 274.587 71.0681 274.587ZM81.3758 276.22C81.3758 275.319 80.6472 274.587 79.7483 274.587C78.8495 274.587 78.1208 275.319 78.1208 276.22C78.1208 277.122 78.8495 277.853 79.7483 277.853C80.6472 277.853 81.3758 277.122 81.3758 276.22ZM88.4283 274.587C89.3272 274.587 90.0558 275.319 90.0558 276.22C90.0558 277.122 89.3272 277.853 88.4283 277.853C87.5295 277.853 86.8008 277.122 86.8008 276.22C86.8008 275.319 87.5295 274.587 88.4283 274.587ZM3.25503 283.839C3.25503 282.938 2.52636 282.207 1.62752 282.207C0.728662 282.207 0 282.938 0 283.839C0 284.741 0.728662 285.472 1.62752 285.472C2.52636 285.472 3.25503 284.741 3.25503 283.839ZM10.3075 282.207C11.2064 282.207 11.935 282.938 11.935 283.839C11.935 284.741 11.2064 285.472 10.3075 285.472C9.40866 285.472 8.68 284.741 8.68 283.839C8.68 282.938 9.40866 282.207 10.3075 282.207ZM20.615 283.839C20.615 282.938 19.8864 282.207 18.9875 282.207C18.0887 282.207 17.36 282.938 17.36 283.839C17.36 284.741 18.0887 285.472 18.9875 285.472C19.8864 285.472 20.615 284.741 20.615 283.839ZM27.6678 282.207C28.5666 282.207 29.2953 282.938 29.2953 283.839C29.2953 284.741 28.5666 285.472 27.6678 285.472C26.7689 285.472 26.0403 284.741 26.0403 283.839C26.0403 282.938 26.7689 282.207 27.6678 282.207ZM37.9753 283.839C37.9753 282.938 37.2466 282.207 36.3478 282.207C35.4489 282.207 34.7203 282.938 34.7203 283.839C34.7203 284.741 35.4489 285.472 36.3478 285.472C37.2466 285.472 37.9753 284.741 37.9753 283.839ZM45.0278 282.207C45.9266 282.207 46.6553 282.938 46.6553 283.839C46.6553 284.741 45.9266 285.472 45.0278 285.472C44.1289 285.472 43.4003 284.741 43.4003 283.839C43.4003 282.938 44.1289 282.207 45.0278 282.207ZM55.3353 283.839C55.3353 282.938 54.6066 282.207 53.7078 282.207C52.8089 282.207 52.0803 282.938 52.0803 283.839C52.0803 284.741 52.8089 285.472 53.7078 285.472C54.6066 285.472 55.3353 284.741 55.3353 283.839ZM62.388 282.207C63.2869 282.207 64.0155 282.938 64.0155 283.839C64.0155 284.741 63.2869 285.472 62.388 285.472C61.4892 285.472 60.7605 284.741 60.7605 283.839C60.7605 282.938 61.4892 282.207 62.388 282.207ZM72.6955 283.839C72.6955 282.938 71.9669 282.207 71.0681 282.207C70.1692 282.207 69.4406 282.938 69.4406 283.839C69.4406 284.741 70.1692 285.472 71.0681 285.472C71.9669 285.472 72.6955 284.741 72.6955 283.839ZM79.7483 282.207C80.6472 282.207 81.3758 282.938 81.3758 283.839C81.3758 284.741 80.6472 285.472 79.7483 285.472C78.8495 285.472 78.1208 284.741 78.1208 283.839C78.1208 282.938 78.8495 282.207 79.7483 282.207ZM90.0558 283.839C90.0558 282.938 89.3272 282.207 88.4283 282.207C87.5295 282.207 86.8008 282.938 86.8008 283.839C86.8008 284.741 87.5295 285.472 88.4283 285.472C89.3272 285.472 90.0558 284.741 90.0558 283.839Z" fill="#4945FF"/>
<path d="M450 0H324.14L450 119.737V0Z" fill="url(#paint0_linear_146_3036)"/>
<g filter="url(#filter0_d_146_3036)">
<path d="M414.044 24.7217H53.4974C46.2763 24.7217 40.4224 30.5756 40.4224 37.7967V242.419C40.4224 249.64 46.2763 255.494 53.4974 255.494H414.044C421.266 255.494 427.119 249.64 427.119 242.419V37.7967C427.119 30.5756 421.266 24.7217 414.044 24.7217Z" fill="white"/>
</g>
<path d="M335.315 35.1523H151.108C149.302 35.1523 147.839 36.6158 147.839 38.4211V46.8773C147.839 48.6826 149.302 50.1461 151.108 50.1461H335.315C337.12 50.1461 338.583 48.6826 338.583 46.8773V38.4211C338.583 36.6158 337.12 35.1523 335.315 35.1523Z" fill="#F1F7FE"/>
<path d="M77.7928 45.7242C79.5292 46.1902 81.3141 45.1582 81.7793 43.4194C82.2447 41.6806 81.2142 39.8932 79.4777 39.4273C77.7413 38.9614 75.9565 39.9933 75.4911 41.7321C75.0258 43.471 76.0564 45.2583 77.7928 45.7242Z" fill="#FD7A8C"/>
<path d="M67.0028 45.6587C68.7392 46.1246 70.524 45.0928 70.9894 43.3539C71.4547 41.615 70.4241 39.8278 68.6878 39.3619C66.9513 38.896 65.1664 39.9278 64.7011 41.6667C64.2358 43.4056 65.2663 45.1928 67.0028 45.6587Z" fill="#80EBFF"/>
<path d="M88.2268 45.5524C89.9633 46.0183 91.7482 44.9863 92.2134 43.2476C92.6787 41.5087 91.6483 39.7213 89.9118 39.2554C88.1753 38.7895 86.3904 39.8215 85.9252 41.5602C85.4599 43.2991 86.4904 45.0865 88.2268 45.5524Z" fill="#FEE895"/>
<path opacity="0.896828" d="M147.729 97.1572H86.6333C80.1342 97.1572 74.8657 102.426 74.8657 108.925V165.94C74.8657 172.439 80.1342 177.708 86.6333 177.708H147.729C154.228 177.708 159.496 172.439 159.496 165.94V108.925C159.496 102.426 154.228 97.1572 147.729 97.1572Z" fill="#E2EBFF"/>
<path d="M145.883 199.588H76.8815C75.8014 199.588 74.9258 200.463 74.9258 201.544C74.9258 202.624 75.8014 203.499 76.8815 203.499H145.883C146.963 203.499 147.838 202.624 147.838 201.544C147.838 200.463 146.963 199.588 145.883 199.588Z" fill="#E7ECF8"/>
<path d="M156.299 210.019H76.8815C75.8014 210.019 74.9258 210.894 74.9258 211.974C74.9258 213.054 75.8014 213.93 76.8815 213.93H156.299C157.379 213.93 158.254 213.054 158.254 211.974C158.254 210.894 157.379 210.019 156.299 210.019Z" fill="#E7ECF8"/>
<path d="M136.118 217.842H76.8815C75.8014 217.842 74.9258 218.717 74.9258 219.798C74.9258 220.878 75.8014 221.753 76.8815 221.753H136.118C137.198 221.753 138.073 220.878 138.073 219.798C138.073 218.717 137.198 217.842 136.118 217.842Z" fill="#E7ECF8"/>
<path opacity="0.5" d="M270.975 88.4492H195.579C187.636 88.4492 181.196 94.8885 181.196 102.832V173.122C181.196 181.065 187.636 187.505 195.579 187.505H270.975C278.918 187.505 285.357 181.065 285.357 173.122V102.832C285.357 94.8885 278.918 88.4492 270.975 88.4492Z" fill="#DADAFF"/>
<path d="M256.336 199.588H187.335C186.255 199.588 185.379 200.463 185.379 201.544C185.379 202.624 186.255 203.499 187.335 203.499H256.336C257.416 203.499 258.292 202.624 258.292 201.544C258.292 200.463 257.416 199.588 256.336 199.588Z" fill="#E7ECF8"/>
<path d="M266.752 210.019H187.335C186.255 210.019 185.379 210.894 185.379 211.974C185.379 213.054 186.255 213.93 187.335 213.93H266.752C267.832 213.93 268.708 213.054 268.708 211.974C268.708 210.894 267.832 210.019 266.752 210.019Z" fill="#E7ECF8"/>
<path d="M246.571 217.842H187.335C186.255 217.842 185.379 218.717 185.379 219.798C185.379 220.878 186.255 221.753 187.335 221.753H246.571C247.651 221.753 248.527 220.878 248.527 219.798C248.527 218.717 247.651 217.842 246.571 217.842Z" fill="#E7ECF8"/>
<path opacity="0.896828" d="M376.665 97.1572H315.57C309.071 97.1572 303.802 102.426 303.802 108.925V165.94C303.802 172.439 309.071 177.708 315.57 177.708H376.665C383.164 177.708 388.433 172.439 388.433 165.94V108.925C388.433 102.426 383.164 97.1572 376.665 97.1572Z" fill="#E2EBFF"/>
<path d="M376.339 199.588H307.338C306.258 199.588 305.382 200.463 305.382 201.544C305.382 202.624 306.258 203.499 307.338 203.499H376.339C377.419 203.499 378.295 202.624 378.295 201.544C378.295 200.463 377.419 199.588 376.339 199.588Z" fill="#E7ECF8"/>
<path d="M386.755 210.019H307.338C306.258 210.019 305.382 210.894 305.382 211.974C305.382 213.054 306.258 213.93 307.338 213.93H386.755C387.835 213.93 388.711 213.054 388.711 211.974C388.711 210.894 387.835 210.019 386.755 210.019Z" fill="#E7ECF8"/>
<path d="M366.574 217.842H307.338C306.258 217.842 305.382 218.717 305.382 219.798C305.382 220.878 306.258 221.753 307.338 221.753H366.574C367.654 221.753 368.53 220.878 368.53 219.798C368.53 218.717 367.654 217.842 366.574 217.842Z" fill="#E7ECF8"/>
<path fill-rule="evenodd" clip-rule="evenodd" d="M118.661 125.369L122.052 128.76L124.085 126.726C125.447 125.363 127.656 125.363 129.018 126.726C130.381 128.089 130.381 130.299 129.018 131.662L126.986 133.696L130.376 137.087C131.013 137.726 131.013 138.761 130.376 139.399L126.986 142.791L125.73 141.534C124.367 140.171 122.158 140.171 120.796 141.534C119.434 142.897 119.434 145.106 120.796 146.469L122.052 147.726L118.661 151.119C118.024 151.757 116.989 151.757 116.35 151.119L112.961 147.727L110.93 149.76C109.567 151.123 107.358 151.123 105.996 149.76C104.634 148.397 104.634 146.187 105.996 144.824L108.028 142.792L104.637 139.399C103.999 138.761 103.999 137.726 104.637 137.087L108.027 133.695L109.284 134.953C110.646 136.316 112.855 136.316 114.218 134.953C115.58 133.589 115.58 131.38 114.218 130.017L112.961 128.759L116.35 125.369C116.989 124.73 118.023 124.73 118.661 125.369Z" fill="#A0C2FF"/>
<path fill-rule="evenodd" clip-rule="evenodd" d="M347.147 124.28L350.537 127.672L352.57 125.637C353.933 124.274 356.142 124.274 357.504 125.637C358.866 127 358.866 129.21 357.504 130.573L355.471 132.607L358.86 135.998C359.499 136.637 359.499 137.672 358.86 138.31L355.471 141.701L354.214 140.445C352.852 139.082 350.644 139.082 349.281 140.445C347.919 141.808 347.919 144.018 349.281 145.381L350.538 146.637L347.147 150.03C346.509 150.668 345.474 150.668 344.836 150.03L341.446 146.638L339.414 148.671C338.052 150.034 335.844 150.034 334.482 148.671C333.119 147.308 333.119 145.098 334.482 143.735L336.513 141.703L333.122 138.31C332.483 137.672 332.483 136.637 333.122 135.998L336.513 132.606L337.769 133.864C339.132 135.227 341.341 135.227 342.703 133.864C344.065 132.501 344.065 130.291 342.703 128.928L341.445 127.67L344.836 124.28C345.474 123.641 346.509 123.641 347.147 124.28Z" fill="#A0C2FF"/>
</g>
<defs>
<filter id="filter0_d_146_3036" x="34.4224" y="19.7217" width="398.697" height="242.772" filterUnits="userSpaceOnUse" color-interpolation-filters="sRGB">
<feFlood flood-opacity="0" result="BackgroundImageFix"/>
<feColorMatrix in="SourceAlpha" type="matrix" values="0 0 0 0 0 0 0 0 0 0 0 0 0 0 0 0 0 0 127 0" result="hardAlpha"/>
<feOffset dy="1"/>
<feGaussianBlur stdDeviation="3"/>
<feColorMatrix type="matrix" values="0 0 0 0 0.458824 0 0 0 0 0.552941 0 0 0 0 0.65098 0 0 0 0.214161 0"/>
<feBlend mode="normal" in2="BackgroundImageFix" result="effect1_dropShadow_146_3036"/>
<feBlend mode="normal" in="SourceGraphic" in2="effect1_dropShadow_146_3036" result="shape"/>
</filter>
<linearGradient id="paint0_linear_146_3036" x1="466.344" y1="-75.7264" x2="550.108" y2="142.098" gradientUnits="userSpaceOnUse">
<stop stop-color="#BBBBFF"/>
<stop offset="0.484375" stop-color="#4945FF"/>
<stop offset="1" stop-color="#271FE0"/>
</linearGradient>
<clipPath id="clip0_146_3036">
<rect width="450" height="285.472" fill="white"/>
</clipPath>
</defs>
</svg>
